<?xml version="1.0" encoding="utf-8"?>
<!-- Generator: Adobe Illustrator 19.1.0, SVG Export Plug-In . SVG Version: 6.00 Build 0)  -->
<!DOCTYPE svg PUBLIC "-//W3C//DTD SVG 1.1//EN" "http://www.w3.org/Graphics/SVG/1.1/DTD/svg11.dtd">
<svg version="1.1" id="ic" xmlns="http://www.w3.org/2000/svg" xmlns:xlink="http://www.w3.org/1999/xlink" x="0px" y="0px"
	 width="465px" height="465px" viewBox="0 0 465 465" enable-background="new 0 0 465 465" xml:space="preserve">
<g>
	<path d="M68.8359909,346.6199951c0,7.5326538,6.1073608,13.6400146,13.6399994,13.6400146h300.0800171
		c7.5327454,0,13.6399841-6.1073608,13.6399841-13.6400146V128.3800049c0-7.5326385-6.1072388-13.640007-13.6399841-13.640007
		H82.4759903c-7.5326385,0-13.6399994,6.1073685-13.6399994,13.640007V346.6199951z M96.1159897,148.8399963
		c0-3.7646484,3.0553513-6.8199921,6.8199997-6.8199921h259.1599731c3.764679,0,6.8200073,3.0553436,6.8200073,6.8199921v21.0328827
		H96.1159897V148.8399963z M362.0959778,332.980011H102.9359894c-3.7646484,0-6.8199997-3.0553589-6.8199997-6.8200073V224.4328766
		h272.7999878v101.7271271C368.9159851,329.9246521,365.8606567,332.980011,362.0959778,332.980011z"/>
</g>
</svg>
