<?xml version="1.0" encoding="utf-8"?>
<!-- Generator: Adobe Illustrator 19.1.0, SVG Export Plug-In . SVG Version: 6.00 Build 0)  -->
<!DOCTYPE svg PUBLIC "-//W3C//DTD SVG 1.1//EN" "http://www.w3.org/Graphics/SVG/1.1/DTD/svg11.dtd">
<svg version="1.1" id="ic" xmlns="http://www.w3.org/2000/svg" xmlns:xlink="http://www.w3.org/1999/xlink" x="0px" y="0px"
	 width="465px" height="465px" viewBox="0 0 465 465" enable-background="new 0 0 465 465" xml:space="preserve">
<g>
	<path d="M321.7806396,255.5375824c-41.0869141,0-75.5861053-11.1030121-75.5861053-24.7975311v26.4514465
		c0,13.6978455,34.4991913,24.8008423,75.5861053,24.8008423c41.0939941,0,74.399353-11.1063232,74.399353-24.8008423v-26.4514465
		C396.1799927,244.4345703,362.8713074,255.5375824,321.7806396,255.5375824z"/>
	<path d="M321.7806396,295.2164001c-41.0869141,0-75.5861053-11.1029968-75.5861053-24.7976379v26.4548645
		c0,13.6979675,34.4991913,24.7975464,75.5861053,24.7975464c41.0939941,0,74.399353-11.1030273,74.399353-24.7975464v-26.4548645
		C396.1799927,284.1134033,362.8713074,295.2164001,321.7806396,295.2164001z"/>
	<path d="M321.7806396,334.9019775c-41.0869141,0-75.5861053-11.1064453-75.5861053-24.8009644v26.4547729
		c0,13.6979675,34.4991913,24.7975159,75.5861053,24.7975159c41.0939941,0,74.399353-11.1029968,74.399353-24.7975159v-26.4547729
		C396.1799927,323.7955322,362.8713074,334.9019775,321.7806396,334.9019775z"/>
	<path d="M321.7806396,374.584137c-41.0869141,0-75.5861053-11.1030273-75.5861053-24.7975464v26.4547729
		c0,13.6979675,34.4991913,24.7975159,75.5861053,24.7975159c41.0939941,0,74.399353-11.1029358,74.399353-24.7975159v-26.4547729
		C396.1799927,363.4811096,362.8713074,374.584137,321.7806396,374.584137z"/>
	<path d="M246.1945343,217.5092316c0,13.6980743,34.4991913,24.7975311,75.5861053,24.7975311
		c41.0939941,0,74.399353-11.10289,74.399353-24.7975311c0-13.6945343-33.3086853-24.8008575-74.399353-24.8008575
		C280.6937256,192.708374,246.1945343,203.8146973,246.1945343,217.5092316z"/>
	<path d="M335.7445068,176.9609528L232.653595,73.8971176l-68.2990723,68.2341232v-27.3141251h-40.9199905v68.1965714
		l-54.6145325,54.5634308h54.6145325v122.7600098l109.1200027-0.2114868V203.8692322
		c0-13.6979675,40.9199829-28.2041016,77.8434753-28.2041016
		C321.9342346,175.6651306,325.9544678,175.9856567,335.7445068,176.9609528z"/>
</g>
</svg>
