<?xml version="1.0" encoding="utf-8"?>
<!-- Generator: Adobe Illustrator 19.1.0, SVG Export Plug-In . SVG Version: 6.00 Build 0)  -->
<!DOCTYPE svg PUBLIC "-//W3C//DTD SVG 1.1//EN" "http://www.w3.org/Graphics/SVG/1.1/DTD/svg11.dtd">
<svg version="1.1" id="ic" xmlns="http://www.w3.org/2000/svg" xmlns:xlink="http://www.w3.org/1999/xlink" x="0px" y="0px"
	 width="465px" height="465px" viewBox="0 0 465 465" enable-background="new 0 0 465 465" xml:space="preserve">
<g>
	<path d="M367.5275574,195.9240875l17.1966553,16.9511108c0,0-149.0783539,156.4132843-153.9478607,161.2793427
		c-8.2010498,8.1942444-67.5315857,56.8378906-124.983345-0.5899048
		c-53.7620316-53.7348022-9.4149628-111.2137451,13.6297989-134.251709
		c6.0186996-6.0220337,155.7585907-157.5863342,155.7585907-157.5863342s6.9154053-7.9077911,21.9296875-7.9077911
		c16.3782654,0,22.6628418,7.9077911,22.6628418,7.9077911l42.8807983,42.8568802c0,0,8.7091064,6.7893066,8.7091064,20.4293213
		c0,14.1855927-8.7091064,21.6569061-8.7091064,21.6569061S197.7573853,335.8227539,194.6166992,338.9667664
		c-5.5173187,5.5139465-27.4880219,24.6065674-52.1047974,0c-26.6968155-26.6832581,0-52.1252747,0-52.1252747l81.250061-83.6472778
		l18.4617462,18.4549103l-83.3676758,85.747879c0,0-7.8736572,7.3792419,0,15.2563171
		c7.5327454,7.5190735,15.9792786-0.8251953,15.9792786-0.8251953l161.7022552-165.9578857
		c0,0,4.6546021-4.3068237,4.6546021-10.0253754c0-5.7254028-4.6546021-10.3186646-4.6546021-10.3186646l-27.5016785-27.4914322
		c0,0-3.8703918-4.879715-11.2359924-4.879715c-7.372467,0-11.3552551,4.879715-11.3552551,4.879715
		S138.7541199,259.984375,132.5444641,266.1905518c-6.2129974,6.2062073-47.4945145,47.4058228-6.5505829,88.3258362
		c44.1628723,44.1356201,87.2925873-0.0273132,93.8159027-6.5472107
		C232.3312836,335.4408264,367.5275574,195.9240875,367.5275574,195.9240875z"/>
</g>
</svg>
