<?xml version="1.0" encoding="utf-8"?>
<!-- Generator: Adobe Illustrator 19.1.0, SVG Export Plug-In . SVG Version: 6.00 Build 0)  -->
<!DOCTYPE svg PUBLIC "-//W3C//DTD SVG 1.0//EN" "http://www.w3.org/TR/2001/REC-SVG-20010904/DTD/svg10.dtd">
<svg version="1.0" id="Icons_3_" xmlns="http://www.w3.org/2000/svg" xmlns:xlink="http://www.w3.org/1999/xlink" x="0px" y="0px"
	 width="465px" height="465px" viewBox="0 0 465 465" style="enable-background:new 0 0 465 465;" xml:space="preserve">
<g id="Error">
</g>
<g id="View">
</g>
<g id="Video">
</g>
<g id="User_Personal">
</g>
<g id="Upload">
</g>
<g id="Travel">
</g>
<g id="Transfers">
</g>
<g id="Tools">
</g>
<g id="Clock">
</g>
<g id="Fast_Track">
</g>
<g id="Camera">
</g>
<g id="Tablet">
</g>
<g id="Switch">
</g>
<g id="Survey">
</g>
<g id="Minimize">
</g>
<g id="Stock_Up">
</g>
<g id="Stock_Down">
</g>
<g id="Sound">
</g>
<g id="Shopping_Cart">
</g>
<g id="Share">
</g>
<g id="Settings">
</g>
<g id="Secure_Key_Passcode">
</g>
<g id="Search">
</g>
<g id="Script">
</g>
<g id="Staff_Channels">
	<g id="Signature">
	</g>
	<g id="Shortcuts">
	</g>
	<g id="Microphone">
	</g>
	<g id="Dial">
	</g>
</g>
<g id="Social_Icons">
	<g id="Youtube">
	</g>
	<g id="Youtube_Solid">
	</g>
	<g id="Weibo">
	</g>
	<g id="Weibo_Solid">
	</g>
	<g id="Vimeo">
	</g>
	<g id="Vimeo_Solid">
	</g>
	<g id="Twitter">
	</g>
	<g id="Twitter_Solid">
	</g>
	<g id="LinkedIn">
	</g>
	<g id="LinkedIn_Solid">
	</g>
	<g id="GooglePlus">
	</g>
	<g id="GooglePlus_Solid">
	</g>
	<g id="Facebook">
	</g>
	<g id="Facebook_Solid">
	</g>
</g>
<g>
	<path d="M182.4428101,373.919281v-81.5020142h-0.0289307v-27.2799988h0.0289307v-20.7463837
		c0-3.7663116,3.0536804-6.8199921,6.8199921-6.8199921h152.3198395v-0.0516205h54.5054626L232.4626312,73.7847366
		l-68.145462,68.2208176v-27.2462845H123.397171v68.1966629l-54.5088043,54.5837402h54.4542694V373.919281H182.4428101z"/>
	<path d="M196.0893097,392.863678c0,4.6033936,3.7322388,8.3356018,8.335556,8.3356018h183.3822327
		c4.603302,0,8.3355408-3.7322083,8.3355408-8.3356018V259.494873c0-4.6034241-3.7322388-8.3356018-8.3355408-8.3356018H204.4248657
		c-4.6033173,0-8.335556,3.7321777-8.335556,8.3356018V392.863678z M212.7604218,271.9980774
		c0-2.3006897,1.867157-4.1676025,4.1677856-4.1676025h158.3755341c2.3005981,0,4.1677856,1.8669128,4.1677856,4.1676025v12.8536682
		H212.7604065L212.7604218,271.9980774z M375.3037415,384.5280762H216.9281921
		c-2.3006134,0-4.1677856-1.8669434-4.1677856-4.1676025v-62.1667175h166.7111206v62.1667175
		C379.4715271,382.6611328,377.6043701,384.5280762,375.3037415,384.5280762z"/>
</g>
</svg>
