<?xml version="1.0" encoding="utf-8"?>
<!-- Generator: Adobe Illustrator 19.1.0, SVG Export Plug-In . SVG Version: 6.00 Build 0)  -->
<!DOCTYPE svg PUBLIC "-//W3C//DTD SVG 1.1//EN" "http://www.w3.org/Graphics/SVG/1.1/DTD/svg11.dtd">
<svg version="1.1" id="ic" xmlns="http://www.w3.org/2000/svg" xmlns:xlink="http://www.w3.org/1999/xlink" x="0px" y="0px"
	 width="465px" height="465px" viewBox="0 0 465 465" enable-background="new 0 0 465 465" xml:space="preserve">
<g>
	<rect x="150.6737366" y="73.8199997" width="27.3072643" height="54.5941086"/>
	<rect x="287.0737305" y="73.8199997" width="27.3072643" height="54.5941086"/>
	<path d="M396.1799927,401.1799927H68.8199997V101.1034088h68.2000046v40.9165955h54.5599976v-40.9165955h81.8570709
		l0.0068665,40.9438629h54.5360718l0.0545044-40.9268265h68.1454773V401.1799927z M157.6369324,312.7143555h-54.5090103v54.5088501
		h54.5090103V312.7143555z M225.8812561,312.7143555h-54.7237854v54.5088501h54.7237854V312.7143555z M294.0369263,312.7143555
		h-54.5090027v54.5088501h54.5090027V312.7143555z M362.28125,312.7143555h-54.7237854v54.5088501H362.28125V312.7143555z
		 M157.6369324,244.5143738h-54.5090103v54.5088501h54.5090103V244.5143738z M225.8812561,244.5143738h-54.7237854v54.5088501
		h54.7237854V244.5143738z M294.0369263,244.5143738h-54.5090027v54.5088501h54.5090027V244.5143738z M362.28125,244.5143738
		h-54.7237854v54.5088501H362.28125V244.5143738z M157.6369324,176.3143616h-54.5090103v54.5088654h54.5090103V176.3143616z
		 M225.8812561,176.3143616h-54.7237854v54.5088654h54.7237854V176.3143616z M294.0369263,176.3143616h-54.5090027v54.5088654
		h54.5090027V176.3143616z M362.28125,176.3143616h-54.7237854v54.5088654H362.28125V176.3143616z"/>
</g>
</svg>
