<?xml version="1.0" encoding="utf-8"?>
<!-- Generator: Adobe Illustrator 19.1.0, SVG Export Plug-In . SVG Version: 6.00 Build 0)  -->
<!DOCTYPE svg PUBLIC "-//W3C//DTD SVG 1.1//EN" "http://www.w3.org/Graphics/SVG/1.1/DTD/svg11.dtd">
<svg version="1.1" id="ic" xmlns="http://www.w3.org/2000/svg" xmlns:xlink="http://www.w3.org/1999/xlink" x="0px" y="0px"
	 width="465px" height="465px" viewBox="0 0 465 465" enable-background="new 0 0 465 465" xml:space="preserve">
<g>
	<path d="M232.4885406,73.8351059c-90.3991241,0-163.6799927,73.2809677-163.6799927,163.6799927
		c0,90.3991394,73.2808762,163.6799927,163.6799927,163.6799927c90.3990326,0,163.6799469-73.2808533,163.6799469-163.6799927
		C396.1684875,147.1160736,322.8875732,73.8351059,232.4885406,73.8351059z M249.5385437,322.7651062h-34.113739v-30.6900024
		h34.113739V322.7651062z M261.262085,241.7332764c-9.6912537,7.5020447-12.6750031,11.253067-12.6750031,23.2562256v13.4456177
		h-30.3182831v-18.4447021c0-12.7533569,2.4859009-16.5043793,18.8811188-31.7538452
		c15.9111176-15.0040894,22.3730316-23.007309,22.3730316-35.2593842c0-17.2546997-15.6586456-24.7566376-35.0444946-24.7566376
		c-8.9444885,0-17.3910217,1.500412-26.0865784,4.0032806v-26.0045929
		c11.4303894-1.9982452,23.1095886-3.4986572,34.7854767-3.4986572c31.3173981,0,64.8615875,10.0014801,64.8615875,46.5055847
		C298.0389404,211.2274628,283.8703918,223.980835,261.262085,241.7332764z"/>
</g>
</svg>
