<?xml version="1.0" encoding="utf-8"?>
<!-- Generator: Adobe Illustrator 19.1.0, SVG Export Plug-In . SVG Version: 6.00 Build 0)  -->
<!DOCTYPE svg PUBLIC "-//W3C//DTD SVG 1.1//EN" "http://www.w3.org/Graphics/SVG/1.1/DTD/svg11.dtd">
<svg version="1.1" id="ic" xmlns="http://www.w3.org/2000/svg" xmlns:xlink="http://www.w3.org/1999/xlink" x="0px" y="0px"
	 width="465px" height="465px" viewBox="0 0 465 465" enable-background="new 0 0 465 465" xml:space="preserve">
<g>
	<rect x="212.0550995" y="138.6215057" width="40.9199982" height="31.0309162"/>
	<polygon points="252.9751129,196.591507 198.4151001,196.591507 198.4151001,223.8715057 212.0550995,223.8715057 
		212.0550995,302.3015137 198.4151001,302.3015137 198.4151001,332.9915161 266.6151123,332.9915161 266.6151123,302.3015137 
		252.9751129,302.3015137 	"/>
	<path d="M232.5151062,73.8315048c-90.3650055,0-163.6799927,73.3149948-163.6799927,163.6799927
		s73.3149948,163.6799927,163.6799927,163.6799927s163.6799927-73.3150024,163.6799927-163.6799927
		S322.8800964,73.8315048,232.5151062,73.8315048z M232.5151062,373.911499
		c-75.3610229,0-136.3999939-61.0390625-136.3999939-136.3999939c0-75.3610229,61.0389786-136.3999939,136.3999939-136.3999939
		s136.3999939,61.0389786,136.3999939,136.3999939C368.9151001,312.8724365,307.8761292,373.911499,232.5151062,373.911499z"/>
</g>
</svg>
