<?xml version="1.0" encoding="utf-8"?>
<!-- Generator: Adobe Illustrator 19.1.0, SVG Export Plug-In . SVG Version: 6.00 Build 0)  -->
<!DOCTYPE svg PUBLIC "-//W3C//DTD SVG 1.1//EN" "http://www.w3.org/Graphics/SVG/1.1/DTD/svg11.dtd">
<svg version="1.1" id="ic" xmlns="http://www.w3.org/2000/svg" xmlns:xlink="http://www.w3.org/1999/xlink" x="0px" y="0px"
	 width="465px" height="465px" viewBox="0 0 465 465" enable-background="new 0 0 465 465" xml:space="preserve">
<g>
	<polygon points="280.9218445,169.9819946 232.5,218.0630035 184.4190826,169.9819946 164.9818268,189.4190063 213.4040833,237.5 
		164.9818268,285.5810242 184.4190826,305.0180054 232.5,256.9369812 280.9218445,305.0180054 300.018158,285.5810242 
		251.9368286,237.5 300.018158,189.4190063 	"/>
	<path d="M232.5,73.8199997c-90.3650055,0-163.6799927,73.3149948-163.6799927,163.6799927
		S142.1349945,401.1799927,232.5,401.1799927S396.1799927,327.8649902,396.1799927,237.5S322.8649902,73.8199997,232.5,73.8199997z
		 M232.5,373.8999939c-75.3609161,0-136.3999939-61.0389709-136.3999939-136.3999939S157.1390839,101.0999985,232.5,101.0999985
		S368.8999939,162.1390076,368.8999939,237.5S307.8609314,373.8999939,232.5,373.8999939z"/>
</g>
</svg>
