<?xml version="1.0" encoding="utf-8"?>
<!-- Generator: Adobe Illustrator 19.1.0, SVG Export Plug-In . SVG Version: 6.00 Build 0)  -->
<!DOCTYPE svg PUBLIC "-//W3C//DTD SVG 1.1//EN" "http://www.w3.org/Graphics/SVG/1.1/DTD/svg11.dtd">
<svg version="1.1" id="ic" xmlns="http://www.w3.org/2000/svg" xmlns:xlink="http://www.w3.org/1999/xlink" x="0px" y="0px"
	 width="465px" height="465px" viewBox="0 0 465 465" enable-background="new 0 0 465 465" xml:space="preserve">
<g>
	<path d="M232.5,73.8199997c-90.3991394,0-163.6799927,73.2809219-163.6799927,163.6799927
		S142.1008606,401.1799927,232.5,401.1799927S396.1799927,327.8991394,396.1799927,237.5S322.8991394,73.8199997,232.5,73.8199997z
		 M212.0980682,298.8800049c0,0-0.9072418-0.8866272-2.0835876-2.0664673l-0.0715942-0.0716553l-17.4079895-17.4250488
		l-39.7403107-40.2209473c-1.190094-1.193512-2.1345825-2.1926422-2.1345825-2.1926422l19.6928253-19.5529175
		c1.1934204-1.1935272,2.1379089-2.0903625,2.1379089-2.0903625l39.682251,39.6241913l81.0351715-80.8135529l21.892334,21.8887787
		L212.0980682,298.8800049z"/>
</g>
</svg>
