<?xml version="1.0" encoding="utf-8"?>
<!-- Generator: Adobe Illustrator 19.1.0, SVG Export Plug-In . SVG Version: 6.00 Build 0)  -->
<!DOCTYPE svg PUBLIC "-//W3C//DTD SVG 1.1//EN" "http://www.w3.org/Graphics/SVG/1.1/DTD/svg11.dtd">
<svg version="1.1" id="ic" xmlns="http://www.w3.org/2000/svg" xmlns:xlink="http://www.w3.org/1999/xlink" x="0px" y="0px"
	 width="465px" height="465px" viewBox="0 0 465 465" enable-background="new 0 0 465 465" xml:space="preserve">
<g>
	<rect x="215.9819489" y="290.355011" width="33.036068" height="29.7317696"/>
	<path d="M233.1581268,145.6652832c-11.229126,0-22.4650879,1.3196564-33.6942139,3.3042755v25.1044159
		c8.589798-2.3120117,16.5180359-3.9658051,25.4351807-3.9658051c18.8266296,0,34.0250092,7.2667542,34.0250092,24.1154938
		c0,11.8906555-6.277832,19.4881287-21.8035736,34.0283966c-15.8564758,14.8642273-18.168457,18.4993134-18.168457,30.7206879
		v18.1684875h29.4044342v-12.8829041c0-11.5634003,2.9701233-15.1916199,12.2214355-22.4617004
		c21.8035278-17.1795654,35.678833-29.4010468,35.678833-50.8738098
		C295.9259949,155.2439423,263.5480652,145.6652832,233.1581268,145.6652832z"/>
	<path d="M232.5,73.8199997c-90.365448,0-163.6799927,73.3145828-163.6799927,163.6799927S142.134552,401.1799927,232.5,401.1799927
		S396.1799927,327.8654175,396.1799927,237.5S322.8654175,73.8199997,232.5,73.8199997z M232.5,373.8999939
		c-75.3596954,0-136.3999939-61.0403137-136.3999939-136.3999939S157.1403046,101.0999985,232.5,101.0999985
		S368.8999939,162.1403351,368.8999939,237.5S307.8596802,373.8999939,232.5,373.8999939z"/>
</g>
</svg>
