<?xml version="1.0" encoding="utf-8"?>
<!-- Generator: Adobe Illustrator 19.1.0, SVG Export Plug-In . SVG Version: 6.00 Build 0)  -->
<!DOCTYPE svg PUBLIC "-//W3C//DTD SVG 1.1//EN" "http://www.w3.org/Graphics/SVG/1.1/DTD/svg11.dtd">
<svg version="1.1" id="ic" xmlns="http://www.w3.org/2000/svg" xmlns:xlink="http://www.w3.org/1999/xlink" x="0px" y="0px"
	 width="465px" height="465px" viewBox="0 0 465 465" enable-background="new 0 0 465 465" xml:space="preserve">
<g>
	<path d="M311.0015869,273.0090942c-7.0655823-9.4218445-15.4744568-17.1557465-25.2269897-23.2119141
		c-9.7529602-6.0561523-20.184021-9.0808105-30.6117554-9.0808105h-58.191452
		c-11.1303558,0-21.6230164,3.1814728-31.6619568,9.4422302L232.5,317.1855774l-66.3243408,0.1842041v45.4483948h168.0311584
		v-24.5553894c0-10.7619629-2.0188599-22.1991272-6.3904114-33.6362915
		C323.4448547,293.1894531,317.7262878,282.4274902,311.0015869,273.0090942z"/>
	<path d="M223.5420837,225.5794067c16.4838867,0,30.2737427-5.7185822,42.045166-17.4899902
		c11.4371338-11.4370575,17.4933167-25.5646973,17.4933167-41.7076721c0-16.4805603-5.7185974-30.6115265-17.4933167-42.0452499
		c-11.4371643-11.4371567-25.5612793-17.1557312-42.045166-17.1557312c-16.480545,0-30.270813,5.7185745-41.7079773,17.1557312
		c-11.437149,11.4371567-17.1519775,25.5646896-17.1519775,42.0452499c0,16.1429749,5.7181549,30.2740479,17.489563,41.7076721
		C193.2712708,219.8608246,207.3991241,225.5794067,223.5420837,225.5794067z"/>
	<path d="M389.7895813,271.5393677c-4.3715515-11.4371643-10.0934753-22.1991272-16.8214722-31.61409
		c-7.0622559-9.4218292-15.4711304-17.1557312-25.2236938-23.2118988
		c-9.7562866-6.0527344-20.1839905-9.0808105-30.6117249-9.0808105H285.549408
		c-2.4688416,3.4610901-5.2548828,6.7756653-8.3922424,9.9128113c-4.6304626,4.6307831-9.5240173,8.4841003-14.6935425,11.5940857
		h1.2208862c11.1266174,0,22.2536621,3.2292328,32.6643372,9.6911469
		c10.4106445,6.4620209,19.3860474,14.7141571,26.9219971,24.7702789
		c7.1779785,10.0492249,13.2853699,21.5341492,17.9503784,33.7419128
		c4.1942444,10.9734192,6.3425598,21.9433289,6.7380066,32.3916626h48.2207642v-24.5553894
		C396.1799927,294.4135742,394.1611328,282.97995,389.7895813,271.5393677z"/>
	<path d="M298.5108948,166.6306763c0,8.9546814-1.5447388,17.3978882-4.5184937,25.2579041
		c12.7978821-1.6743011,23.8804016-7.1951447,33.5680237-16.8828735
		c11.4371338-11.437149,17.4933167-25.5647888,17.4933167-41.7111969c0-16.4804535-5.7185974-30.6081009-17.4933167-42.0452576
		c-11.4371643-11.4371567-25.5612793-17.1557312-42.045166-17.1557312c-16.4805603,0-30.2741547,5.7185745-41.7075653,17.1557312
		c-1.4086151,1.4083099-2.7248383,2.8575211-3.9590454,4.3442917c14.2094421,2.5541763,26.710556,9.1047516,37.3122711,19.7063675
		C291.5306396,129.2639618,298.5108948,146.508255,298.5108948,166.6306763z"/>
	<polygon points="134.3088989,238.7862854 68.8199997,304.3026428 115.772438,304.3026428 115.772438,400.6794739 
		152.8491058,400.6794739 152.8491058,304.3026428 199.7640839,304.3026428 	"/>
</g>
</svg>
