<?xml version="1.0" encoding="utf-8"?>
<!-- Generator: Adobe Illustrator 19.1.0, SVG Export Plug-In . SVG Version: 6.00 Build 0)  -->
<!DOCTYPE svg PUBLIC "-//W3C//DTD SVG 1.1//EN" "http://www.w3.org/Graphics/SVG/1.1/DTD/svg11.dtd">
<svg version="1.1" id="ic" xmlns="http://www.w3.org/2000/svg" xmlns:xlink="http://www.w3.org/1999/xlink" x="0px" y="0px"
	 width="465px" height="465px" viewBox="0 0 465 465" enable-background="new 0 0 465 465" xml:space="preserve">
<g>
	<path d="M311.0015869,272.7321167c-7.0655823-9.418396-15.4777832-17.1522827-25.2269897-23.2118835
		c-9.7492371-6.0527191-20.184021-9.0808105-30.6117554-9.0808105h-58.1916504
		c-10.8063202,0-21.0192413,2.9803162-30.7957306,8.8796539v73.2706757L232.5,322.7807007l-39.8560333,39.7639465h141.5662079
		v-24.5553894c0-10.7619629-2.0222168-22.1991272-6.3904419-33.632843
		C323.4448547,292.9159241,317.7262878,282.1573792,311.0015869,272.7321167z"/>
	<path d="M223.5418854,225.3058777c16.4838867,0,30.273941-5.7185822,42.0453644-17.4899902
		c11.4371338-11.4370422,17.4933167-25.5646973,17.4933167-41.7076569c0-16.4805603-5.7185974-30.6115417-17.4933167-42.0486984
		c-11.4371643-11.437149-25.5612793-17.1557236-42.0453644-17.1557236c-16.4805603,0-30.2704163,5.7185745-41.7075653,17.1557236
		s-17.1524048,25.5648117-17.1524048,42.0486984c0,16.1429596,5.7185822,30.2706146,17.4899902,41.7076569
		C193.2712708,219.5872955,207.3989105,225.3058777,223.5418854,225.3058777z"/>
	<path d="M389.7895813,271.2658386c-4.3715515-11.4371338-10.0934753-22.1991272-16.8214722-31.6175232
		c-7.0622559-9.418396-15.4711304-17.152298-25.2236938-23.2084656c-9.752533-6.0527191-20.1839905-9.0808105-30.6150513-9.0808105
		h-31.583313c-2.468811,3.4611053-5.2548523,6.7722473-8.3922119,9.9128113
		c-4.6271362,4.6307983-9.5240173,8.4841156-14.6935425,11.5906525h1.2171326
		c11.1303711,0,22.2540894,3.229248,32.6680908,9.6945953c10.4106445,6.4620056,19.3856201,14.7141571,26.9219971,24.7702637
		c7.1779785,10.0492249,13.2853394,21.5307312,17.9499512,33.7419128
		c4.1946716,10.9768677,6.3425598,21.9400024,6.7417603,32.3916626h48.2207642V304.908905
		C396.1799927,294.1367188,394.1611328,282.7064209,389.7895813,271.2658386z"/>
	<path d="M298.5075684,166.3571472c0,8.9546814-1.5447388,17.3978882-4.5151672,25.2579193
		c12.7978821-1.6743011,23.8804016-7.1951599,33.5680237-16.8828735
		c11.4371338-11.437149,17.4933167-25.5648041,17.4933167-41.7112122c0-16.4804459-5.7185974-30.6115341-17.4933167-42.0452499
		c-11.4371643-11.4371567-25.5612793-17.1557312-42.045166-17.1557312c-16.4805603,0-30.2741547,5.7185745-41.7042389,17.1557312
		c-1.4117432,1.4083099-2.7246246,2.8575211-3.9623718,4.3442917c14.2127686,2.5541687,26.7138824,9.1047516,37.3155975,19.7063675
		C291.5306396,128.9870148,298.5075684,146.2347412,298.5075684,166.3571472z"/>
	<polygon points="152.8491058,335.6636353 152.8491058,239.2834625 115.7722321,239.2834625 115.7722321,335.6636353 
		68.8199997,335.6636353 134.3091125,401.1799927 199.7640839,335.6636353 	"/>
</g>
</svg>
