<?xml version="1.0" encoding="utf-8"?>
<!-- Generator: Adobe Illustrator 19.1.0, SVG Export Plug-In . SVG Version: 6.00 Build 0)  -->
<!DOCTYPE svg PUBLIC "-//W3C//DTD SVG 1.1//EN" "http://www.w3.org/Graphics/SVG/1.1/DTD/svg11.dtd">
<svg version="1.1" id="ic" xmlns="http://www.w3.org/2000/svg" xmlns:xlink="http://www.w3.org/1999/xlink" x="0px" y="0px"
	 width="465px" height="465px" viewBox="0 0 465 465" enable-background="new 0 0 465 465" xml:space="preserve">
<g>
	<polygon points="89.4106369,210.1585999 205.2145233,210.1551666 205.2145233,94.3822937 166.6334839,132.9255524 
		108.2817688,74.5667725 69.1587601,113.6794739 127.5175476,172.0417023 	"/>
	<polygon points="375.5950623,210.1585999 259.7745056,210.1551666 259.7745056,94.3822937 298.368866,132.9255524 
		356.7205811,74.5667725 395.840271,113.6794739 337.4848022,172.0417023 	"/>
	<polygon points="89.4106369,264.7118225 205.2278442,264.7118225 205.1903687,380.6211243 166.6334839,342.071106 
		108.2817688,400.4332275 69.1587601,361.3205261 127.5175476,302.9549866 	"/>
	<polygon points="375.5950623,264.7118225 259.7745056,264.7118225 259.7745056,380.6211243 298.368866,342.071106 
		356.7205811,400.4332275 395.840271,361.3205261 337.4848022,302.9549866 	"/>
</g>
</svg>
