<?xml version="1.0" encoding="utf-8"?>
<!-- Generator: Adobe Illustrator 19.1.0, SVG Export Plug-In . SVG Version: 6.00 Build 0)  -->
<!DOCTYPE svg PUBLIC "-//W3C//DTD SVG 1.1//EN" "http://www.w3.org/Graphics/SVG/1.1/DTD/svg11.dtd">
<svg version="1.1" id="ic" xmlns="http://www.w3.org/2000/svg" xmlns:xlink="http://www.w3.org/1999/xlink" x="0px" y="0px"
	 width="465px" height="465px" viewBox="0 0 465 465" enable-background="new 0 0 465 465" xml:space="preserve">
<g>
	<path d="M218.9115295,305.690918v95.524353H82.4842606v-95.4970703h19.1403275c0,0,0-3.6452026,0-33.0905762v-0.3138733
		c0-27.8800201,21.9604034-50.4644012,49.0664825-50.4644012c27.1061096,0,48.9130249,22.5843811,48.9130249,50.4644012
		c0,0,0,0,0,0.3138733v33.0531006L218.9115295,305.690918z M176.8594055,269.3574829v-0.1569214
		c0-14.7992859-11.6826477-26.9424133-26.168335-26.9424133c-14.3287964,0-26.011467,11.9963989-26.011467,26.9424133v0.1569214
		v36.3607178h52.1798019V269.3574829z M139.2812195,379.6607056h22.6492004c1.3264923,0,2.2233276-1.3470154,1.7220459-2.571228
		l-9.5309448-23.1265564c5.9129486-1.71521,10.1242981-6.8574829,10.1242981-13.0841064
		c0-8.6340637-7.9794159-15.276947-16.7089996-13.3877258c-5.3230286,1.1594849-9.5411987,5.5549622-10.4891815,10.9222412
		c-1.2787476,7.2531128,3.2224731,13.7867126,9.9094849,15.5495911l-9.3945618,23.1402893
		C137.0612946,378.3307495,137.9615326,379.6607056,139.2812195,379.6607056z"/>
	<path d="M232.4867401,401.1607361h150.0399933V155.6407318l-81.8399963-81.840004H137.0067444v136.345459
		c0,0,6.1618652-1.9368439,13.6843262-1.9368439c7.5224762,0,13.6229401,1.9335175,13.6229401,1.9335175v-109.034874h122.7463531
		v68.2101974h68.2136536v204.5864716H232.4867401V401.1607361z"/>
</g>
</svg>
