<?xml version="1.0" encoding="utf-8"?>
<!-- Generator: Adobe Illustrator 19.1.0, SVG Export Plug-In . SVG Version: 6.00 Build 0)  -->
<!DOCTYPE svg PUBLIC "-//W3C//DTD SVG 1.1//EN" "http://www.w3.org/Graphics/SVG/1.1/DTD/svg11.dtd">
<svg version="1.1" id="ic" xmlns="http://www.w3.org/2000/svg" xmlns:xlink="http://www.w3.org/1999/xlink" x="0px" y="0px"
	 width="465px" height="465px" viewBox="0 0 465 465" enable-background="new 0 0 465 465" xml:space="preserve">
<g>
	<path d="M232.5034332,73.8199997c-90.4127655,0-163.6834412,73.5264664-163.6834412,163.6766663
		c0,90.1568604,73.270668,163.6833191,163.6834412,163.6833191c90.1501007,0,163.6765594-73.5264587,163.6765594-163.6833191
		C396.1799927,147.3464661,322.6535339,73.8199997,232.5034332,73.8199997z M173.5752106,258.9386292
		c-3.3724365,3.4543152-11.4542236,5.568512-15.38591,1.4868774c-3.6043854-3.7475891-3.7646484-9.2855072-2.052887-11.437149
		c1.1321259-1.4152832,4.7604523-4.3547058,4.7604523-10.7107849c0-4.286438-2.9633484-9.5718994-4.207962-10.8847809
		c-3.1133118-3.6726532-1.3572235-7.849823,2.3801727-11.3655548c4.1396942-3.9009705,12.0645599-1.9197845,15.3347931,1.7562103
		c3.5838928,4.1942291,6.4380798,10.441452,6.4380798,19.1096497
		C180.8419495,248.4120483,177.2750244,254.9762573,173.5752106,258.9386292z M210.4202271,278.839386
		c-3.9623718,5.0741882-11.2018585,6.3017578-16.3304901,2.236969c-5.1251984-4.0647583-6.1311951-11.4916687-2.349472-16.7567444
		c1.5106049-1.8789978,9.445755-12.5897675,9.4763641-27.7880402c0.04776-16.1463013-7.2189941-25.9398499-8.6749725-27.8665161
		c-3.6248932-5.3707886-2.4040985-12.9512939,2.8336945-16.674942c5.2445679-3.9147186,12.4499207-2.8609467,16.2623291,2.5098419
		c4.1738434,6.1412811,13.22052,21.0908356,12.9136353,42.3656616
		C224.2375488,258.522583,214.7679596,273.0150757,210.4202271,278.839386z M234.5255127,303.6028748
		c-5.6912994-3.5019836-7.0654755-10.7415771-3.6520538-16.3918762
		c8.9171295-14.6937561,14.1616821-31.5254364,14.4276733-50.1372528
		c0.2659912-18.4242706-4.4841614-35.5935364-12.9818878-50.3451538c-3.2496338-5.7493896-1.660675-13.1352844,4.1261749-16.4703674
		c5.2343597-3.3417206,12.6203613-1.5276642,15.8701019,4.2148438
		c10.6630249,18.3968048,16.8351135,39.954895,16.5043945,62.9382629
		c-0.3341675,22.9833832-7.1234436,44.3539276-18.3116913,62.4302216
		C247.0948029,305.4920654,239.845108,307.0982056,234.5255127,303.6028748z M290.2312622,322.7398071
		c-3.232666,5.6538391-10.4789124,7.4508362-15.9860229,3.9488525c-5.5105591-3.3111572-7.2531128-10.7449341-3.8396912-16.3954468
		c12.5351562-21.2852173,19.928009-46.0724487,20.3099365-72.6635437
		c0.3819275-26.594635-6.2914429-51.5762482-18.2059631-73.2196808c-3.2497253-5.749176-1.2958069-13.128418,4.3102722-16.2757568
		c5.6094055-3.3384094,12.797699-1.3368225,15.8666992,4.4090271
		c13.8957825,25.2784119,21.8104248,54.4611359,21.3671265,85.4204559
		C313.6034241,268.9334412,304.8465576,298.0616455,290.2312622,322.7398071z"/>
</g>
</svg>
