<?xml version="1.0" encoding="utf-8"?>
<!-- Generator: Adobe Illustrator 19.1.0, SVG Export Plug-In . SVG Version: 6.00 Build 0)  -->
<!DOCTYPE svg PUBLIC "-//W3C//DTD SVG 1.0//EN" "http://www.w3.org/TR/2001/REC-SVG-20010904/DTD/svg10.dtd">
<svg version="1.0" id="Icons_3_" xmlns="http://www.w3.org/2000/svg" xmlns:xlink="http://www.w3.org/1999/xlink" x="0px" y="0px"
	 width="465px" height="465px" viewBox="0 0 465 465" style="enable-background:new 0 0 465 465;" xml:space="preserve">
<g id="Error">
</g>
<g id="View">
</g>
<g id="Video">
</g>
<g id="User_Personal">
</g>
<g id="Upload">
</g>
<g id="Travel">
</g>
<g id="Transfers">
</g>
<g id="Tools">
</g>
<g id="Clock">
</g>
<g id="Fast_Track">
</g>
<g id="Camera">
</g>
<g id="Tablet">
</g>
<g id="Switch">
</g>
<g id="Survey">
</g>
<g id="Minimize">
</g>
<g id="Stock_Up">
</g>
<g id="Stock_Down">
</g>
<g id="Sound">
</g>
<g id="Shopping_Cart">
</g>
<g id="Share">
</g>
<g id="Settings">
</g>
<g id="Secure_Key_Passcode">
</g>
<g id="Search">
</g>
<g id="Script">
</g>
<g id="Staff_Channels">
	<g id="Signature">
	</g>
	<g id="Shortcuts">
	</g>
	<g id="Microphone">
	</g>
	<g id="Dial">
	</g>
</g>
<g id="Social_Icons">
	<g id="Youtube">
	</g>
	<g id="Youtube_Solid">
	</g>
	<g id="Weibo">
	</g>
	<g id="Weibo_Solid">
	</g>
	<g id="Vimeo">
	</g>
	<g id="Vimeo_Solid">
	</g>
	<g id="Twitter">
	</g>
	<g id="Twitter_Solid">
	</g>
	<g id="LinkedIn">
	</g>
	<g id="LinkedIn_Solid">
	</g>
	<g id="GooglePlus">
	</g>
	<g id="GooglePlus_Solid">
	</g>
	<g id="Facebook">
	</g>
	<g id="Facebook_Solid">
	</g>
</g>
<g>
	<path d="M232.5,73.8199997c-90.3650055,0-163.6799927,73.3149948-163.6799927,163.6799927
		S142.1349945,401.1799927,232.5,401.1799927S396.1799927,327.8649902,396.1799927,237.5S322.8649902,73.8199997,232.5,73.8199997z
		 M232.5,373.8999939c-75.3609161,0-136.3999939-61.0390625-136.3999939-136.3999939
		c0-75.3613281,61.0390854-136.3999939,136.3999939-136.3999939S368.8999939,162.1386719,368.8999939,237.5
		C368.8999939,312.8609314,307.8609314,373.8999939,232.5,373.8999939z"/>
	<path d="M159.0690765,216.0272369c-3.7373962,3.5157318-5.4935913,7.6929016-2.3801727,11.3655548
		c1.2446136,1.3124695,4.207962,6.5981445,4.207962,10.8847809c0,6.3562927-3.6283264,9.2955017-4.7603455,10.7103577
		c-1.7118683,2.1520691-1.5516052,7.6899872,2.0527802,11.437149c3.9317932,4.0818481,12.0134735,1.9680786,15.3860016-1.4864502
		c3.6997223-3.9623718,7.2666473-10.5267944,7.2666473-22.0455322c0-8.6681976-2.8542938-14.9154205-6.4380798-19.1096497
		C171.1337433,214.1074524,163.2087708,212.1260529,159.0690765,216.0272369z"/>
	<path d="M195.3752441,191.9903259c-5.2375793,3.7234344-6.4584808,11.3039398-2.8336792,16.67453
		c1.4560699,1.9268646,8.7229309,11.7202148,8.6750641,27.8669281c-0.0306091,15.1980591-7.9657593,25.9088287-9.4763641,27.7878265
		c-3.781723,5.2648621-2.7756195,12.6917725,2.3495789,16.756958c5.1285248,4.0643616,12.3679047,2.8368225,16.3304901-2.236969
		c4.3476257-5.8243103,13.8173218-20.316803,14.1309814-41.9739838
		c0.3069916-21.2750397-8.7397919-36.2245789-12.9136353-42.3660889
		C207.8251648,189.128952,200.6199188,188.0753937,195.3752441,191.9903259z"/>
	<path d="M276.8197937,148.1340179c-5.605957,3.1477661-7.559906,10.5267944-4.3101501,16.2757568
		c11.9143982,21.6434326,18.5878601,46.6252594,18.2059631,73.2196808
		c-0.3819275,26.591095-7.7749023,51.37854-20.3099365,72.6635437c-3.4135437,5.6503296-1.6710815,13.0842896,3.8395691,16.3956604
		c5.5071106,3.5019836,12.7533569,1.7049866,15.9860229-3.9486389
		c14.6152954-24.6783752,23.3721619-53.8065796,23.8223572-84.7763062
		c0.4432983-30.9593201-7.4714661-60.1420441-21.3670349-85.4206696
		C289.6174927,146.7974091,282.4293213,144.7956238,276.8197937,148.1340179z"/>
	<path d="M252.3156281,174.4728546c-3.2497406-5.7422943-10.635849-7.5563507-15.8703156-4.2146301
		c-5.7866364,3.335083-7.3757019,10.7211914-4.1259766,16.4701538
		c8.4977417,14.7518311,13.2478943,31.9208832,12.9819031,50.3453674
		c-0.2659912,18.6118164-5.5106506,35.4436798-14.4277802,50.1372528
		c-3.4133301,5.6502991-2.0392456,12.8894653,3.6520538,16.3918762c5.3195953,3.4949341,12.5693817,1.8890076,15.9827118-3.761322
		c11.1882477-18.0764771,17.9774323-39.4468384,18.3116913-62.4302216
		C269.1506348,214.4279633,262.9785461,192.869873,252.3156281,174.4728546z"/>
</g>
</svg>
