<?xml version="1.0" encoding="utf-8"?>
<!-- Generator: Adobe Illustrator 19.1.0, SVG Export Plug-In . SVG Version: 6.00 Build 0)  -->
<!DOCTYPE svg PUBLIC "-//W3C//DTD SVG 1.1//EN" "http://www.w3.org/Graphics/SVG/1.1/DTD/svg11.dtd">
<svg version="1.1" id="ic" xmlns="http://www.w3.org/2000/svg" xmlns:xlink="http://www.w3.org/1999/xlink" x="0px" y="0px"
	 width="465px" height="465px" viewBox="0 0 465 465" enable-background="new 0 0 465 465" xml:space="preserve">
<g>
	<polygon points="68.8199997,169.3000031 137.0745239,169.3000031 137.0745239,196.5800018 96.1545334,196.5800018 
		96.1545334,373.8999939 287.1145325,373.8999939 287.1145325,319.3399963 314.3945312,319.3399963 314.3945312,401.1799927 
		68.8199997,401.1799927 	"/>
	<polygon points="205.6974487,292.6057129 368.9545288,292.6057129 368.9545288,101.0999985 164.3545227,101.0999985 
		164.3545227,251.1399994 137.0745239,278.8974609 137.0745239,73.8199997 396.1799927,73.8199997 396.1799927,319.3399963 
		177.9945374,319.3399963 	"/>
	<polygon points="178.5094452,210.9769745 246.1945343,210.9769745 246.1945343,278.6587219 221.959671,254.4203339 
		129.7704163,346.6199951 110.5514984,327.3910828 202.7478333,235.2084961 	"/>
	<rect x="191.6345367" y="128.3800049" width="150.0399933" height="14.1855087"/>
	<rect x="191.6345367" y="169.3000031" width="150.0399933" height="13.6400003"/>
	<rect x="272.9254761" y="210.2200012" width="68.7457199" height="13.6400003"/>
	<rect x="273.4745178" y="251.1399994" width="68.1999969" height="13.6400003"/>
</g>
</svg>
