<?xml version="1.0" encoding="utf-8"?>
<!-- Generator: Adobe Illustrator 19.1.0, SVG Export Plug-In . SVG Version: 6.00 Build 0)  -->
<!DOCTYPE svg PUBLIC "-//W3C//DTD SVG 1.1//EN" "http://www.w3.org/Graphics/SVG/1.1/DTD/svg11.dtd">
<svg version="1.1" id="ic" xmlns="http://www.w3.org/2000/svg" xmlns:xlink="http://www.w3.org/1999/xlink" x="0px" y="0px"
	 width="465px" height="465px" viewBox="0 0 465 465" enable-background="new 0 0 465 465" xml:space="preserve">
<g>
	<path d="M96.0999985,73.8199997v327.3599854h109.1200027V292.0599976h54.5599976v109.1199951h109.1199951V73.8199997H96.0999985z
		 M177.9400024,357.5865784h-54.5600052v-65.5265808h54.5600052V357.5865784z M177.9400024,264.7799988h-54.5600052v-68.1999969
		h54.5600052V264.7799988z M177.9400024,169.3000031h-54.5600052v-67.4736786h54.5600052V169.3000031z M259.7799988,264.7799988
		h-54.5599976v-68.1999969h54.5599976V264.7799988z M259.7799988,169.3000031h-54.5599976v-66.1369705h54.5599976V169.3000031z
		 M341.6199951,360.2600098h-54.5599976v-68.2000122h54.5599976V360.2600098z M341.6199951,264.7799988h-54.5599976v-68.1999969
		h54.5599976V264.7799988z M341.6199951,169.3000031h-54.5599976v-66.8121414h54.5599976V169.3000031z"/>
</g>
</svg>
