<?xml version="1.0" encoding="utf-8"?>
<!-- Generator: Adobe Illustrator 19.1.0, SVG Export Plug-In . SVG Version: 6.00 Build 0)  -->
<!DOCTYPE svg PUBLIC "-//W3C//DTD SVG 1.1//EN" "http://www.w3.org/Graphics/SVG/1.1/DTD/svg11.dtd">
<svg version="1.1" id="ic" xmlns="http://www.w3.org/2000/svg" xmlns:xlink="http://www.w3.org/1999/xlink" x="0px" y="0px"
	 width="465px" height="465px" viewBox="0 0 465 465" enable-background="new 0 0 465 465" xml:space="preserve">
<g>
	<path d="M246.1399994,227.5393219v-85.5193176h-27.2799988v85.5193176
		c-8.1464081,4.7195587-13.6399994,13.5105438-13.6399994,23.6006775c0,15.0688019,12.2147217,27.280014,27.2799988,27.280014
		c15.0688171,0,27.2799988-12.2112122,27.2799988-27.280014
		C259.7799988,241.0498657,254.2864075,232.2553406,246.1399994,227.5393219z"/>
	<path d="M232.5,73.8199997c-90.3650055,0-163.6799927,73.3149948-163.6799927,163.6799927
		S142.1349945,401.1799927,232.5,401.1799927S396.1799927,327.8649902,396.1799927,237.5S322.8649902,73.8199997,232.5,73.8199997z
		 M232.5,373.8999939c-70.7575226,0-128.8808899-53.806366-135.7179565-122.7599945h40.2379608v-27.2799988H96.7820435
		c3.1814728-32.0472107,17.4489822-60.820755,38.9080048-82.4469147l29.4318542,29.4316559l19.2903137-19.2903137
		l-27.5597229-27.5563965C178.5061188,109.5500717,204.50383,101.0999985,232.5,101.0999985
		c28.1325073,0,54.2598877,8.5112686,75.9713745,23.0924301l-27.4402771,27.4335938l19.2938538,19.2903137l29.2372437-29.2407837
		c21.3193665,21.5955505,35.4878235,50.2633667,38.6557617,82.1844482H327.980011v27.2799988h40.2414856
		C361.3808899,320.0936279,303.2575073,373.8999939,232.5,373.8999939z"/>
</g>
</svg>
