<?xml version="1.0" encoding="utf-8"?>
<!-- Generator: Adobe Illustrator 19.1.0, SVG Export Plug-In . SVG Version: 6.00 Build 0)  -->
<!DOCTYPE svg PUBLIC "-//W3C//DTD SVG 1.1//EN" "http://www.w3.org/Graphics/SVG/1.1/DTD/svg11.dtd">
<svg version="1.1" id="ic" xmlns="http://www.w3.org/2000/svg" xmlns:xlink="http://www.w3.org/1999/xlink" x="0px" y="0px"
	 width="465px" height="465px" viewBox="0 0 465 465" enable-background="new 0 0 465 465" xml:space="preserve">
<g>
	<path d="M390.0418396,100.9782791H74.6168365c-3.4100037,0-6.1377563,2.7279587-6.1377563,6.1379547V299.78125
		c0,3.4099731,2.7277527,6.1379395,6.1377563,6.1379395h120.3731689c0,0,5.7968292,30.0115051-1.7050018,39.5594482
		c-6.8200073,8.5250244-28.9850006,20.8011475-28.9850006,20.8011475v7.8429565h136.4000092v-7.8429565
		c0,0-22.5059204-11.9349976-29.3259277-20.8011475c-7.5022583-9.892395-1.3640747-39.9003601-1.3640747-39.9003601h120.3731689
		c3.4099731,0,6.1377258-2.7279663,6.1377258-6.13797V107.1162338
		C396.1799927,103.7062378,393.4518433,100.9782791,390.0418396,100.9782791z M368.8999939,278.2982788H96.0999985V128.2582855
		h272.7999878V278.2982788z"/>
</g>
</svg>
