<?xml version="1.0" encoding="utf-8"?>
<!-- Generator: Adobe Illustrator 19.1.0, SVG Export Plug-In . SVG Version: 6.00 Build 0)  -->
<!DOCTYPE svg PUBLIC "-//W3C//DTD SVG 1.1//EN" "http://www.w3.org/Graphics/SVG/1.1/DTD/svg11.dtd">
<svg version="1.1" id="ic" xmlns="http://www.w3.org/2000/svg" xmlns:xlink="http://www.w3.org/1999/xlink" x="0px" y="0px"
	 width="465px" height="465px" viewBox="0 0 465 465" enable-background="new 0 0 465 465" xml:space="preserve">
<g>
	<path d="M390.881012,114.7399979H115.0664597c-2.9088211,0-5.2956543,2.3664398-5.2956543,5.278595v22.0014114h258.6109314
		h0.5457153v5.5412445v8.0987549v118.3441162v4.4158936H191.6074677v27.2799988h24.8756866h0.8013
		c1.1184998,7.2734985,2.6087036,23.2493591-2.1957703,29.3498535
		c-5.9745789,7.6383667-23.3721466,18.2877197-23.3721466,18.2877197v6.9155579H307.387207v-6.9155579
		c0,0-17.4150391-10.649353-23.4100342-18.2877197c-4.8148804-6.1004944-3.3213196-22.0832214-2.175354-29.3498535h0.7808838
		H390.881012c2.9121399,0,5.2715149-2.3631287,5.2715149-5.2615356V120.0185928
		C396.1525269,117.1064377,393.7965088,114.7399979,390.881012,114.7399979"/>
	<path d="M178.0182495,171.5948334c0.1773376-7.12677-4.8997803-15.9348297-13.6907806-15.9348297H84.792305
		c-8.8213806,0-15.9448318,7.1405182-15.9448318,15.9348297V344.301239c0,8.8182373,7.1197052,15.9587708,15.9448318,15.9587708
		h79.5351639c8.7910004,0,13.6945343-7.1405334,13.6945343-15.9587708V171.5948334H178.0182495z M107.5812759,175.0868378
		v-4.1977692h29.1523361v4.1977692H107.5812759z M164.3782501,328.4652405H82.4908066V187.4343567h81.8945236
		L164.3782501,328.4652405z"/>
</g>
</svg>
