<?xml version="1.0" encoding="utf-8"?>
<!-- Generator: Adobe Illustrator 19.1.0, SVG Export Plug-In . SVG Version: 6.00 Build 0)  -->
<!DOCTYPE svg PUBLIC "-//W3C//DTD SVG 1.1//EN" "http://www.w3.org/Graphics/SVG/1.1/DTD/svg11.dtd">
<svg version="1.1" id="ic" xmlns="http://www.w3.org/2000/svg" xmlns:xlink="http://www.w3.org/1999/xlink" x="0px" y="0px"
	 width="465px" height="465px" viewBox="0 0 465 465" enable-background="new 0 0 465 465" xml:space="preserve">
<g>
	<path d="M371.4830322,257.7236938c-2.2507324,31.0752563-17.8413086,76.4521484-67.1601868,98.8798218h-15.2392883H168.4548187
		h-7.7715759c-49.6052551-22.4343262-64.9635773-67.8147583-67.170166-98.8900146
		c-0.310112-4.3511658-0.0099945-8.0544128-0.0099945-8.0544128h277.9932556
		C371.4963379,249.6557617,371.8035278,253.3590088,371.4830322,257.7236938z"/>
	<path d="M301.2437744,374.8743896H163.7523346v19.692627c0,3.6487122,0,6.608551,0,6.608551h137.4914398
		c0,0,0-2.9598389,0-6.608551V374.8743896z"/>
	<path d="M177.726593,223.3475189c0,0,2.1483154-2.3052521,3.5294647-4.1909027
		c14.6423492-19.9348907,26.7276154-48.5993805-3.1681519-79.6063538
		c-20.7222443-21.5002365-17.6123657-34.6865158-3.8599854-51.8661804c1.1289062-1.4117432,2.3360596-3.2667999,2.3360596-3.2667999
		l-16.7124176-10.5948563c0,0-2.8305664,2.2915115-4.2183838,4.1636429
		c-14.5536804,19.5937576-23.8595886,42.3964691,8.1603699,76.7214508
		c19.8356018,21.2683868,10.3319702,42.0453644,0.2214355,54.7818756c-4.0031586,5.0431976-2.3052368,4.7091522-2.3052368,4.7091522
		L177.726593,223.3475189z"/>
	<path d="M237.6163788,223.3475189c0,0,2.1483154-2.3052521,3.5294647-4.1909027
		c14.6423492-19.9348907,26.7276306-48.5993805-3.1677399-79.6063538
		c-20.7259827-21.5002365-17.6161041-34.6865158-3.8603821-51.8661804c1.1322174-1.4117432,2.3360443-3.2667999,2.3360443-3.2667999
		l-16.7124176-10.5948563c0,0-2.8305664,2.2915115-4.2183685,4.1636429
		c-14.5536957,19.5937576-23.8596039,42.3964691,8.1603546,76.7214508
		c19.8360291,21.2683868,10.3319855,42.0453644,0.2214508,54.7818756c-4.0031738,5.0431976-2.3052521,4.7091522-2.3052521,4.7091522
		L237.6163788,223.3475189z"/>
	<path d="M294.7167969,223.3475189c0,0,2.1483459-2.3052521,3.5328064-4.1909027
		c14.6390381-19.9348907,26.7276306-48.5993805-3.1677246-79.6063538
		c-20.7259827-21.5002365-17.6161194-34.6865158-3.863739-51.8661804c1.1289062-1.4117432,2.339386-3.2667999,2.339386-3.2667999
		l-16.7124023-10.5948563c0,0-2.8338928,2.2915115-4.2183838,4.1636429
		c-14.5570068,19.5937576-23.8562622,42.3964691,8.1603699,76.7214508
		c19.8393555,21.2683868,10.3357239,42.0453644,0.2251892,54.7818756c-4.0069275,5.0431976-2.3085938,4.7091522-2.3085938,4.7091522
		L294.7167969,223.3475189z"/>
</g>
</svg>
