<?xml version="1.0" encoding="utf-8"?>
<!-- Generator: Adobe Illustrator 19.1.0, SVG Export Plug-In . SVG Version: 6.00 Build 0)  -->
<!DOCTYPE svg PUBLIC "-//W3C//DTD SVG 1.1//EN" "http://www.w3.org/Graphics/SVG/1.1/DTD/svg11.dtd">
<svg version="1.1" id="ic" xmlns="http://www.w3.org/2000/svg" xmlns:xlink="http://www.w3.org/1999/xlink" x="0px" y="0px"
	 width="465px" height="465px" viewBox="0 0 465 465" enable-background="new 0 0 465 465" xml:space="preserve">
<g>
	<path d="M361.768219,81.5791168l-65.8691406,65.8691559c-18.3630981-7.7488861-39.4416504-12.7161102-63.3874207-12.7410889
		h-0.181488c-108.6504593,0-163.117218,110.8416443-163.117218,110.8416443s21.1291351,42.7921448,56.7247543,71.8608093
		l-56.6827164,56.6827087l12.6628342,12.6628418L374.4310608,94.2419434L361.768219,81.5791168z M200.7870483,173.6570282
		c4.092041-1.7050018,9.2070312,0.3409119,10.5709076,4.4329529c1.7050018,4.4329529-0.3409119,9.2070465-4.77388,10.9120483
		c-1.7049866,0.6818237-10.2299957,4.0918274-15.6861115,13.2988739c-5.7970428,9.8890839-5.1150055,18.4140778-4.77388,20.1190796
		c0.3409119,4.4329529-3.4100037,8.5249939-7.8431702,9.2070465c-4.4329529,0.3409119-8.5249939-2.7281647-8.865921-7.5020447
		c-0.3409119-5.1150055-0.6820374-17.3911285,7.5020447-30.3490906
		C185.1009216,180.8179474,196.0129547,175.36203,200.7870483,173.6570282z M96.0417252,245.5155334
		c8.0423431-13.9524078,33.2614365-52.507431,76.4490128-73.270874
		c-14.3549194,14.9512177-23.1948242,35.2378387-23.1948242,57.6013947c0,18.1264496,5.8128662,34.88591,15.6549072,48.5504608
		l-21.7506104,21.7506104C117.7261505,279.958313,102.0654221,255.9070435,96.0417252,245.5155334z"/>
	<path d="M315.704071,229.8460541c0-14.8794098-3.9292603-28.8293152-10.7765503-40.9100037L191.5802155,302.2833862
		c12.0856781,6.842041,26.0403748,10.7667542,40.9197845,10.7667542
		C278.4523621,313.0501404,315.704071,275.7984314,315.704071,229.8460541z"/>
	<path d="M328.3398438,165.5237274l-17.4552307,17.4552307c31.9779358,21.3678589,51.2415771,50.7801514,58.0736694,62.56987
		c-11.2290344,19.4776306-55.9286804,86.9383545-136.2967682,86.9383545h-0.1498566
		c-22.0623932-0.0228882-41.4351196-5.1474609-58.1889496-12.9463196l-18.0290527,18.0290527
		c21.1741028,11.1226807,46.4820709,18.7562561,76.1946869,18.787262h0.181488
		c108.6504517,0,163.117218-110.8416443,163.117218-110.8416443S371.1708984,195.7169189,328.3398438,165.5237274z"/>
</g>
</svg>
