<?xml version="1.0" encoding="utf-8"?>
<!-- Generator: Adobe Illustrator 19.1.0, SVG Export Plug-In . SVG Version: 6.00 Build 0)  -->
<!DOCTYPE svg PUBLIC "-//W3C//DTD SVG 1.1//EN" "http://www.w3.org/Graphics/SVG/1.1/DTD/svg11.dtd">
<svg version="1.1" id="ic" xmlns="http://www.w3.org/2000/svg" xmlns:xlink="http://www.w3.org/1999/xlink" x="0px" y="0px"
	 width="465px" height="465px" viewBox="0 0 465 465" enable-background="new 0 0 465 465" xml:space="preserve">
<g>
	<path d="M68.8199997,142.0200043V332.980011h327.3599854V142.0200043H68.8199997z M368.8999939,265.4653625
		c-2.2028503-0.4501648-4.4807129-0.6853638-6.8200073-0.6853638c-18.8334656,0-34.0999756,15.2700806-34.0999756,34.1000061
		c0,2.3358459,0.2352905,4.617157,0.6853638,6.8200073H136.3345795c0.4467163-2.2028503,0.6854248-4.4841614,0.6854248-6.8200073
		c0-18.8299255-15.2665939-34.1000061-34.1000061-34.1000061c-2.3358383,0-4.6171494,0.235199-6.8199997,0.6853638v-55.9307404
		c2.2028503,0.4501953,4.4841614,0.685379,6.8199997,0.685379c18.8334122,0,34.1000061-15.2700806,34.1000061-34.1000061
		c0-2.3358307-0.2387085-4.6171417-0.6854248-6.8199921h192.3308563c-0.4501343,2.2028503-0.6854248,4.4841614-0.6854248,6.8199921
		c0,18.8299255,15.26651,34.1000061,34.0999756,34.1000061c2.3392944,0,4.617157-0.2351837,6.8200073-0.685379V265.4653625z"/>
	<path d="M232.5,182.9400024c-30.1341858,0-54.5599976,24.4259186-54.5599976,54.5599976S202.3658142,292.0599976,232.5,292.0599976
		S287.0599976,267.6340942,287.0599976,237.5S262.6341858,182.9400024,232.5,182.9400024z M244.8373718,278.4200134h-20.5656891
		v-63.4396667c-5.4492035,4.9820099-12.1702881,8.5795288-19.010788,11.01091v-15.9656525
		c9.3911285-3.2462006,14.2606506-6.6085358,21.5614319-13.4489288h18.0150452V278.4200134z"/>
</g>
</svg>
