<?xml version="1.0" encoding="utf-8"?>
<!-- Generator: Adobe Illustrator 19.1.0, SVG Export Plug-In . SVG Version: 6.00 Build 0)  -->
<!DOCTYPE svg PUBLIC "-//W3C//DTD SVG 1.1//EN" "http://www.w3.org/Graphics/SVG/1.1/DTD/svg11.dtd">
<svg version="1.1" id="ic" xmlns="http://www.w3.org/2000/svg" xmlns:xlink="http://www.w3.org/1999/xlink" x="0px" y="0px"
	 width="465px" height="465px" viewBox="0 0 465 465" enable-background="new 0 0 465 465" xml:space="preserve">
<g>
	<path d="M229.5537109,139.2096863c1.3095551-0.3273926,2.6188965-0.3273926,3.9284515,0l162.6978302,61.8709717
		l-162.6978302,62.5257568c-1.3095551,0.3230286-2.6188965,0.3230286-3.9284515,0L68.8199997,201.7354431L229.5537109,139.2096863z
		 M233.4821625,274.4091797l82.4945831-32.0790558v47.7924652c0,17.0227356-37.9737244,30.1170044-84.4587097,30.1170044
		c-46.812561,0-84.7862854-13.4172974-84.7862854-30.1170044v-47.7945404l82.8219604,32.081131
		C230.863266,275.0639648,232.1726074,275.0639648,233.4821625,274.4091797z M337.9098816,338.5718994V234.7987366
		l21.2783508-8.184082v103.7731323c0,0-1.3093262,0.6547852-3.5987549,1.3093567l-10.4776917,3.9284668
		C341.5109253,336.6075439,337.9098816,338.5718994,337.9098816,338.5718994z"/>
</g>
</svg>
