<?xml version="1.0" encoding="utf-8"?>
<!-- Generator: Adobe Illustrator 19.1.0, SVG Export Plug-In . SVG Version: 6.00 Build 0)  -->
<!DOCTYPE svg PUBLIC "-//W3C//DTD SVG 1.1//EN" "http://www.w3.org/Graphics/SVG/1.1/DTD/svg11.dtd">
<svg version="1.1" id="ic" xmlns="http://www.w3.org/2000/svg" xmlns:xlink="http://www.w3.org/1999/xlink" x="0px" y="0px"
	 width="465px" height="465px" viewBox="0 0 465 465" enable-background="new 0 0 465 465" xml:space="preserve">
<g>
	<polygon points="268.1855469,73.8493423 396.1799927,73.8154221 396.1799927,201.843811 350.2848511,155.9486694 
		278.1699524,228.0700531 241.9251556,191.828598 314.0432129,119.7072296 	"/>
	<polygon points="196.8142548,73.8493423 68.8199997,73.8154221 68.8199997,201.843811 114.7118073,155.9486694 
		186.9116516,228.0463257 223.1530914,191.8013306 150.9565887,119.7072296 	"/>
	<polygon points="268.1855469,401.1514893 396.1799927,401.1856079 396.1799927,273.1503601 350.2848511,319.0455017 
		278.1566162,246.9172516 241.9116364,283.1551514 314.0432129,355.2902832 	"/>
	<polygon points="196.8142548,401.1514893 68.8199997,401.1856079 68.8199997,273.1503601 114.7118073,319.0455017 
		186.8331757,246.9172516 223.0748444,283.1620178 150.9565887,355.2902832 	"/>
</g>
</svg>
