<?xml version="1.0" encoding="utf-8"?>
<!-- Generator: Adobe Illustrator 19.1.0, SVG Export Plug-In . SVG Version: 6.00 Build 0)  -->
<!DOCTYPE svg PUBLIC "-//W3C//DTD SVG 1.1//EN" "http://www.w3.org/Graphics/SVG/1.1/DTD/svg11.dtd">
<svg version="1.1" id="ic" xmlns="http://www.w3.org/2000/svg" xmlns:xlink="http://www.w3.org/1999/xlink" x="0px" y="0px"
	 width="465px" height="465px" viewBox="0 0 465 465" enable-background="new 0 0 465 465" xml:space="preserve">
<g>
	<path d="M325.4429016,261.2829285v78.975708l-230.3011322-0.2728577V214.9888h58.5460968
		c5.6028595-11.6178131,11.3043671-19.7303009,17.0196228-26.1887817H68.8199997v177.6440735H351.764679
		c0,0,0-90.1912231,0-126.3098755L325.4429016,261.2829285z"/>
	<path d="M300.4747925,151.9175415v-47.3616257l95.7052002,77.9186325l-95.7052002,77.4070435v-47.3580933
		c-12.2896423-0.508255-25.2544556,0.3783875-38.901123,2.6698914c-13.6537476,2.2950439-24.2279968,4.7126923-31.7368927,7.2599945
		l-11.0042572,3.8191833c-9.8990631,3.737381-18.7683105,8.4021912-26.6148071,14.0015106
		c-7.8564911,5.6026459-13.7798615,10.5675964-17.7867889,14.8948212
		c-4.0169067,4.3340912-7.6383667,9.3843536-10.8743591,15.1506195c-3.2464142,5.7731018-5.0775452,9.4251404-5.5037842,10.9494934
		c-0.4295807,1.5276794-1.0706329,3.6520386-1.9164734,6.3664856c0,0-1.4390106-35.1843567,8.7160645-59.5045471
		c2.806427-6.7279968,11.0279694-22.2740631,18.2808838-30.5093384c7.2462463-8.2317505,15.74086-15.406189,25.4659424-21.5170898
		c9.7254944-6.1107025,22.5608673-11.45755,38.516098-16.0405731
		C263.0572205,155.4842529,280.8435669,152.7700348,300.4747925,151.9175415z"/>
</g>
</svg>
