<?xml version="1.0" encoding="utf-8"?>
<!-- Generator: Adobe Illustrator 19.1.0, SVG Export Plug-In . SVG Version: 6.00 Build 0)  -->
<!DOCTYPE svg PUBLIC "-//W3C//DTD SVG 1.0//EN" "http://www.w3.org/TR/2001/REC-SVG-20010904/DTD/svg10.dtd">
<svg version="1.0" id="Icons_3_" xmlns="http://www.w3.org/2000/svg" xmlns:xlink="http://www.w3.org/1999/xlink" x="0px" y="0px"
	 width="465px" height="465px" viewBox="0 0 465 465" style="enable-background:new 0 0 465 465;" xml:space="preserve">
<g id="Error">
</g>
<g id="View">
</g>
<g id="Video">
</g>
<g id="User_Personal">
</g>
<g id="Upload">
</g>
<g id="Travel">
</g>
<g id="Transfers">
</g>
<g id="Tools">
</g>
<g id="Clock">
</g>
<g id="Fast_Track">
</g>
<g id="Camera">
</g>
<g id="Tablet">
</g>
<g id="Switch">
</g>
<g id="Survey">
</g>
<g id="Minimize">
</g>
<g id="Stock_Up">
</g>
<g id="Stock_Down">
</g>
<g id="Sound">
</g>
<g id="Shopping_Cart">
</g>
<g id="Share">
</g>
<g id="Settings">
</g>
<g id="Secure_Key_Passcode">
</g>
<g id="Search">
</g>
<g id="Script">
</g>
<g id="Staff_Channels">
	<g id="Signature">
	</g>
	<g id="Shortcuts">
	</g>
	<g id="Microphone">
	</g>
	<g id="Dial">
	</g>
</g>
<g id="Social_Icons">
	<g id="Youtube">
	</g>
	<g id="Youtube_Solid">
	</g>
	<g id="Weibo">
	</g>
	<g id="Weibo_Solid">
	</g>
	<g id="Vimeo">
	</g>
	<g id="Vimeo_Solid">
	</g>
	<g id="Twitter">
	</g>
	<g id="Twitter_Solid">
	</g>
	<g id="LinkedIn">
	</g>
	<g id="LinkedIn_Solid">
	</g>
	<g id="GooglePlus">
	</g>
	<g id="GooglePlus_Solid">
	</g>
	<g id="Facebook">
	</g>
	<g id="Facebook_Solid">
	</g>
</g>
<g>
	<path d="M368.2180176,264.7799988c0,75.019989-60.6980286,136.3999939-135.7180023,136.3999939
		S96.7819977,339.7999878,96.7819977,264.7799988S157.4799957,128.3800049,232.5,128.3800049
		S368.2180176,189.7599945,368.2180176,264.7799988z M335.1409912,264.7799988
		c0-56.9470367-46.0350037-103.3229523-102.9785767-103.3229523c-56.6094208,0-102.6444244,46.3759155-102.6444244,103.3229523
		S175.5529938,368.1029663,232.5,368.1029663C289.1059875,368.1029663,335.1409912,321.7270508,335.1409912,264.7799988z
		 M204.5379944,73.8199997h54.5599976v43.6479568c0,0-12.9579926-2.3870392-26.5979919-2.3870392
		c-13.9810028,0-27.9620056,2.3870392-27.9620056,2.3870392V73.8199997z M307.1789856,133.1540833
		c-0.3478088-0.3411255-1.0263977-0.6820374-1.7049866-1.0231628l10.230011-13.640007
		c1.7049866-2.3868332,3.0621643-4.0918274,3.0621643-4.0918274l32.0540161,23.8700027
		c2.04599,1.7050018,4.0885925,3.4099884,4.0885925,3.4099884l-13.9844055,18.7550049
		c-1.3605957-1.3640747-2.7280273-3.0690765-3.7510071-3.7511292c-1.7049866-1.3638763-7.5019836-7.1609039-11.2529907-9.8888702
		c-3.7578125-3.0690765-6.8200073-5.456131-9.5514221-7.5020447
		C311.2709961,135.5409241,308.5429993,134.1770477,307.1789856,133.1540833z"/>
	<polygon points="245.4579926,267.1601868 245.4579926,182.9400024 218.1779938,182.9400024 218.1779938,278.4200134 
		218.4030609,278.4200134 218.2700653,278.553009 272.7618713,333.0482788 292.0522156,313.7510986 	"/>
</g>
</svg>
