<?xml version="1.0" encoding="utf-8"?>
<!-- Generator: Adobe Illustrator 19.1.0, SVG Export Plug-In . SVG Version: 6.00 Build 0)  -->
<!DOCTYPE svg PUBLIC "-//W3C//DTD SVG 1.1//EN" "http://www.w3.org/Graphics/SVG/1.1/DTD/svg11.dtd">
<svg version="1.1" id="ic" xmlns="http://www.w3.org/2000/svg" xmlns:xlink="http://www.w3.org/1999/xlink" x="0px" y="0px"
	 width="465px" height="465px" viewBox="0 0 465 465" enable-background="new 0 0 465 465" xml:space="preserve">
<g>
	<path d="M232.5,73.8199997c-90.3991394,0-163.6799927,73.2808609-163.6799927,163.6799927
		S142.1008606,401.1799927,232.5,401.1799927S396.1799927,327.8991394,396.1799927,237.5S322.8991394,73.8199997,232.5,73.8199997z
		 M293.6073608,109.6591339c-2.1824646-0.6139832-4.33078-1.2277603-6.4790955-1.7732697
		c-0.2045898-0.4774475-0.3409119-0.954895-0.5796509-1.4321365
		C288.9354553,107.4425507,291.2883606,108.5337753,293.6073608,109.6591339z M329.9920044,147.2371979
		c-0.0682678,5.6607056-0.9207764,11.3212128-2.5233765,16.9819336
		c-12.7194519-10.6733093-26.359436-19.2665863-39.8287659-26.3253021c0.8183594-2.2163849,1.5343323-4.501236,2.0117798-6.7858734
		C302.7120056,135.0634613,316.1815186,140.3830566,329.9920044,147.2371979z M276.4549561,156.2055054
		c1.5345459,0.8183746,3.1029968,1.5345459,4.6716919,2.3870392c14.1174316,7.6725006,26.4616089,16.3338318,37.0666809,25.9159241
		c-5.0126038,8.0816803-11.4916992,15.8224487-19.2324524,23.0175018
		c-10.0593567-15.5495911-21.1418457-29.4963837-32.2243347-41.7042389
		C270.3511353,162.7187195,273.6246033,159.5133209,276.4549561,156.2055054z M281.7404175,221.0296478
		c-11.0142517,7.3996429-23.5630188,13.7763214-37.3395538,18.6186676
		c-5.6605072-19.9486237-10.6391754-37.4419403-14.9697418-52.6845398
		c6.8880615-2.5233612,13.2988739-5.456131,19.2322388-8.7637329
		C260.0528564,190.5783691,271.5104065,204.9684601,281.7404175,221.0296478z M254.8695984,105.532959
		c6.990448,3.273674,11.7986755,7.8088226,13.3673401,13.2308197c0.8183594,2.9666824,0.6479187,6.3425446-0.3752441,9.85495
		c-14.7651672-6.2403641-28.541687-10.5711288-39.8287811-13.5378113
		C236.8307648,111.2958679,246.3445892,108.0563278,254.8695984,105.532959z M255.5175018,146.7258148
		c-7.7066345,7.2633209-18.584549,14.1172485-32.0538788,19.2663727c-3.546524-12.4804993-6.547348-23.0175018-9.1048431-31.9858093
		C224.9299011,136.3592834,239.5245972,140.3830566,255.5175018,146.7258148z M223.463623,245.5816803
		c-14.2879028,3.137146-28.2690277,4.3307648-41.5679016,3.8533173c0.2387238-19.0619965,2.4550934-37.3395386,5.6263733-53.8779602
		c6.9223938-0.3069916,13.9128571-1.1594849,20.9715729-2.6257629L223.463623,245.5816803z M193.4215393,139.9399567
		c0.4772339,1.7049866,0.9546814,3.3417206,1.4662628,5.1489258l7.5700989,26.666214
		c-7.0245819,1.3299561-14.0150452,2.2848511-20.8009033,2.2848511c-5.9674988,0-11.491684-0.6139832-16.5386353-1.6369324
		C175.3825073,158.5925446,185.6807709,147.5441895,193.4215393,139.9399567z M165.5958099,194.4999542
		c-2.9666748,16.2314148-5.0808563,33.9634552-5.4559174,52.4797363
		c-10.3665314-2.0459137-19.9486237-5.2171936-28.4394836-9.4455566
		c3.955719-13.7424011,9.9232178-27.5869904,17.9024963-41.5339813c0.8866425-1.5343323,1.8074036-3.0347443,2.7279663-4.5010223
		C156.4570465,192.7949524,160.8899994,193.7837677,165.5958099,194.4999542z M144.0787201,136.973053
		c8.5250092-2.3187714,18.3799591-4.6034088,27.8257141-6.0014191c-8.0477448,8.49086-17.4933167,19.4368286-26.8027496,32.5313263
		c-2.6938324-2.4211731-4.637558-5.1491394-5.4900513-8.1499481
		C138.0770874,149.9651489,139.7820892,143.5545349,144.0787201,136.973053z M117.4807663,154.6709595
		c0.0341339,0.5115967,0.1021957,1.0231781,0.1704559,1.500412c-1.4662704,1.500412-2.8984146,3.1032257-4.3307648,4.6716919
		C114.6845398,158.7630157,116.0144882,156.7170868,117.4807663,154.6709595z M104.6932678,291.0026855l-5.0808716-3.7850342
		c-1.3640823-3.5802612-2.5574951-7.1950378-3.6145859-10.9118347c-4.092041-14.4924927-5.7629089-29.0874023-5.2854614-43.3753052
		c4.7738724,5.5241852,10.2980576,10.5369873,16.5042877,14.9699402
		C104.5569382,261.6089478,103.4998474,276.0331726,104.6932678,291.0026855z M113.1158676,225.1558228
		c-4.3305588-3.9215851-8.047554-8.3204193-11.0825043-13.0603638c8.1499557-13.128418,16.8114853-24.7566376,25.9161301-35.0207672
		c1.5684662,1.7050018,3.273468,3.3419342,5.1830597,4.8082123
		C125.3578568,194.9771881,118.3332672,209.4355621,113.1158676,225.1558228z M127.0969925,259.085144
		c10.2300034,4.5010376,21.4488297,7.8431702,33.4179611,9.85495c0.9207611,16.6066895,3.5123901,33.5205688,8.184082,50.3999023
		c-14.3220367-2.3868408-27.7233124-6.5810547-39.7607117-12.4465942
		C125.4941864,291.1733704,124.8804092,275.2148132,127.0969925,259.085144z M145.3745422,349.2457581
		c-2.8984222-5.1149902-5.4559174-10.2641296-7.7066345-15.4473877c12.1395874,4.1259766,25.0975494,6.8882751,38.6012268,8.3543396
		c4.2624969,10.6054688,9.6162262,21.0398254,15.9246368,31.2357178
		C175.1437683,368.3075562,159.2532654,360.089325,145.3745422,349.2457581z M192.0574493,321.5903015
		c-5.3878632-16.776947-8.354538-33.7928162-9.5479584-50.5018921c1.9095917,0.0682678,3.8191833,0.1702576,5.7629089,0.1702576
		c13.3330078,0,27.177597-1.5684814,41.124588-4.7054138l14.2196503,49.9220581
		C226.1233215,320.5334167,208.7324066,322.1701355,192.0574493,321.5903015z M232.3978119,379.4241943
		c-3.2736816,0-6.5132141-0.2044067-9.7186279-0.4091797c-9.036377-11.45755-16.2996979-23.3588562-22.0284729-35.6002197
		c15.9929199-0.1706543,32.4630585-2.1828613,48.899292-6.0698853l11.1507721,39.1808472
		C251.3574066,378.4014282,241.8775024,379.4241943,232.3978119,379.4241943z M250.3344421,260.5516357
		c15.5154724-5.3539429,29.7351074-12.3783264,42.3179932-20.7328644
		c7.7749023,14.7994995,14.2196655,30.8263397,18.4480286,47.9445953
		c-13.9126587,9.2409668-29.5646362,17.0158691-46.5463867,22.7785645
		C259.4390869,292.5374451,254.6991272,275.8624878,250.3344421,260.5516357z M315.2948914,352.5874939
		c-10.2982483,7.3994446-21.5853577,13.4352112-33.6907959,17.9024963
		c-3.8874512-13.6399841-7.5703125-26.6322937-11.0825195-39.0101929
		c15.9929199-5.3880615,31.0309143-12.3787231,44.7391968-20.6647949
		C316.8294373,324.2160645,316.8974915,338.1291199,315.2948914,352.5874939z M310.2140198,226.3833618
		c9.1046448-8.0134125,16.8793335-16.7771301,23.1538391-26.0183105
		c10.4346008,12.582901,18.311676,26.4957581,23.6654053,41.670105
		c-7.1269836,11.3210144-16.3338318,21.9606018-27.2799988,31.5087891
		C324.842865,256.7661743,318.125061,240.9441376,310.2140198,226.3833618z M356.3853455,306.5524902
		c-5.1491089,9.2409668-11.2870789,17.6977234-18.1412048,25.4043579c0-12.0032959-0.9547119-23.6993408-2.8984375-34.9525146
		c10.7072449-8.3543396,20.2554321-17.5611572,28.4051514-27.4506531c0.818573,5.6269836,1.3641052,11.3555603,1.6028137,17.2547913
		C362.8303223,293.526062,359.9658203,300.1758118,356.3853455,306.5524902z M344.3820801,180.3483734
		c2.9327698-6.9904633,5.0128174-14.1174622,6.1720886-21.2783661c8.0136414,12.0030518,14.2879333,25.2680054,18.3799744,39.624176
		c1.0570679,3.7167816,1.8413086,7.4337769,2.6257629,11.1507721l-2.2848511,5.9333649
		C362.3869934,202.410965,353.8961182,190.646637,344.3820801,180.3483734z"/>
</g>
</svg>
