<?xml version="1.0" encoding="utf-8"?>
<!-- Generator: Adobe Illustrator 19.1.0, SVG Export Plug-In . SVG Version: 6.00 Build 0)  -->
<!DOCTYPE svg PUBLIC "-//W3C//DTD SVG 1.0//EN" "http://www.w3.org/TR/2001/REC-SVG-20010904/DTD/svg10.dtd">
<svg version="1.0" id="Icons_3_" xmlns="http://www.w3.org/2000/svg" xmlns:xlink="http://www.w3.org/1999/xlink" x="0px" y="0px"
	 width="465px" height="465px" viewBox="0 0 465 465" style="enable-background:new 0 0 465 465;" xml:space="preserve">
<g id="Error">
</g>
<g id="View">
</g>
<g id="Video">
</g>
<g id="User_Personal">
</g>
<g id="Upload">
</g>
<g id="Travel">
</g>
<g id="Transfers">
</g>
<g id="Tools">
</g>
<g id="Clock">
</g>
<g id="Fast_Track">
</g>
<g id="Camera">
</g>
<g id="Tablet">
</g>
<g id="Switch">
</g>
<g id="Survey">
</g>
<g id="Minimize">
</g>
<g id="Stock_Up">
</g>
<g id="Stock_Down">
</g>
<g id="Sound">
</g>
<g id="Shopping_Cart">
</g>
<g id="Share">
</g>
<g id="Settings">
</g>
<g id="Secure_Key_Passcode">
</g>
<g id="Search">
</g>
<g id="Script">
</g>
<g id="Staff_Channels">
	<g id="Signature">
	</g>
	<g id="Shortcuts">
	</g>
	<g id="Microphone">
	</g>
	<g id="Dial">
	</g>
</g>
<g id="Social_Icons">
	<g id="Youtube">
	</g>
	<g id="Youtube_Solid">
	</g>
	<g id="Weibo">
	</g>
	<g id="Weibo_Solid">
	</g>
	<g id="Vimeo">
	</g>
	<g id="Vimeo_Solid">
	</g>
	<g id="Twitter">
	</g>
	<g id="Twitter_Solid">
	</g>
	<g id="LinkedIn">
	</g>
	<g id="LinkedIn_Solid">
	</g>
	<g id="GooglePlus">
	</g>
	<g id="GooglePlus_Solid">
	</g>
	<g id="Facebook">
	</g>
	<g id="Facebook_Solid">
	</g>
</g>
<g>
	<polygon points="377.0283203,216.7054901 377.0283203,216.5179596 338.9896851,216.5179596 338.9896851,177.7394104 
		316.72229,177.7394104 316.72229,216.5179596 278.4417725,216.5179596 278.4417725,238.1509857 278.673645,238.1509857 
		278.673645,238.9828796 316.72229,238.9828796 316.72229,277.0180054 338.9896851,277.0180054 338.9896851,238.9828796 
		377.9590759,238.9828796 377.9590759,216.7054901 	"/>
	<g>
		<path d="M227.7679749,257.3574219c-7.6208801-5.3949432-22.1949615-18.5152435-22.1949615-26.2276917
			c0-9.0378418,2.5791473-13.4903564,16.1841736-24.1199646c13.9447021-10.8960266,23.813385-26.4793243,23.813385-44.298584
			c0-21.209259-9.4474182-42.1506653-27.1800842-48.970665h26.7338562l18.8703156-13.6399994c0,0-63.2402649,0-84.3196716,0
			c-37.8009644,0-73.3782654,28.9052811-73.3782654,62.0797348c0,33.8985291,25.7681427,61.3933105,64.2255554,61.3933105
			c2.6740417,0,5.2731781,0.0135345,7.8173523-0.1696167c-2.4958954,4.7784576-4.2808075,10.1933594-4.2808075,15.7810211
			c0,9.4207916,5.0683746,17.0768433,11.4771118,23.3107605c-4.8419342,0-9.5173645,0.1479797-14.6173859,0.1479797
			c-46.8225555,0-82.8606644,29.8250122-82.8606644,60.7483215c0,30.4533691,39.508049,49.507019,86.3306046,49.507019
			c53.3794861,0,82.8623352-30.2862244,82.8623352-60.7428894
			C257.250824,287.7364807,250.0445404,273.11203,227.7679749,257.3574219z M182.7236786,215.1120453
			c-21.7254333-0.6493683-42.3702545-24.3031158-46.1199188-52.8266907
			c-3.7496643-28.5287781,10.8161011-50.3641052,32.5365295-49.7147369
			c21.7171021,0.6526947,42.3702545,23.5417786,46.121582,52.0672302
			C219.0082092,193.166626,204.4391174,215.7612,182.7236786,215.1120453z M174.2169952,359.437439
			c-32.3633575,0-55.7371826-20.4866638-55.7371826-45.0959167c0-24.1195679,28.9916534-44.1965942,61.3550262-43.847168
			c7.5526123,0.0799255,14.5907288,1.2956238,20.9811554,3.3634033
			c17.5678253,12.2180481,30.1705017,19.121521,33.7253723,33.0445557c0.669342,2.8239136,1.0323181,5.7275391,1.0323181,8.6948547
			C235.5736847,340.2064209,219.7158508,359.437439,174.2169952,359.437439z"/>
	</g>
</g>
</svg>
