<?xml version="1.0" encoding="utf-8"?>
<!-- Generator: Adobe Illustrator 19.1.0, SVG Export Plug-In . SVG Version: 6.00 Build 0)  -->
<!DOCTYPE svg PUBLIC "-//W3C//DTD SVG 1.0//EN" "http://www.w3.org/TR/2001/REC-SVG-20010904/DTD/svg10.dtd">
<svg version="1.0" id="Icons_3_" xmlns="http://www.w3.org/2000/svg" xmlns:xlink="http://www.w3.org/1999/xlink" x="0px" y="0px"
	 width="465px" height="465px" viewBox="0 0 465 465" style="enable-background:new 0 0 465 465;" xml:space="preserve">
<g id="Error">
</g>
<g id="View">
</g>
<g id="Video">
</g>
<g id="User_Personal">
</g>
<g id="Upload">
</g>
<g id="Travel">
</g>
<g id="Transfers">
</g>
<g id="Tools">
</g>
<g id="Clock">
</g>
<g id="Fast_Track">
</g>
<g id="Camera">
</g>
<g id="Tablet">
</g>
<g id="Switch">
</g>
<g id="Survey">
</g>
<g id="Minimize">
</g>
<g id="Stock_Up">
</g>
<g id="Stock_Down">
</g>
<g id="Sound">
</g>
<g id="Shopping_Cart">
</g>
<g id="Share">
</g>
<g id="Settings">
</g>
<g id="Secure_Key_Passcode">
</g>
<g id="Search">
</g>
<g id="Script">
</g>
<g id="Staff_Channels">
	<g id="Signature">
	</g>
	<g id="Shortcuts">
	</g>
	<g id="Microphone">
	</g>
	<g id="Dial">
	</g>
</g>
<g id="Social_Icons">
	<g id="Youtube">
	</g>
	<g id="Youtube_Solid">
	</g>
	<g id="Weibo">
	</g>
	<g id="Weibo_Solid">
	</g>
	<g id="Vimeo">
	</g>
	<g id="Vimeo_Solid">
	</g>
	<g id="Twitter">
	</g>
	<g id="Twitter_Solid">
	</g>
	<g id="LinkedIn">
	</g>
	<g id="LinkedIn_Solid">
	</g>
	<g id="GooglePlus">
	</g>
	<g id="GooglePlus_Solid">
	</g>
	<g id="Facebook">
	</g>
	<g id="Facebook_Solid">
	</g>
</g>
<g>
	<path d="M195.3821106,144.1239777c-4.8352661-3.5021973-10.3835907-5.357254-16.6508026-5.5583038
		c-8.3002167,0.2010498-15.2055511,3.5565186-20.6989288,10.0697327
		c-4.6408844,6.8131409-6.8607941,14.4275665-6.6597443,22.8435059c0,11.1199646,3.2360077,22.6969757,9.7254944,34.7206421
		c3.1369324,5.6095123,7.1917267,10.3698578,12.1464539,14.2810364c4.9614105,3.9045258,10.635437,5.8551178,17.0158691,5.8551178
		c8.064621-0.3001251,14.785553-3.2020874,20.1598816-8.712738c2.584549-3.9111786,4.248764-7.9110107,4.9888763-12.0269928
		c0.4399872-4.1022339,0.6718445-7.559906,0.6718445-10.3698578c0-12.1225281-3.0894775-24.3439178-9.2651215-36.6710358
		C203.9208527,152.6421204,200.1049957,147.8338928,195.3821106,144.1239777z"/>
	<path d="M193.3257904,275.5213623c-1.5651398-0.2112427-5.5616455,0-11.9961853,0.5933838
		c-6.3392181,0.9003906-12.82164,2.3460388-19.4472351,4.3409729c-1.5651398,0.6104431-3.7646637,1.5037231-6.58815,2.7108765
		c-2.8301544,1.292511-5.7081757,3.1475525-8.6240692,5.5447998c-2.8301544,2.4994202-5.21698,5.6059875-7.1709137,9.3023682
		c-2.2440491,3.9078369-3.3625336,8.6001282-3.3625336,14.1003723c0,10.8029785,4.8731537,19.7063599,14.6223602,26.7072449
		c9.2580414,7.0006409,21.9464722,10.6017151,38.028244,10.7994385c14.4308929-0.1977234,25.4488831-3.3998108,33.0597687-9.5958252
		c7.3998566-6.1073608,11.1099701-13.9605408,11.1099701-23.556366c0-7.7950745-2.5370941-14.5946655-7.6112976-20.3985901
		c-5.3605957-5.5035706-13.7386627-12.2453308-25.1487579-20.2485352
		C198.2463989,275.6135864,195.954895,275.5213623,193.3257904,275.5213623z"/>
	<path d="M68.8199997,73.8199997v327.3599854h327.3599854V73.8199997H68.8199997z M227.6168518,144.710495
		c2.3052521,2.4041138,4.5692902,5.3537292,6.7858734,8.8557129c2.1108551,3.2974091,3.9827728,7.1950531,5.6199188,11.6962738
		c1.3399353,4.501236,2.0117798,9.7492218,2.0117798,15.7541962c-0.173996,11.0040283-2.591629,19.7985535-7.2462463,26.3933563
		c-2.2848511,3.1987457-4.7024841,6.1483765-7.2599792,8.8523865c-2.8235016,2.6973724-5.8343048,5.4492645-9.0228577,8.2454834
		c-1.8311157,1.9027252-3.5090637,4.0510406-5.0671234,6.448288c-1.8178101,2.5029602-2.7381592,5.4049225-2.7381592,8.6987915
		c0,3.2020721,0.9374237,5.8551025,2.8097534,7.9522247c1.5921936,2.0015869,3.1369324,3.7509155,4.6342163,5.2479858
		l10.383194,8.5522766c6.4620056,5.3025208,12.1227264,11.1507568,16.9817352,17.5478516
		c4.5900879,6.4994812,6.9806671,14.9903259,7.1613312,25.500061c0,14.8912659-6.5540161,28.0948181-19.6553802,39.5900574
		c-13.5854645,11.9008484-33.1929626,18.0558777-58.8087616,18.447998
		c-21.4590149-0.2010498-37.4725342-4.7944641-48.0505295-13.7729797
		c-10.6766434-8.3782959-16.013092-18.4138794-16.013092-30.0931091c0-5.6846313,1.7353821-12.0203247,5.2069931-19.0039062
		c3.3725357-6.993988,9.4728241-13.1286316,18.3012695-18.414093c9.9232178-5.6879883,20.3409576-9.4832153,31.2594452-11.3826294
		c10.8098602-1.5992432,19.7885742-2.4892273,26.9324341-2.6904907c-2.2099304-2.9154663-4.1771698-6.0289001-5.8992462-9.3502197
		c-2.0255127-3.2156067-3.0249481-7.089325-3.0249481-11.6144867c0-2.7073517,0.3717194-4.9784698,1.1526184-6.7823334
		c0.6718445-1.9131317,1.2858276-3.6726532,1.8723297-5.2752533c-3.4782562,0.3954468-6.7654572,0.6000366-9.8516083,0.6000366
		c-16.2965698-0.2045898-28.7256775-5.3501892-37.2714844-15.4471893
		c-8.9441833-9.394577-13.4148102-20.340744-13.4148102-32.8383179c0-15.0996094,6.3358917-28.7941437,19.0176697-41.0973358
		c8.6989899-7.1952515,17.7559662-11.8941956,27.1334686-14.0970459c9.2955017-1.9027252,17.997818-2.8540802,26.1236267-2.8540802
		h61.2472076l-18.9152527,11.082489h-18.8811188C223.0542297,140.6661224,225.2196198,142.415451,227.6168518,144.710495z
		 M355.2600098,243.0820465H322.26474v32.2041473h-18.8536377v-32.2041473h-32.2143555v-0.7024384h-0.2014465v-18.3185577h32.415802
		V191.229599H322.26474v32.8314514h32.2006226v0.1671295h0.7946472V243.0820465z"/>
</g>
</svg>
