<?xml version="1.0" encoding="utf-8"?>
<!-- Generator: Adobe Illustrator 19.1.0, SVG Export Plug-In . SVG Version: 6.00 Build 0)  -->
<!DOCTYPE svg PUBLIC "-//W3C//DTD SVG 1.1//EN" "http://www.w3.org/Graphics/SVG/1.1/DTD/svg11.dtd">
<svg version="1.1" id="ic" xmlns="http://www.w3.org/2000/svg" xmlns:xlink="http://www.w3.org/1999/xlink" x="0px" y="0px"
	 width="465px" height="465px" viewBox="0 0 465 465" enable-background="new 0 0 465 465" xml:space="preserve">
<g>
	<path d="M371.0652771,236.4180756H261.1438599l-15.5495911,36.0301971l-34.7819824-113.4405823l-34.7547302,77.4068451H93.3480148
		c-14.3083572-21.7318878-24.5281296-40.7324829-24.5281296-66.6619263c0-46.9593048,38.2533875-85.2194061,85.8535767-85.2194061
		c34.4580383,0,63.9579468,20.2895432,77.6763611,49.5677948c13.7218475-29.2782516,43.5150757-49.5677948,77.973053-49.5677948
		c47.3069763,0,85.7445068,38.2601013,85.8569946,85.2194061
		C396.2480469,195.7913208,385.6668396,214.389389,371.0652771,236.4180756z M270.4225159,249.4374237h91.384552
		c0,0-50.0212402,66.2290192-119.8034973,132.4238739c-2.6564178,2.5167236-9.5002594,8.2044983-9.5002594,8.2044983
		s-7.0791626-5.5991211-9.820816-8.184082c-70.048233-66.2015381-119.8990173-132.4442902-119.8990173-132.4442902h81.4308014
		l25.0703278-57.6904755l34.6694489,116.9392395L270.4225159,249.4374237z"/>
</g>
</svg>
