<?xml version="1.0" encoding="utf-8"?>
<!-- Generator: Adobe Illustrator 19.1.0, SVG Export Plug-In . SVG Version: 6.00 Build 0)  -->
<!DOCTYPE svg PUBLIC "-//W3C//DTD SVG 1.1//EN" "http://www.w3.org/Graphics/SVG/1.1/DTD/svg11.dtd">
<svg version="1.1" id="ic" xmlns="http://www.w3.org/2000/svg" xmlns:xlink="http://www.w3.org/1999/xlink" x="0px" y="0px"
	 width="465px" height="465px" viewBox="0 0 465 465" enable-background="new 0 0 465 465" xml:space="preserve">
<g>
	<path d="M259.5820618,249.4759979c-17.1897583,13.3092804-22.4855194,19.9619598-22.4855194,41.2540436v21.7354431h-53.7790985
		v-30.6080017c0-22.6220703,4.4056854-29.2751465,33.4998627-56.3334808
		c28.2142944-26.6183624,39.6786957-40.81427,39.6786957-62.5461578c0-30.6082001-27.777832-43.9139481-62.1608887-43.9139481
		c-15.8701172,0-30.8604584,2.6632309-46.287262,7.0995178V80.0295563
		c20.2826843-3.5496597,41.0018005-6.2095566,61.7175903-6.2095566c55.5455017,0,115.0567017,17.7422409,115.0567017,82.501442
		C324.8222351,195.3626556,299.6973267,217.9811707,259.5820618,249.4759979z M178.7411804,401.1799927v-57.9700012h64.7900085
		v57.9700012H178.7411804z"/>
</g>
</svg>
