<?xml version="1.0" encoding="utf-8"?>
<!-- Generator: Adobe Illustrator 19.1.0, SVG Export Plug-In . SVG Version: 6.00 Build 0)  -->
<!DOCTYPE svg PUBLIC "-//W3C//DTD SVG 1.1//EN" "http://www.w3.org/Graphics/SVG/1.1/DTD/svg11.dtd">
<svg version="1.1" id="ic" xmlns="http://www.w3.org/2000/svg" xmlns:xlink="http://www.w3.org/1999/xlink" x="0px" y="0px"
	 width="465px" height="465px" viewBox="0 0 465 465" enable-background="new 0 0 465 465" xml:space="preserve">
<g>
	<path d="M229.2606659,225.5650024c21.1418304,0,38.8736725-7.161026,53.8777618-22.5060272
		c14.663147-14.6663818,22.5096436-32.7427826,22.5096436-53.5369263c0-21.1420441-7.1646423-39.215004-22.5096436-53.878067
		c-14.6627502-14.6663971-32.7359314-21.8239822-53.8777618-21.8239822c-21.1422424,0-38.8707581,7.1610184-53.5372467,21.8239822
		c-14.6627502,14.663063-21.820343,32.7360229-21.820343,53.878067c0,20.8009033,7.1609192,38.8705444,22.5059204,53.5369263
		C190.7274933,218.0629578,208.8006592,225.5650024,229.2606659,225.5650024"/>
	<path d="M180.4974976,296.1520386c0,41.6019287,16.3681641,105.0279541,16.3681641,105.0279541H94.2243347v-31.3720398
		c0-18.410553,4.4331665-37.8509216,13.2957535-56.9469299c9.2068329-19.4336243,21.4864883-35.4572144,37.169075-48.7630615
		c12.9577637-10.5709229,26.5977631-16.7055511,40.9200134-18.7550049
		C185.6091766,245.3429565,180.4974976,271.6000061,180.4974976,296.1520386 M284.5025024,298.5389709
		c0-17.7319336-5.1149902-53.2062073-5.1149902-53.2062073l1.0231628,0.3512115
		c9.8886719,1.3537903,19.0959167,5.1150055,28.3027344,10.9086151
		c12.6172485,7.8463745,23.1881714,17.7251587,32.3950195,29.6601562
		c8.5249939,11.9350281,16.0272522,25.926239,21.4831543,40.5789795c5.4663086,14.6630859,8.184082,29.3260193,8.184082,42.9660339
		v31.3719788H268.4756775C280.410675,359.9189758,284.5025024,328.2060242,284.5025024,298.5389709z M196.8656616,401.1799927
		l25.2336731-111.5070496l-25.2336731-45.0119171h70.9277649l-25.5750122,45.0119171l25.9159241,111.5070496H196.8656616
		 M341.7906799,319.3399963h-40.9200134v20.4599915h40.9200134V319.3399963z"/>
</g>
</svg>
