<?xml version="1.0" encoding="utf-8"?>
<!-- Generator: Adobe Illustrator 19.1.0, SVG Export Plug-In . SVG Version: 6.00 Build 0)  -->
<!DOCTYPE svg PUBLIC "-//W3C//DTD SVG 1.1//EN" "http://www.w3.org/Graphics/SVG/1.1/DTD/svg11.dtd">
<svg version="1.1" id="ic" xmlns="http://www.w3.org/2000/svg" xmlns:xlink="http://www.w3.org/1999/xlink" x="0px" y="0px"
	 width="465px" height="465px" viewBox="0 0 465 465" enable-background="new 0 0 465 465" xml:space="preserve">
<g>
	<path d="M286.9526672,285.2325134c34.6455078-19.2428589,58.0909119-56.2072449,58.0909119-98.6475372
		c0-62.278389-50.4864807-112.7649765-112.7649689-112.7649765c-62.2782898,0-112.7647705,50.4865875-112.7647705,112.7649765
		c0,42.4402924,23.4454193,79.4046783,58.0909271,98.6475372v20.9515991h109.3479004V285.2325134z M177.6047668,319.8525085
		h109.3479004v13.6685181H177.6047668V319.8525085z M177.6047668,347.1895447h109.3479004v13.6684265H177.6047668V347.1895447z"/>
	<path d="M265.6201782,374.5264587c-3.4247742,15.2556152-17.0520782,26.6535339-33.341568,26.6535339
		c-16.2892761,0-29.9165802-11.3979187-33.341568-26.6535339H265.6201782z"/>
</g>
</svg>
