<?xml version="1.0" encoding="utf-8"?>
<!-- Generator: Adobe Illustrator 19.1.0, SVG Export Plug-In . SVG Version: 6.00 Build 0)  -->
<!DOCTYPE svg PUBLIC "-//W3C//DTD SVG 1.1//EN" "http://www.w3.org/Graphics/SVG/1.1/DTD/svg11.dtd">
<svg version="1.1" id="ic" xmlns="http://www.w3.org/2000/svg" xmlns:xlink="http://www.w3.org/1999/xlink" x="0px" y="0px"
	 width="465px" height="465px" viewBox="0 0 465 465" enable-background="new 0 0 465 465" xml:space="preserve">
<g>
	<path d="M245.3147583,96.2611847v-22.441185h-25.7215118v22.441185
		c-84.3429718,4.0851746-150.7732544,47.7570648-150.7732544,101.1236572c0,0.5455017,0.0476608,1.0774841,0.0614014,1.6298676
		c10.8812332-4.0647888,24.2381821-6.4994812,38.7342148-6.4994812c25.0804901,0,46.8773041,7.184845,57.9460602,17.7559662
		c10.8404541-8.9479218,30.6217346-15.4371948,54.0315704-17.2239838v170.9603882
		c0,20.4974365,16.691803,37.1723938,37.1892548,37.1723938c20.4941406,0,37.1690979-16.6782837,37.1690979-37.1723938H268.226532
		c0,6.3117371-5.1455994,11.4437866-11.4440308,11.4437866c-6.3117371,0-11.4677429-5.135376-11.4677429-11.4437866V193.06427
		c22.9219666,1.7391357,42.3692017,7.9692993,53.3426514,16.6441498
		c11.2496338-10.2572632,32.6849365-17.1931915,57.3391724-17.1931915c15.07901,0,28.9985046,2.6155701,40.0810242,6.9837952
		c0.0341187-0.7024384,0.1023865-1.4084167,0.1023865-2.1108551
		C396.1799927,144.0182495,329.6542053,100.3463593,245.3147583,96.2611847"/>
</g>
</svg>
