<?xml version="1.0" encoding="utf-8"?>
<!-- Generator: Adobe Illustrator 19.1.0, SVG Export Plug-In . SVG Version: 6.00 Build 0)  -->
<!DOCTYPE svg PUBLIC "-//W3C//DTD SVG 1.1//EN" "http://www.w3.org/Graphics/SVG/1.1/DTD/svg11.dtd">
<svg version="1.1" id="ic" xmlns="http://www.w3.org/2000/svg" xmlns:xlink="http://www.w3.org/1999/xlink" x="0px" y="0px"
	 width="465px" height="465px" viewBox="0 0 465 465" enable-background="new 0 0 465 465" xml:space="preserve">
<g>
	<path d="M272.2835083,178.950531c-11.3360291-7.717041-25.0297089-12.227829-39.7771759-12.227829
		c-12.2138977,0-23.7051544,3.0940552-33.7326508,8.5412292l-43.5925903-43.5925903
		c1.3836517-4.2858124,2.1312408-8.8573914,2.1312408-13.6035843c0-24.4286194-19.8031311-44.2317581-44.2317581-44.2317581
		s-44.2317581,19.8031387-44.2317581,44.2317581c0,24.4284134,19.8031387,44.2317581,44.2317581,44.2317581
		c9.9098969,0,19.058876-3.2590942,26.4331284-8.7637177l38.6357727,38.6357727
		c-10.2476959,12.2771606-16.4139557,28.079422-16.4139557,45.3219452c0,14.747467,4.510788,28.4411469,12.227829,39.7771759
		l-40.4229736,40.4229736c-6.1184006-3.1977234-13.0778503-5.0063477-20.4598007-5.0063477
		c-24.4286194,0-44.2317581,19.8035583-44.2317581,44.2317505c0,24.4286194,19.8031387,44.2321777,44.2317581,44.2321777
		s44.2317581-19.8035583,44.2317581-44.2321777c0-7.3815308-1.8082275-14.3409729-5.0061493-20.4595947l40.4232025-40.4229736
		c11.3358002,7.717041,25.0296936,12.2276306,39.776947,12.2276306c17.2425232,0,33.0449982-6.1660461,45.3221588-16.4135437
		l38.6355591,38.6355591c-5.5046082,7.3744812-8.7635193,16.5230408-8.7635193,26.4329224
		c0,24.4286194,19.8031616,44.2321777,44.231781,44.2321777c24.4281921,0,44.2317505-19.8035583,44.2317505-44.2321777
		c0-24.4281921-19.8035583-44.2317505-44.2317505-44.2317505c-4.7462158,0-9.3179932,0.7475891-13.6037903,2.1316528
		l-43.5924072-43.592804c5.4472046-10.02771,8.5412598-21.5187531,8.5412598-33.7326508
		c0-14.7474518-4.5110168-28.4411469-12.2280579-39.776947l40.4229736-40.4232025
		c6.1186218,3.1977081,13.078064,5.0061493,20.460022,5.0061493c24.4281921,0,44.2317505-19.8033447,44.2317505-44.2317581
		c0-24.4286194-19.8035583-44.2317581-44.2317505-44.2317581c-24.4286194,0-44.231781,19.8031387-44.231781,44.2317581
		c0,7.3817444,1.8082275,14.3413925,5.0059509,20.4595871L272.2835083,178.950531z"/>
</g>
</svg>
