<?xml version="1.0" encoding="utf-8"?>
<!-- Generator: Adobe Illustrator 19.1.0, SVG Export Plug-In . SVG Version: 6.00 Build 0)  -->
<!DOCTYPE svg PUBLIC "-//W3C//DTD SVG 1.1//EN" "http://www.w3.org/Graphics/SVG/1.1/DTD/svg11.dtd">
<svg version="1.1" id="ic" xmlns="http://www.w3.org/2000/svg" xmlns:xlink="http://www.w3.org/1999/xlink" x="0px" y="0px"
	 width="465px" height="465px" viewBox="0 0 465 465" enable-background="new 0 0 465 465" xml:space="preserve">
<g>
	<polygon points="225.952652,300.0259705 162.4451447,363.8643799 106.1389389,307.5515137 169.9740295,244.0471344 
		179.1404877,253.5372467 197.7997589,234.557251 169.9740295,206.7315369 68.8199997,307.5515137 162.4451447,401.1799927 
		263.2682495,300.0259705 235.4429626,272.2002563 216.4594269,290.8594971 	"/>
	<polygon points="239.047348,174.9742432 302.5548401,111.1389389 358.8643799,167.4416046 295.0259705,230.9528656 
		285.8594971,221.4558868 267.2002563,240.442749 295.0259705,268.2682495 396.1799927,167.4416046 302.5548401,73.8199997 
		201.7317505,174.9742432 229.5570374,202.7997589 248.5405731,184.1402893 	"/>
	
		<rect x="219.4763489" y="154.8419037" transform="matrix(0.7070989 0.7071146 -0.7071146 0.7070989 236.1069336 -95.0048676)" width="26.5126839" height="165.3149414"/>
</g>
</svg>
