<?xml version="1.0" encoding="utf-8"?>
<!-- Generator: Adobe Illustrator 19.1.0, SVG Export Plug-In . SVG Version: 6.00 Build 0)  -->
<!DOCTYPE svg PUBLIC "-//W3C//DTD SVG 1.0//EN" "http://www.w3.org/TR/2001/REC-SVG-20010904/DTD/svg10.dtd">
<svg version="1.0" id="Icons_3_" xmlns="http://www.w3.org/2000/svg" xmlns:xlink="http://www.w3.org/1999/xlink" x="0px" y="0px"
	 width="465px" height="465px" viewBox="0 0 465 465" style="enable-background:new 0 0 465 465;" xml:space="preserve">
<g id="Error">
</g>
<g id="View">
</g>
<g id="Video">
</g>
<g id="User_Personal">
</g>
<g id="Upload">
</g>
<g id="Travel">
</g>
<g id="Transfers">
</g>
<g id="Tools">
</g>
<g id="Clock">
</g>
<g id="Fast_Track">
</g>
<g id="Camera">
</g>
<g id="Tablet">
</g>
<g id="Switch">
</g>
<g id="Survey">
</g>
<g id="Minimize">
</g>
<g id="Stock_Up">
</g>
<g id="Stock_Down">
</g>
<g id="Sound">
</g>
<g id="Shopping_Cart">
</g>
<g id="Share">
</g>
<g id="Settings">
</g>
<g id="Secure_Key_Passcode">
</g>
<g id="Search">
</g>
<g id="Script">
</g>
<g id="Staff_Channels">
	<g id="Signature">
	</g>
	<g id="Shortcuts">
	</g>
	<g id="Microphone">
	</g>
	<g id="Dial">
	</g>
</g>
<g id="Social_Icons">
	<g id="Youtube">
	</g>
	<g id="Youtube_Solid">
	</g>
	<g id="Weibo">
	</g>
	<g id="Weibo_Solid">
	</g>
	<g id="Vimeo">
	</g>
	<g id="Vimeo_Solid">
	</g>
	<g id="Twitter">
	</g>
	<g id="Twitter_Solid">
	</g>
	<g id="LinkedIn">
	</g>
	<g id="LinkedIn_Solid">
	</g>
	<g id="GooglePlus">
	</g>
	<g id="GooglePlus_Solid">
	</g>
	<g id="Facebook">
	</g>
	<g id="Facebook_Solid">
	</g>
</g>
<g>
	<path d="M126.3479691,113.9152756c17.2852859,0,27.6619186,12.5317078,28.0881577,28.5281601
		c0,15.9860382-10.8028717,28.5246124-28.521225,28.5246124h-0.4365005c-16.8522263,0-27.6585388-12.9683685-27.6585388-28.5246124
		C97.8199158,126.4469833,109.0592422,113.9152756,126.3479691,113.9152756z M157.9006653,360.7106934h-57.0594864V189.549057
		h57.0560989v171.1616364H157.9006653z M365.7981262,360.7106934h-56.1967468v-89.4717102
		c0-22.4753113-6.4824219-37.5986481-26.7890015-37.5986481c-15.556366,0-24.640625,10.3731842-28.9611359,20.3068085
		c-1.2957611,3.467865-1.7357025,8.6473694-1.7357025,13.4077148v93.355835H194.633194c0,0,0.859314-156.0314331,0-171.5878906
		h57.9188538v23.7744751c7.3416901-11.2392273,20.7430573-27.6619263,50.5634918-27.6619263
		c36.7427368,0,62.6792603,28.521286,62.6792603,79.9578857v95.5174561H365.7981262z"/>
</g>
</svg>
