<?xml version="1.0" encoding="utf-8"?>
<!-- Generator: Adobe Illustrator 19.1.0, SVG Export Plug-In . SVG Version: 6.00 Build 0)  -->
<!DOCTYPE svg PUBLIC "-//W3C//DTD SVG 1.0//EN" "http://www.w3.org/TR/2001/REC-SVG-20010904/DTD/svg10.dtd">
<svg version="1.0" id="Icons_3_" xmlns="http://www.w3.org/2000/svg" xmlns:xlink="http://www.w3.org/1999/xlink" x="0px" y="0px"
	 width="465px" height="465px" viewBox="0 0 465 465" style="enable-background:new 0 0 465 465;" xml:space="preserve">
<g id="Error">
</g>
<g id="View">
</g>
<g id="Video">
</g>
<g id="User_Personal">
</g>
<g id="Upload">
</g>
<g id="Travel">
</g>
<g id="Transfers">
</g>
<g id="Tools">
</g>
<g id="Clock">
</g>
<g id="Fast_Track">
</g>
<g id="Camera">
</g>
<g id="Tablet">
</g>
<g id="Switch">
</g>
<g id="Survey">
</g>
<g id="Minimize">
</g>
<g id="Stock_Up">
</g>
<g id="Stock_Down">
</g>
<g id="Sound">
</g>
<g id="Shopping_Cart">
</g>
<g id="Share">
</g>
<g id="Settings">
</g>
<g id="Secure_Key_Passcode">
</g>
<g id="Search">
</g>
<g id="Script">
</g>
<g id="Staff_Channels">
	<g id="Signature">
	</g>
	<g id="Shortcuts">
	</g>
	<g id="Microphone">
	</g>
	<g id="Dial">
	</g>
</g>
<g id="Social_Icons">
	<g id="Youtube">
	</g>
	<g id="Youtube_Solid">
	</g>
	<g id="Weibo">
	</g>
	<g id="Weibo_Solid">
	</g>
	<g id="Vimeo">
	</g>
	<g id="Vimeo_Solid">
	</g>
	<g id="Twitter">
	</g>
	<g id="Twitter_Solid">
	</g>
	<g id="LinkedIn">
	</g>
	<g id="LinkedIn_Solid">
	</g>
	<g id="GooglePlus">
	</g>
	<g id="GooglePlus_Solid">
	</g>
	<g id="Facebook">
	</g>
	<g id="Facebook_Solid">
	</g>
</g>
<g>
	<path d="M68.8199997,73.8199997v327.3599854h327.3599854V73.8199997H68.8199997z M148.0377045,128.3800049
		c14.9460297,0,23.9143372,10.8335724,24.282608,24.6575623c0,13.8208618-9.3365784,24.6544342-24.6542969,24.6544342h-0.3751068
		c-14.5675201,0-23.9109192-11.2086182-23.9109192-24.6544342
		C123.3799973,139.2135773,133.0950928,128.3800049,148.0377045,128.3800049z M175.3108978,341.7164612h-49.3188324V193.7598419
		h49.3188324V341.7164612z M355.0213013,341.7164612h-48.572052v-77.3423157
		c0-19.4268494-5.6026306-32.5007324-23.1573181-32.5007324c-13.4524536,0-21.2988586,8.9649963-25.0362244,17.554718
		c-1.1184998,2.9906158-1.4970093,7.4712524-1.4970093,11.5838928v80.7011108H207.068222c0,0,0.7467957-134.8758698,0-148.3250122
		h50.0690155v20.5486603c6.3460083-9.7150879,17.9298096-23.9143372,43.7093811-23.9143372
		c31.7539062,0,54.1746826,24.6544495,54.1746826,69.1205597V341.7164612z"/>
</g>
</svg>
