<?xml version="1.0" encoding="utf-8"?>
<!-- Generator: Adobe Illustrator 19.1.0, SVG Export Plug-In . SVG Version: 6.00 Build 0)  -->
<!DOCTYPE svg PUBLIC "-//W3C//DTD SVG 1.1//EN" "http://www.w3.org/Graphics/SVG/1.1/DTD/svg11.dtd">
<svg version="1.1" id="ic" xmlns="http://www.w3.org/2000/svg" xmlns:xlink="http://www.w3.org/1999/xlink" x="0px" y="0px"
	 width="465px" height="465px" viewBox="0 0 465 465" enable-background="new 0 0 465 465" xml:space="preserve">
<g>
	<path d="M340.5287781,180.0278473c0,15.8361816-4.32724,30.0318909-9.7321472,43.9549561v0.2759705
		c-1.8925476,4.63797-4.8694153,8.4604797-7.0313721,12.8320465l-91.12883,164.0891724l-91.1253967-164.0891724
		c-2.4348145-4.3682404-4.8695221-8.7364655-7.0314636-12.8320465v-0.2759705
		c-6.4858475-13.3773499-10.0083466-28.1187744-10.0083466-43.9549561c0-58.699707,48.4049835-106.2078476,108.1652069-106.2078476
		C292.1204834,73.8199997,340.5287781,121.3281403,340.5287781,180.0278473z M277.5256653,180.0278473
		c0-24.5759735-20.0133362-43.9582825-44.8892365-43.9582825c-24.879425,0-44.8824768,19.3860474-44.8824768,43.9582825
		c0,24.2962494,20.0031586,43.9549561,44.8824768,43.9549561
		C257.5123291,223.9828033,277.5256653,204.3240967,277.5256653,180.0278473z"/>
</g>
</svg>
