<?xml version="1.0" encoding="utf-8"?>
<!-- Generator: Adobe Illustrator 19.1.0, SVG Export Plug-In . SVG Version: 6.00 Build 0)  -->
<!DOCTYPE svg PUBLIC "-//W3C//DTD SVG 1.0//EN" "http://www.w3.org/TR/2001/REC-SVG-20010904/DTD/svg10.dtd">
<svg version="1.0" id="Icons_3_" xmlns="http://www.w3.org/2000/svg" xmlns:xlink="http://www.w3.org/1999/xlink" x="0px" y="0px"
	 width="465px" height="465px" viewBox="0 0 465 465" style="enable-background:new 0 0 465 465;" xml:space="preserve">
<g id="Error">
</g>
<g id="View">
</g>
<g id="Video">
</g>
<g id="User_Personal">
</g>
<g id="Upload">
</g>
<g id="Travel">
</g>
<g id="Transfers">
</g>
<g id="Tools">
</g>
<g id="Clock">
</g>
<g id="Fast_Track">
</g>
<g id="Camera">
</g>
<g id="Tablet">
</g>
<g id="Switch">
</g>
<g id="Survey">
</g>
<g id="Minimize">
</g>
<g id="Stock_Up">
</g>
<g id="Stock_Down">
</g>
<g id="Sound">
</g>
<g id="Shopping_Cart">
</g>
<g id="Share">
</g>
<g id="Settings">
</g>
<g id="Secure_Key_Passcode">
</g>
<g id="Search">
</g>
<g id="Script">
</g>
<g id="Staff_Channels">
	<g id="Signature">
	</g>
	<g id="Shortcuts">
	</g>
	<g id="Microphone">
	</g>
	<g id="Dial">
	</g>
</g>
<g id="Social_Icons">
	<g id="Youtube">
	</g>
	<g id="Youtube_Solid">
	</g>
	<g id="Weibo">
	</g>
	<g id="Weibo_Solid">
	</g>
	<g id="Vimeo">
	</g>
	<g id="Vimeo_Solid">
	</g>
	<g id="Twitter">
	</g>
	<g id="Twitter_Solid">
	</g>
	<g id="LinkedIn">
	</g>
	<g id="LinkedIn_Solid">
	</g>
	<g id="GooglePlus">
	</g>
	<g id="GooglePlus_Solid">
	</g>
	<g id="Facebook">
	</g>
	<g id="Facebook_Solid">
	</g>
</g>
<g>
	<path d="M287.6023254,373.3901367h-41.554184v-40.6036682c45.6986847-6.5843811,80.9340057-45.9871216,80.9340057-93.4811096
		c0-7.3382416-5.9491577-13.2874298-13.2876282-13.2874298c-7.3384399,0-13.2876282,5.9491882-13.2876282,13.2874298
		c0,37.4350586-30.4541931,67.8902893-67.8880157,67.8902893s-67.8890533-30.4552307-67.8890533-67.8902893
		c0-7.3382416-5.9494019-13.2874298-13.2878418-13.2874298c-7.3382416,0-13.2876434,5.9491882-13.2876434,13.2874298
		c0,47.493988,35.2353516,86.8967285,80.935257,93.4811096v40.6036682h-40.3461761
		c-7.4712372,0-13.5292816,6.0578003-13.5292816,13.5305176c0,7.4714355,6.0580444,13.5292664,13.5292816,13.5292664h108.9589081
		c7.4712219,0,13.5292664-6.0578308,13.5292664-13.5292664C301.1315918,379.447937,295.0735474,373.3901367,287.6023254,373.3901367
		"/>
	<path d="M232.5188751,291.9743042c29.8876495,0,54.1171112-24.2296753,54.1171112-54.1171112V128.6551819
		c0-29.8874435-24.2294617-54.1158447-54.1171112-54.1158447s-54.1170959,24.2284012-54.1170959,54.1158447V237.857193
		C178.4017792,267.7446289,202.6312103,291.9743042,232.5188751,291.9743042"/>
</g>
</svg>
