<?xml version="1.0" encoding="utf-8"?>
<!-- Generator: Adobe Illustrator 19.1.0, SVG Export Plug-In . SVG Version: 6.00 Build 0)  -->
<!DOCTYPE svg PUBLIC "-//W3C//DTD SVG 1.1//EN" "http://www.w3.org/Graphics/SVG/1.1/DTD/svg11.dtd">
<svg version="1.1" id="ic" xmlns="http://www.w3.org/2000/svg" xmlns:xlink="http://www.w3.org/1999/xlink" x="0px" y="0px"
	 width="465px" height="465px" viewBox="0 0 465 465" enable-background="new 0 0 465 465" xml:space="preserve">
<g>
	<path d="M164.7399902,262.8679199h65.3902435c11.8563232,0,23.3717346,3.3825378,34.553299,10.1584167
		c10.8473206,6.7754517,20.3272095,15.5801697,28.4634399,26.0828247
		c7.4577026,10.5030823,13.888916,22.696991,18.9697876,35.5731506c5.0775452,12.8728333,7.1130371,25.7523193,7.1130371,37.9466553
		v27.781189H75.6399994v-27.781189c0-16.2624512,3.7238617-33.1962891,11.8600769-50.140564
		c7.7915497-16.9409485,18.9697876-31.1707764,32.5211258-42.686615
		C134.2510376,268.620636,148.8184662,262.8679199,164.7399902,262.8679199z"/>
	<path d="M194.8980103,245.9236603c18.6288757,0,34.2157135-6.4382935,47.4294739-19.6520386
		c12.8728333-12.8761749,19.6520386-28.7972717,19.6520386-47.0952148c0-18.6322021-6.4416199-34.5570526-19.6520386-47.4298859
		c-12.8761749-12.8728409-28.8005981-19.3073807-47.4294739-19.3073807c-18.6355438,0-34.2227936,6.4345398-47.0956268,19.3073807
		s-19.3140411,28.7976837-19.3140411,47.4298859c0,18.2946167,6.4378662,34.2157135,19.6516266,47.0952148
		C160.6752167,239.4853668,176.6000671,245.9236603,194.8980103,245.9236603z"/>
	<path d="M389.3599854,335.3612366c0-12.1943359-2.369751-25.073822-7.1134338-37.9499817
		c-5.0808716-12.8695068-11.5220947-25.0704956-18.9731445-35.5731506
		c-7.7919617-10.502655-17.2714539-19.3073883-28.4563293-26.0865936
		c-10.8439941-6.7721252-22.7003174-10.1584015-34.5603943-10.1584015h-35.5731506
		c-2.7110901,4.0647736-5.7560425,7.7919617-9.4798889,11.1815796c-5.0808716,5.0775299-10.8468933,9.4798889-16.6029358,13.2104187
		h1.3536682c12.5352478,0,25.0700684,3.7305145,36.9234924,10.8435669
		c11.8634033,7.1167908,21.6842346,16.6000061,30.4885254,27.777832
		c8.1366272,11.1815796,14.9087524,24.3953247,20.3305359,37.9429321
		c4.7466125,12.1943054,7.1168213,24.7362366,7.4577332,36.5896301h54.2053223V335.3612366z"/>
	<path d="M279.2509766,179.5173187c0,10.1584015-1.6912842,19.6516266-5.0775452,28.4596863
		c14.5640869-2.0321808,26.7688293-8.1328888,37.9433289-18.9698029
		c12.8728333-12.8761597,19.655365-28.7972565,19.655365-47.0952148c0-18.6326141-6.4416199-34.557045-19.655365-47.4298782
		c-12.8695068-12.8728333-28.7906189-19.3107071-47.4261475-19.3107071c-18.6359406,0-34.2194672,6.4378738-47.0956268,19.3107071
		c-1.6950073,1.6945953-3.0520172,3.3896027-4.4056854,4.7466125c15.9210968,2.7110977,30.1546783,10.1617279,42.0110168,22.3627167
		C271.462738,137.1683044,279.2509766,156.820343,279.2509766,179.5173187z"/>
</g>
</svg>
