<?xml version="1.0" encoding="utf-8"?>
<!-- Generator: Adobe Illustrator 19.1.0, SVG Export Plug-In . SVG Version: 6.00 Build 0)  -->
<!DOCTYPE svg PUBLIC "-//W3C//DTD SVG 1.0//EN" "http://www.w3.org/TR/2001/REC-SVG-20010904/DTD/svg10.dtd">
<svg version="1.0" id="Icons_3_" xmlns="http://www.w3.org/2000/svg" xmlns:xlink="http://www.w3.org/1999/xlink" x="0px" y="0px"
	 width="465px" height="465px" viewBox="0 0 465 465" style="enable-background:new 0 0 465 465;" xml:space="preserve">
<g id="Error">
</g>
<g id="View">
</g>
<g id="Video">
</g>
<g id="User_Personal">
</g>
<g id="Upload">
</g>
<g id="Travel">
</g>
<g id="Transfers">
</g>
<g id="Tools">
</g>
<g id="Clock">
</g>
<g id="Fast_Track">
</g>
<g id="Camera">
</g>
<g id="Tablet">
</g>
<g id="Switch">
</g>
<g id="Survey">
</g>
<g id="Minimize">
</g>
<g id="Stock_Up">
</g>
<g id="Stock_Down">
</g>
<g id="Sound">
</g>
<g id="Shopping_Cart">
</g>
<g id="Share">
</g>
<g id="Settings">
</g>
<g id="Secure_Key_Passcode">
</g>
<g id="Search">
</g>
<g id="Script">
</g>
<g id="Staff_Channels">
	<g id="Signature">
	</g>
	<g id="Shortcuts">
	</g>
	<g id="Microphone">
	</g>
	<g id="Dial">
	</g>
</g>
<g id="Social_Icons">
	<g id="Youtube">
	</g>
	<g id="Youtube_Solid">
	</g>
	<g id="Weibo">
	</g>
	<g id="Weibo_Solid">
	</g>
	<g id="Vimeo">
	</g>
	<g id="Vimeo_Solid">
	</g>
	<g id="Twitter">
	</g>
	<g id="Twitter_Solid">
	</g>
	<g id="LinkedIn">
	</g>
	<g id="LinkedIn_Solid">
	</g>
	<g id="GooglePlus">
	</g>
	<g id="GooglePlus_Solid">
	</g>
	<g id="Facebook">
	</g>
	<g id="Facebook_Solid">
	</g>
</g>
<g>
	<path d="M75.6306152,353.4400024c0,5.6494751,4.5805206,10.230011,10.2299957,10.230011h225.0600433
		c5.6494751,0,10.230011-4.5805359,10.230011-10.230011V189.7599945c0-5.6494751-4.5805359-10.2299957-10.230011-10.2299957
		H85.860611c-5.6494751,0-10.2299957,4.5805206-10.2299957,10.2299957V353.4400024z M96.0906677,205.1049957
		c0-2.8234863,2.2915039-5.1149902,5.1149979-5.1149902h194.3699951c2.8235168,0,5.1150208,2.2915039,5.1150208,5.1149902
		v15.7745819H96.0906143L96.0906677,205.1049957z M295.5756531,343.2099915H101.2056122
		c-2.8234406,0-5.1149979-2.2915039-5.1149979-5.1149902v-76.2954102h204.6000671v76.2954102
		C300.6906738,340.9184875,298.3991699,343.2099915,295.5756531,343.2099915z"/>
	<path d="M345.0351257,145.4299927H119.9751282c-5.6494751,0-10.2299957,4.5805359-10.2299957,10.230011v10.2299957h214.8734894
		c5.6494751,0,10.230011,4.5805206,10.230011,10.2299957v153.4500122h10.1864929
		c5.6494751,0,10.230011-4.5805359,10.230011-10.230011V155.6600037
		C355.2651367,150.0105286,350.6846008,145.4299927,345.0351257,145.4299927z"/>
	<path d="M379.1351318,111.3300018H154.0751343c-5.6494751,0-10.230011,4.5805206-10.230011,10.2299957v10.2299957h214.8735046
		c5.6494751,0,10.230011,4.5805359,10.230011,10.230011v153.4499969h10.1864929
		c5.6494751,0,10.230011-4.5805359,10.230011-10.230011V121.5599976
		C389.3651428,115.9105225,384.7846069,111.3300018,379.1351318,111.3300018z"/>
</g>
</svg>
