<?xml version="1.0" encoding="utf-8"?>
<!-- Generator: Adobe Illustrator 19.1.0, SVG Export Plug-In . SVG Version: 6.00 Build 0)  -->
<!DOCTYPE svg PUBLIC "-//W3C//DTD SVG 1.1//EN" "http://www.w3.org/Graphics/SVG/1.1/DTD/svg11.dtd">
<svg version="1.1" id="ic" xmlns="http://www.w3.org/2000/svg" xmlns:xlink="http://www.w3.org/1999/xlink" x="0px" y="0px"
	 width="465px" height="465px" viewBox="0 0 465 465" enable-background="new 0 0 465 465" xml:space="preserve">
<g>
	<path d="M355.2736206,237.5l-0.0136108-40.8721313h-95.4254456v-54.4542694h40.9199829l-67.9715118-68.3535995
		l-68.4284821,68.6466446h40.9199982v54.157486H68.8199997v163.7041473h40.9199982v40.8517151h286.4400024V237.5H355.2736206z
		 M89.3141098,339.834137V217.0503998h245.5063477V237.5H109.7399979v102.334137H89.3141098z M375.7541199,347.5237122
		c-2.1960754-0.569458-4.4841614-0.903717-6.854126-0.903717c-15.0653687,0-27.2799988,12.2147217-27.2799988,27.2799988
		c0,2.3630981,0.334198,4.6446228,0.8968506,6.8337402h-179.113678c0.5626526-2.1891174,0.8968353-4.4706421,0.8968353-6.8337402
		c0-15.0652771-12.2146301-27.2799988-27.2799988-27.2799988c-2.3460999,0-4.6137238,0.3309326-6.7859039,0.8866272v-56.2820435
		c2.1755829,0.5556946,4.4398041,0.8866272,6.7859039,0.8866272c15.0653687,0,27.2799988-12.2147217,27.2799988-27.2799988
		c0-2.3735352-0.3341827-4.6617126-0.903656-6.8574829h179.1136627c-0.5592346,2.1787109-0.8900146,4.4531555-0.8900146,6.8062744
		c0,15.0652771,12.2146301,27.2799988,27.2799988,27.2799988c2.3699646,0,4.6580505-0.334259,6.854126-0.9036865V347.5237122z"/>
	<circle cx="246.1399994" cy="319.3399963" r="40.9199982"/>
</g>
</svg>
