<?xml version="1.0" encoding="utf-8"?>
<!-- Generator: Adobe Illustrator 19.1.0, SVG Export Plug-In . SVG Version: 6.00 Build 0)  -->
<!DOCTYPE svg PUBLIC "-//W3C//DTD SVG 1.1//EN" "http://www.w3.org/Graphics/SVG/1.1/DTD/svg11.dtd">
<svg version="1.1" id="ic" xmlns="http://www.w3.org/2000/svg" xmlns:xlink="http://www.w3.org/1999/xlink" x="0px" y="0px"
	 width="465px" height="465px" viewBox="0 0 465 465" enable-background="new 0 0 465 465" xml:space="preserve">
<g>
	<path d="M391.0175171,203.2455139c-6.4926147,6.5577545-17.0706177,6.9020081-30.3865662,2.4143066l-75.446228,81.7480164
		c13.315918,27.5971985,15.699646,51.3922424,3.7611084,63.4671326
		c-17.0704041,17.2443848-57.3595581,4.139679-97.6385193-28.6303711L68.8201675,401.1791077l81.178566-119.2887878
		c-32.0915451-41.0461426-44.3812027-82.7774353-27.3141327-100.0251465
		c11.9485321-12.0715332,34.8261719-10.0018921,61.7958374,3.7983704l81.2432861-74.8526688
		c-4.4398193-13.793602-4.4398193-25.5171432,1.7118835-31.7335663
		c14.3391113-14.4858398,54.276947,2.0663147,88.4179382,36.2212601
		C389.6500854,149.7869415,405.0119629,189.1043396,391.0175171,203.2455139z"/>
</g>
</svg>
