<?xml version="1.0" encoding="utf-8"?>
<!-- Generator: Adobe Illustrator 19.1.0, SVG Export Plug-In . SVG Version: 6.00 Build 0)  -->
<!DOCTYPE svg PUBLIC "-//W3C//DTD SVG 1.1//EN" "http://www.w3.org/Graphics/SVG/1.1/DTD/svg11.dtd">
<svg version="1.1" id="ic" xmlns="http://www.w3.org/2000/svg" xmlns:xlink="http://www.w3.org/1999/xlink" x="0px" y="0px"
	 width="465px" height="465px" viewBox="0 0 465 465" enable-background="new 0 0 465 465" xml:space="preserve">
<g>
	<path d="M396.1827393,217.1104126l-69.652771,144.4954224c-4.9339294,10.410675-15.8973694,19.1845703-31.7876587,19.1845703
		H90.7013397c-17.5374374,0-22.1071396-10.4177246-21.8752823-19.1845703l69.5095596-144.4954224H396.1827393z
		 M232.5027313,149.4798584h-20.0200195v-27.8494415c0-3.8362503-3.2838745-7.1267776-7.3927765-7.1267776h-46.8296356
		c-3.8362427,0-6.854126,3.2905273-6.854126,7.1267776v27.8494415h-20.2893372v-27.8494415
		c0-16.7190704,13.7011871-27.4198608,30.4136047-27.4198608h40.2822876c16.9817352,0,30.6900024,10.7007904,30.6900024,27.4198608
		V149.4798584z M316.7741089,230.8357544h-20.2860107v36.7087097c0,3.8362427-3.0178833,7.1234436-6.854126,7.1234436h-55.0545197
		c-4.108902,0-7.3961029-3.2872009-7.3961029-7.1234436v-36.7087097h-20.0204315v33.4348145
		c0,16.9821472,13.7049255,30.6900024,30.6900024,30.6900024h48.51091c16.7090759,0,30.4169312-13.7078552,30.4169312-30.6900024
		v-33.4348145H316.7741089z"/>
	<polygon points="130.4279175,201.7654266 316.6820984,201.7654266 316.6820984,164.2554169 71.1621094,164.2554169 
		71.1621094,324.4163513 	"/>
</g>
</svg>
