<?xml version="1.0" encoding="utf-8"?>
<!-- Generator: Adobe Illustrator 19.1.0, SVG Export Plug-In . SVG Version: 6.00 Build 0)  -->
<!DOCTYPE svg PUBLIC "-//W3C//DTD SVG 1.1//EN" "http://www.w3.org/Graphics/SVG/1.1/DTD/svg11.dtd">
<svg version="1.1" id="ic" xmlns="http://www.w3.org/2000/svg" xmlns:xlink="http://www.w3.org/1999/xlink" x="0px" y="0px"
	 width="465px" height="465px" viewBox="0 0 465 465" enable-background="new 0 0 465 465" xml:space="preserve">
<g>
	<path d="M242.320816,93.7584229V73.8199997H222.679184v19.9384232H68.8199997v229.138092h327.3599854V93.7584229H242.320816z
		 M376.5317078,303.2582092H88.4616318V113.403389h288.0733948v189.8548279H376.5317078z"/>
	<rect x="222.679184" y="322.9169312" width="19.641634" height="52.3812981"/>
	<polygon points="131.0117035,401.1799927 157.2002716,401.1799927 222.6758575,322.9169312 196.4868774,322.9169312 	"/>
	<polygon points="242.3241425,322.9169312 307.7997131,401.1799927 333.9882812,401.1799927 268.5131226,322.9169312 	"/>
	<circle cx="127.7378235" cy="155.9532623" r="13.094492"/>
	<rect x="160.4741516" y="142.8658447" width="189.8856354" height="26.1885662"/>
	<circle cx="127.7378235" cy="208.3343506" r="13.0942831"/>
	<rect x="160.4741516" y="195.2433929" width="189.8856354" height="26.185236"/>
	<circle cx="127.7378235" cy="260.71521" r="13.0942831"/>
	<rect x="160.4741516" y="247.6309357" width="189.8856354" height="26.1889839"/>
</g>
</svg>
