<?xml version="1.0" encoding="utf-8"?>
<!-- Generator: Adobe Illustrator 19.1.0, SVG Export Plug-In . SVG Version: 6.00 Build 0)  -->
<!DOCTYPE svg PUBLIC "-//W3C//DTD SVG 1.0//EN" "http://www.w3.org/TR/2001/REC-SVG-20010904/DTD/svg10.dtd">
<svg version="1.0" id="Icons_3_" xmlns="http://www.w3.org/2000/svg" xmlns:xlink="http://www.w3.org/1999/xlink" x="0px" y="0px"
	 width="465px" height="465px" viewBox="0 0 465 465" style="enable-background:new 0 0 465 465;" xml:space="preserve">
<g id="Error">
</g>
<g id="View">
</g>
<g id="Video">
</g>
<g id="User_Personal">
</g>
<g id="Upload">
</g>
<g id="Travel">
</g>
<g id="Transfers">
</g>
<g id="Tools">
</g>
<g id="Clock">
</g>
<g id="Fast_Track">
</g>
<g id="Camera">
</g>
<g id="Tablet">
</g>
<g id="Switch">
</g>
<g id="Survey">
</g>
<g id="Minimize">
</g>
<g id="Stock_Up">
</g>
<g id="Stock_Down">
</g>
<g id="Sound">
</g>
<g id="Shopping_Cart">
</g>
<g id="Share">
</g>
<g id="Settings">
</g>
<g id="Secure_Key_Passcode">
</g>
<g id="Search">
</g>
<g id="Script">
</g>
<g id="Staff_Channels">
	<g id="Signature">
	</g>
	<g id="Shortcuts">
	</g>
	<g id="Microphone">
	</g>
	<g id="Dial">
	</g>
</g>
<g id="Social_Icons">
	<g id="Youtube">
	</g>
	<g id="Youtube_Solid">
	</g>
	<g id="Weibo">
	</g>
	<g id="Weibo_Solid">
	</g>
	<g id="Vimeo">
	</g>
	<g id="Vimeo_Solid">
	</g>
	<g id="Twitter">
	</g>
	<g id="Twitter_Solid">
	</g>
	<g id="LinkedIn">
	</g>
	<g id="LinkedIn_Solid">
	</g>
	<g id="GooglePlus">
	</g>
	<g id="GooglePlus_Solid">
	</g>
	<g id="Facebook">
	</g>
	<g id="Facebook_Solid">
	</g>
</g>
<g>
	<polygon points="314.328186,73.8199997 150.6481781,73.8199997 150.6481781,230.6799927 177.9554443,230.6799927 
		177.9554443,101.1274719 300.7019043,101.1274719 300.7019043,169.3374634 368.9154358,169.3374634 368.9154358,373.9274597 
		290.4581909,373.9274597 290.4581909,401.1799927 396.1681824,401.1799927 396.1681824,155.6600037 	"/>
	<path d="M68.8443909,392.6291809c0,4.7070618,3.8164825,8.5237732,8.5235443,8.5237732h187.5167084
		c4.7070618,0,8.5235291-3.8167114,8.5235291-8.5237732V256.2533264c0-4.7070618-3.8164673-8.5233307-8.5235291-8.5233307
		H77.3679352c-4.7070618,0-8.5235443,3.8162689-8.5235443,8.5233307V392.6291809z M85.8914795,269.0387573
		c0-2.3526917,1.9091797-4.2616577,4.2616653-4.2616577h161.9462891c2.3524933,0,4.2618713,1.9089661,4.2618713,4.2616577
		v13.1429749H85.8914795V269.0387573z M252.0994263,384.1058655H90.1531448c-2.3524857,0-4.2616653-1.9093933-4.2616653-4.2616882
		v-63.5682678h170.4698181v63.5682678C256.3612976,382.1964722,254.4519196,384.1058655,252.0994263,384.1058655z"/>
</g>
</svg>
