<?xml version="1.0" encoding="utf-8"?>
<!-- Generator: Adobe Illustrator 19.1.0, SVG Export Plug-In . SVG Version: 6.00 Build 0)  -->
<!DOCTYPE svg PUBLIC "-//W3C//DTD SVG 1.1//EN" "http://www.w3.org/Graphics/SVG/1.1/DTD/svg11.dtd">
<svg version="1.1" id="ic" xmlns="http://www.w3.org/2000/svg" xmlns:xlink="http://www.w3.org/1999/xlink" x="0px" y="0px"
	 width="465px" height="465px" viewBox="0 0 465 465" enable-background="new 0 0 465 465" xml:space="preserve">
<g>
	<path d="M187.6469727,364.0568237H68.9790192v-84.9086609c0-34.44133,3.0690765-61.3799896,9.2070389-81.4990845
		c6.1379547-19.7781677,17.3909149-37.8509064,33.7589798-53.5372467
		c16.3679504-15.6859131,37.1689758-28.3027496,62.4029541-37.168663l23.1879578,49.1036606
		c-23.5289764,7.8431702-40.5789795,18.7550049-50.8089752,33.0772552
		c-10.2299957,13.9809113-15.6860199,32.7359161-16.3679657,56.2649994h57.6289825v118.6677399H187.6469727z
		 M386.1090393,364.0568237H267.4410706v-84.9086609c0-34.7822418,3.0689697-61.7213287,9.2070312-81.4990845
		c6.13797-19.7781677,17.3910217-37.5099945,33.7590027-53.1959076
		c16.3679504-15.6863403,37.1689758-28.3031693,62.4029541-37.1690903l23.1879578,49.1040878
		c-23.5289917,7.8427429-40.5789795,18.7550049-50.8089905,33.076828
		c-10.230011,13.9809265-15.6860046,32.7359161-16.3679504,56.2649994h57.6289673v118.326828H386.1090393z"/>
</g>
</svg>
