<?xml version="1.0" encoding="utf-8"?>
<!-- Generator: Adobe Illustrator 19.1.0, SVG Export Plug-In . SVG Version: 6.00 Build 0)  -->
<!DOCTYPE svg PUBLIC "-//W3C//DTD SVG 1.1//EN" "http://www.w3.org/Graphics/SVG/1.1/DTD/svg11.dtd">
<svg version="1.1" id="ic" xmlns="http://www.w3.org/2000/svg" xmlns:xlink="http://www.w3.org/1999/xlink" x="0px" y="0px"
	 width="465px" height="465px" viewBox="0 0 465 465" enable-background="new 0 0 465 465" xml:space="preserve">
<g>
	<path d="M277.3300476,106.9431686h118.6679382v84.9086685c0,34.44133-3.0690613,61.3799896-9.2070312,81.4990845
		c-6.13797,19.7781677-17.3908997,37.8509216-33.7589722,53.5372314
		c-16.3679504,15.6859436-37.1689758,28.3027649-62.4029541,37.1686707l-23.1879578-49.1036682
		c23.5289612-7.8431702,40.5789795-18.7549744,50.80896-33.07724c10.230011-13.9809265,15.6860352-32.7359161,16.367981-56.2649994
		h-57.6289978V106.9431686H277.3300476z M78.8679962,106.9431686H197.535965v84.9086685
		c0,34.7822418-3.068985,61.7213287-9.2070465,81.4990845c-6.1379547,19.7781677-17.3910217,37.5100098-33.7589874,53.1959229
		c-16.3679504,15.6863098-37.1689758,28.3031616-62.4029541,37.1690674l-23.1879578-49.1040649
		c23.5289841-7.8427734,40.5789795-18.7550049,50.8089828-33.0768433
		c10.2300034-13.9809265,15.6860123-32.7359161,16.3679581-56.2649994H78.5269775V106.9431686H78.8679962z"/>
</g>
</svg>
