<?xml version="1.0" encoding="utf-8"?>
<!-- Generator: Adobe Illustrator 19.1.0, SVG Export Plug-In . SVG Version: 6.00 Build 0)  -->
<!DOCTYPE svg PUBLIC "-//W3C//DTD SVG 1.1//EN" "http://www.w3.org/Graphics/SVG/1.1/DTD/svg11.dtd">
<svg version="1.1" id="ic" xmlns="http://www.w3.org/2000/svg" xmlns:xlink="http://www.w3.org/1999/xlink" x="0px" y="0px"
	 width="465px" height="465px" viewBox="0 0 465 465" enable-background="new 0 0 465 465" xml:space="preserve">
<g>
	<polygon points="337.1639709,108.9431686 361.7160339,134.1768341 130.1769867,367.420929 105.2840042,342.1868286 	"/>
	<path d="M195.6489716,166.2309113c0,19.0959167-15.3449707,34.7822571-34.4409637,34.7822571
		s-34.4409943-15.6863403-34.4409943-34.7822571s15.3450012-34.7818298,34.4409943-34.7818298
		S195.6489716,147.1349945,195.6489716,166.2309113z M161.5490112,100.0768356
		c-36.1460037,0-65.472023,29.667244-65.472023,66.1540756c0,36.4872589,29.3260193,66.1540833,65.472023,66.1540833
		s65.4720154-29.6668243,65.4720154-66.1540833C227.0210266,129.7440796,197.6950073,100.0768356,161.5490112,100.0768356z"/>
	<path d="M339.8919983,308.7690735c0,19.0959167-15.3450012,34.7818298-34.440979,34.7818298
		c-19.0960083,0-34.4410095-15.6859131-34.4410095-34.7818298c0-19.0996399,15.3450012-34.7822266,34.4410095-34.7822266
		C324.5469971,273.9868469,339.8919983,289.6731567,339.8919983,308.7690735z M305.4510193,242.6150055
		c-36.1460266,0-65.4720459,29.6668243-65.4720459,66.154068c0,36.4868469,29.3260193,66.1540833,65.4720459,66.1540833
		c36.149353,0,65.4719849-29.6672363,65.4719849-66.1507568
		C370.9230042,272.2818298,341.5969849,242.6150055,305.4510193,242.6150055z"/>
</g>
</svg>
