<?xml version="1.0" encoding="utf-8"?>
<!-- Generator: Adobe Illustrator 19.1.0, SVG Export Plug-In . SVG Version: 6.00 Build 0)  -->
<!DOCTYPE svg PUBLIC "-//W3C//DTD SVG 1.1//EN" "http://www.w3.org/Graphics/SVG/1.1/DTD/svg11.dtd">
<svg version="1.1" id="ic" xmlns="http://www.w3.org/2000/svg" xmlns:xlink="http://www.w3.org/1999/xlink" x="0px" y="0px"
	 width="465px" height="465px" viewBox="0 0 465 465" enable-background="new 0 0 465 465" xml:space="preserve">
<g>
	<path d="M109.7559891,237.5c0-67.7974701,54.962532-122.7600021,122.7600021-122.7600021
		c33.8852234,0,64.558136,13.7253342,86.7674866,35.9244614l-50.4613037,50.4677582l127.3396912,0.0274658l-0.0272827-127.3396835
		l-47.9275208,47.8969269c-29.6123047-29.5956497-70.5154419-47.8969269-115.6910706-47.8969269
		c-90.3991394,0-163.6799927,73.2808609-163.6799927,163.6799927"/>
	<path d="M355.276001,237.5c0,67.7974854-54.9623108,122.7600098-122.7600098,122.7600098
		c-33.8852081,0-64.558136-13.7253418-86.7674713-35.924469l50.4612885-50.4677429l-127.3396835-0.0274963l0.0239334,127.3396912
		l47.9275284-47.8969116c29.6122971,29.5956421,70.5187759,47.8969116,115.6944046,47.8969116
		c90.3991394,0,163.6799927-73.2808533,163.6799927-163.6799927"/>
</g>
</svg>
