<?xml version="1.0" encoding="utf-8"?>
<!-- Generator: Adobe Illustrator 19.1.0, SVG Export Plug-In . SVG Version: 6.00 Build 0)  -->
<!DOCTYPE svg PUBLIC "-//W3C//DTD SVG 1.1//EN" "http://www.w3.org/Graphics/SVG/1.1/DTD/svg11.dtd">
<svg version="1.1" id="ic" xmlns="http://www.w3.org/2000/svg" xmlns:xlink="http://www.w3.org/1999/xlink" x="0px" y="0px"
	 width="465px" height="465px" viewBox="0 0 465 465" enable-background="new 0 0 465 465" xml:space="preserve">
<g>
	<path d="M191.6290894,182.811142v-78.0720215L68.8690872,227.4991302l122.7600021,122.7599945v-85.096405
		c16.7465363-0.6922302,42.1067505,0.5182495,60.7081451,3.6314392c18.6084747,3.1132202,33.0360565,6.4041748,43.2627106,9.8653564
		l15.0005493,5.186615c13.5003357,5.0771179,25.5920715,11.4200745,36.2893066,19.0309753
		c10.7074585,7.6112976,18.785614,14.3630371,24.2450562,20.2452087c5.4729919,5.885498,10.4142151,12.7467041,14.8301086,20.589447
		c4.4260864,7.8464966,6.9223938,12.801239,7.5020142,14.8779602c0.5865173,2.0733948,1.4594116,4.9613953,2.615387,8.651123
		c0,0,1.9607849-47.8182373-11.8804932-80.8613586c-3.8293762-9.1456604-15.034668-30.2704163-24.9270935-41.4619751
		c-9.8753357-11.1848907-21.4590149-20.9341125-34.7171021-29.2372437
		c-13.2580872-8.3035583-30.7582703-15.5702057-52.5072021-21.8003693
		C250.3083954,187.6497498,218.3872986,183.9637604,191.6290894,182.811142z"/>
</g>
</svg>
