<?xml version="1.0" encoding="utf-8"?>
<!-- Generator: Adobe Illustrator 19.1.0, SVG Export Plug-In . SVG Version: 6.00 Build 0)  -->
<!DOCTYPE svg PUBLIC "-//W3C//DTD SVG 1.1//EN" "http://www.w3.org/Graphics/SVG/1.1/DTD/svg11.dtd">
<svg version="1.1" id="ic" xmlns="http://www.w3.org/2000/svg" xmlns:xlink="http://www.w3.org/1999/xlink" x="0px" y="0px"
	 width="465px" height="465px" viewBox="0 0 465 465" enable-background="new 0 0 465 465" xml:space="preserve">
<g>
	<path d="M68.8199997,80.2990799c0-3.409996,0-6.4790802,0-6.4790802h146.2889709v89.6831741
		c-8.1839752-8.866333-17.3943481-17.0500031-27.9619293-23.8700104
		c-22.5060272-15.6863327-47.3990936-24.8931656-66.4950104-24.8931656c-17.3910141,0-25.9160156,7.5018387-30.3490829,13.640007
		c-16.7089767,24.5518341,9.8890839,61.7209167,45.3530655,86.2731628
		c6.1379547,4.4327545,12.6169434,8.18367,19.0960236,11.2527466h-85.932045V80.2990799z M153.0470428,341.8459167
		l25.2339783,12.9614868l36.8279572-71.6099854v117.9825745H68.8199997c0,0,0-3.0690613,0-6.4790649V251.1399994h128.8979492
		L153.0470428,341.8459167z M209.3120422,209.5381622c-0.6820374,0.3409271-2.3870392,1.363678-7.161026,1.363678
		c-10.2299957,0-28.6406403-5.459259-50.1270447-20.1186676c-31.371933-21.4831696-39.556015-42.9663391-37.8510132-46.7172546
		c0.3410187-0.3409119,2.3870392-1.36409,6.8199997-1.36409c10.2300034,0,28.6440811,5.4563446,50.127037,20.1190948
		C202.4920349,184.9859161,210.6760254,206.1281738,209.3120422,209.5381622z M243.4120483,173.3918304l0.3409119-99.5718307
		h145.6070251c4.0920105,0,6.8200073,0,6.8200073,0v152.085907h-82.8629456
		c28.302948-22.5059204,39.2149963-52.8549957,25.2339783-72.2918243
		c-6.1413879-8.5250092-17.0500183-13.2990875-30.0113831-13.2990875c-15.3450012,0-33.7522278,6.8199921-49.4450073,18.7550049
		C253.6420441,163.5031738,247.8450012,168.2768402,243.4120483,173.3918304z M262.1670532,251.1399994h134.0129395v150.0399933
		c0,0-3.0689697,0-6.8200073,0h-145.947937V276.0331726l30.3489685,33.0768127l20.8078003-18.7549744L262.1670532,251.1399994z
		 M315.7039795,170.6640778c2.383606,3.7509155-2.7313843,20.4600067-22.1650085,34.7818451
		c-10.5743408,7.8431549-23.1879578,12.9581604-32.0539856,12.9581604c-4.092041,0-6.4789581-1.0264893-7.1610107-2.0496674
		c-0.6819305-1.0227509-1.0263824-5.1149902,1.7050171-10.9118347c3.7510071-7.8431549,10.9085999-16.7057495,20.4599915-23.8699951
		c10.5710144-7.8431702,23.1880493-12.6168365,32.394989-12.6168365
		C312.9760132,168.9590759,315.0220337,169.9818268,315.7039795,170.6640778z"/>
</g>
</svg>
