<?xml version="1.0" encoding="utf-8"?>
<!-- Generator: Adobe Illustrator 19.1.0, SVG Export Plug-In . SVG Version: 6.00 Build 0)  -->
<!DOCTYPE svg PUBLIC "-//W3C//DTD SVG 1.1//EN" "http://www.w3.org/Graphics/SVG/1.1/DTD/svg11.dtd">
<svg version="1.1" id="ic" xmlns="http://www.w3.org/2000/svg" xmlns:xlink="http://www.w3.org/1999/xlink" x="0px" y="0px"
	 width="465px" height="465px" viewBox="0 0 465 465" enable-background="new 0 0 465 465" xml:space="preserve">
<g>
	<path d="M369.6991882,101.5469437V73.9222794l-26.2568359,25.2340851v19.4405823l-55.4049988,55.0228806
		c-23.243103-21.3495483-54.3223267-34.3838959-88.3374023-34.3838959
		c-72.2922516,0-130.9440918,58.6518402-130.9440918,130.9407654c0,72.2922363,58.6518326,130.9474182,130.9440918,130.9474182
		c72.2918396,0,130.9440918-58.6551819,130.9440918-130.9440918c0-28.6374207-9.2068481-55.245575-24.8931885-76.7250061
		l-13.6399841,13.2990875c12.2759094,18.0731659,19.4368286,39.9001617,19.4368286,63.4225922
		c0,61.7275696-50.1268311,111.8510742-111.8477478,111.8510742S87.8517838,331.9042664,87.8517838,270.1800232
		c0-61.7209167,50.1272507-111.8477478,111.8481674-111.8477478c28.8609467,0,55.1631622,10.6991272,74.9837952,28.5487518
		l-14.1545105,14.0570984c-16.5163574-14.2960358-37.8084564-23.1690216-61.5115356-23.1690216
		c-51.490921,0-93.0927505,41.6018372-93.0927505,93.0931702c0,51.490509,41.6018295,93.0927429,93.0927505,93.0927429
		c51.491333,0,93.0931702-41.5985107,93.0931702-93.0894165c0-18.0764923-5.1149902-35.1231689-14.3218384-49.4450073
		l-16.3681641,16.3677521c5.1149902,9.8890839,8.184082,21.1455841,8.184082,33.0805817
		c0,38.8736572-31.7164917,70.5834961-70.5872498,70.5834961c-38.8736725,0-70.5868378-31.7098389-70.5868378-70.5834961
		c0-38.8740845,31.7131653-70.5905762,70.5868378-70.5905762c17.2439728,0,33.1992188,6.1935272,45.5346527,16.5259247
		l-14.3859406,14.2868652c-8.4708862-6.6426697-19.0139008-10.6970367-30.4664612-10.6970367
		c-27.2799988,0-49.7859192,22.1649933-49.7859192,49.7859192c0,27.2799988,22.1650085,49.792572,49.7892456,49.792572
		c27.2799988,0,49.7859192-22.1650085,49.7859192-49.792572c0-6.1344299-1.0231628-11.9349976-3.0686646-17.3909149
		l-32.0474243,32.0536652l-9.8890839-9.8886719l1.6450653-1.64505l146.5201111-145.508606h17.0499878l26.598175-26.2535019
		H369.6991882z"/>
</g>
</svg>
