<?xml version="1.0" encoding="utf-8"?>
<!-- Generator: Adobe Illustrator 19.1.0, SVG Export Plug-In . SVG Version: 6.00 Build 0)  -->
<!DOCTYPE svg PUBLIC "-//W3C//DTD SVG 1.1//EN" "http://www.w3.org/Graphics/SVG/1.1/DTD/svg11.dtd">
<svg version="1.1" id="ic" xmlns="http://www.w3.org/2000/svg" xmlns:xlink="http://www.w3.org/1999/xlink" x="0px" y="0px"
	 width="465px" height="465px" viewBox="0 0 465 465" enable-background="new 0 0 465 465" xml:space="preserve">
<g>
	<path d="M143.1581726,136.7380829c-41.2613373,0-74.3381729-11.2531662-74.3381729-24.8931732v26.598175
		c0,13.6399994,33.4181671,24.892746,74.3381729,24.892746s75.701828-11.2527466,75.701828-24.892746v-26.598175
		C218.8600006,125.4815826,184.4190826,136.7380829,143.1581726,136.7380829z"/>
	<path d="M143.1581726,176.2906647c-41.2613373,0-74.3381729-11.2531586-74.3381729-24.893158v26.5981598
		c0,13.6399994,33.4181671,24.8960876,74.3381729,24.8960876s75.701828-11.2560883,75.701828-24.8960876v-26.5981598
		C218.8600006,165.0375061,184.4190826,176.2906647,143.1581726,176.2906647z"/>
	<path d="M143.1581726,215.8465881c-41.2613373,0-74.3381729-11.2531738-74.3381729-24.8931732v26.598175
		c0,13.6399994,33.4181671,24.892746,74.3381729,24.892746s75.701828-11.2527466,75.701828-24.892746v-26.598175
		C218.8600006,204.6004944,184.4190826,215.8465881,143.1581726,215.8465881z"/>
	<path d="M143.1581726,255.7467499c-41.2613373,0-74.3381729-11.2560883-74.3381729-24.8960876v26.6010895
		c0,13.6399841,33.4181671,24.8964844,74.3381729,24.8964844s75.701828-11.2565002,75.701828-24.8964844v-26.6010895
		C218.8600006,244.4906616,184.4190826,255.7467499,143.1581726,255.7467499z"/>
	<path d="M143.1581726,295.3063965c-40.9200058,0-74.3381729-11.2564697-74.3381729-24.8964844v26.6015015
		c0,13.6399841,33.4181671,24.8894043,74.3381729,24.8894043s75.701828-11.2494202,75.701828-24.8894043v-26.6015015
		C218.8600006,284.0499268,184.4190826,295.3063965,143.1581726,295.3063965z"/>
	<path d="M143.1581726,334.8556519c-41.2613373,0-74.3381729-11.2498169-74.3381729-24.8898315v26.5948486
		c0,13.6399841,33.4181671,24.8960876,74.3381729,24.8960876s75.701828-11.2561035,75.701828-24.8960876v-26.5948486
		C218.8600006,323.605835,184.4190826,334.8556519,143.1581726,334.8556519z"/>
	<path d="M143.1581726,374.7558289c-40.9200058-0.3442383-74.3381729-11.2565002-74.3381729-24.8964844v26.6014709
		c0,13.6400146,33.4181671,24.8898621,74.3381729,24.8898621s75.701828-11.2498474,75.701828-24.8898621v-26.6014709
		C218.8600006,363.5064087,184.4190826,374.7558289,143.1581726,374.7558289z"/>
	<path d="M143.1581726,123.4356689c41.2642365,0,75.701828-11.2531662,75.701828-24.8931656
		s-34.440918-24.8931732-75.701828-24.8931732c-40.9200058,0-74.3381729,11.2531662-74.3381729,24.8931732
		S101.8968353,123.4356689,143.1581726,123.4356689z"/>
	<path d="M321.8418274,255.4058228c-40.9199829,0-75.701828-11.256485-75.701828-24.8964844v26.6015015
		c0,13.6399841,34.4409027,24.8898315,75.701828,24.8898315c41.2613525,0,74.3381653-11.2498474,74.3381653-24.8898315v-26.6015015
		C396.1799927,244.1564026,362.7618408,255.4058228,321.8418274,255.4058228z"/>
	<path d="M321.8418274,294.9617615c-40.9199829,0-75.701828-11.2561035-75.701828-24.8960876v26.6010742
		c0,13.6399841,34.4409027,24.8964844,75.701828,24.8964844c41.2613525,0,74.3381653-11.2565002,74.3381653-24.8964844v-26.6010742
		C396.1799927,283.705658,362.7618408,294.9617615,321.8418274,294.9617615z"/>
	<path d="M321.8418274,334.8556519c-40.9199829,0-75.701828-11.2498169-75.701828-24.8898315v26.2535095
		c0,13.6400146,34.4409027,24.8965149,75.701828,24.8965149c41.2613525,0,74.3381653-11.2565002,74.3381653-24.8965149v-26.2535095
		C396.1799927,323.605835,362.7618408,334.8556519,321.8418274,334.8556519z"/>
	<path d="M321.8418274,374.414917c-40.9199829,0-75.701828-11.2565002-75.701828-24.8965149v26.6015015
		c0,13.6400146,34.4409027,24.8965149,75.701828,24.8965149c41.2613525,0,74.3381653-11.2565002,74.3381653-24.8965149v-26.6015015
		C396.1799927,363.1617432,362.7618408,374.414917,321.8418274,374.414917z"/>
	<path d="M321.8418274,242.1067505c40.9200134,0,74.3381653-11.2560883,74.3381653-24.8960876
		s-33.0768127-24.8898315-74.3381653-24.8898315c-41.2609253,0-75.701828,11.2498322-75.701828,24.8898315
		S280.9218445,242.1067505,321.8418274,242.1067505z"/>
</g>
</svg>
