<?xml version="1.0" encoding="utf-8"?>
<!-- Generator: Adobe Illustrator 19.1.0, SVG Export Plug-In . SVG Version: 6.00 Build 0)  -->
<!DOCTYPE svg PUBLIC "-//W3C//DTD SVG 1.0//EN" "http://www.w3.org/TR/2001/REC-SVG-20010904/DTD/svg10.dtd">
<svg version="1.0" id="Icons_3_" xmlns="http://www.w3.org/2000/svg" xmlns:xlink="http://www.w3.org/1999/xlink" x="0px" y="0px"
	 width="465px" height="465px" viewBox="0 0 465 465" style="enable-background:new 0 0 465 465;" xml:space="preserve">
<g id="Error">
</g>
<g id="View">
</g>
<g id="Video">
</g>
<g id="User_Personal">
</g>
<g id="Upload">
</g>
<g id="Travel">
</g>
<g id="Transfers">
</g>
<g id="Tools">
</g>
<g id="Clock">
</g>
<g id="Fast_Track">
</g>
<g id="Camera">
</g>
<g id="Tablet">
</g>
<g id="Switch">
</g>
<g id="Survey">
</g>
<g id="Minimize">
</g>
<g id="Stock_Up">
</g>
<g id="Stock_Down">
</g>
<g id="Sound">
</g>
<g id="Shopping_Cart">
</g>
<g id="Share">
</g>
<g id="Settings">
</g>
<g id="Secure_Key_Passcode">
</g>
<g id="Search">
</g>
<g id="Script">
</g>
<g id="Staff_Channels">
	<g id="Signature">
	</g>
	<g id="Shortcuts">
	</g>
	<g id="Microphone">
	</g>
	<g id="Dial">
	</g>
</g>
<g id="Social_Icons">
	<g id="Youtube">
	</g>
	<g id="Youtube_Solid">
	</g>
	<g id="Weibo">
	</g>
	<g id="Weibo_Solid">
	</g>
	<g id="Vimeo">
	</g>
	<g id="Vimeo_Solid">
	</g>
	<g id="Twitter">
	</g>
	<g id="Twitter_Solid">
	</g>
	<g id="LinkedIn">
	</g>
	<g id="LinkedIn_Solid">
	</g>
	<g id="GooglePlus">
	</g>
	<g id="GooglePlus_Solid">
	</g>
	<g id="Facebook">
	</g>
	<g id="Facebook_Solid">
	</g>
</g>
<g>
	<rect x="150.4484711" y="142.6826019" width="122.4544601" height="13.3368845"/>
	<rect x="150.4484711" y="182.9963837" width="122.4544601" height="13.3368845"/>
	<rect x="150.4484711" y="223.9163513" width="122.4544601" height="13.3369112"/>
	<rect x="150.6497345" y="264.8363647" width="81.7611847" height="13.943141"/>
	<path d="M394.6517334,121.4939194c0-26.1172562-21.1728821-47.2901764-47.2901611-47.2901764l-0.4801331,0.0121231
		l-195.052002,0.1248779c-30.2892838,0-54.8437119,24.5544357-54.8437119,54.842514v217.1051331H70.3349915l-0.009697,0.421936
		c0,29.869751,24.2161484,54.0859375,54.088356,54.0859375c0.9602509,0,1.9120255-0.0351868,2.8601532-0.0848694
		l0.0230408,0.0727539l103.3439178-0.0897827h41.539566v-0.0423889
		c30.1643982-0.1467285,54.5745239-24.6368713,54.5745239-54.8376465v-26.7016602V121.8612976h67.8896179L394.6517334,121.4939194z
		 M300.0810852,203.1726685v142.6416626c0,15.5350342-12.6360779,28.1711731-28.1941833,28.1711731h-1.9435425
		c-14.1880341-1.13974-25.3461456-13.0035095-25.3461456-27.4813232l0.004837-0.2157898h-120.942543V129.1832581
		c0-15.5314407,12.6373062-28.1687241,28.1953964-28.1687241l152.9159393-0.095787
		c-3.010498,6.2210541-4.7006531,13.2010803-4.7006531,20.5751724l0.0096741,0.3673782h0.0012207V203.1726685z"/>
</g>
</svg>
