<?xml version="1.0" encoding="utf-8"?>
<!-- Generator: Adobe Illustrator 19.1.0, SVG Export Plug-In . SVG Version: 6.00 Build 0)  -->
<!DOCTYPE svg PUBLIC "-//W3C//DTD SVG 1.0//EN" "http://www.w3.org/TR/2001/REC-SVG-20010904/DTD/svg10.dtd">
<svg version="1.0" id="Icons_3_" xmlns="http://www.w3.org/2000/svg" xmlns:xlink="http://www.w3.org/1999/xlink" x="0px" y="0px"
	 width="465px" height="465px" viewBox="0 0 465 465" style="enable-background:new 0 0 465 465;" xml:space="preserve">
<g id="Error">
</g>
<g id="View">
</g>
<g id="Video">
</g>
<g id="User_Personal">
</g>
<g id="Upload">
</g>
<g id="Travel">
</g>
<g id="Transfers">
</g>
<g id="Tools">
</g>
<g id="Clock">
</g>
<g id="Fast_Track">
</g>
<g id="Camera">
</g>
<g id="Tablet">
</g>
<g id="Switch">
</g>
<g id="Survey">
</g>
<g id="Minimize">
</g>
<g id="Stock_Up">
</g>
<g id="Stock_Down">
</g>
<g id="Sound">
</g>
<g id="Shopping_Cart">
</g>
<g id="Share">
</g>
<g id="Settings">
</g>
<g id="Secure_Key_Passcode">
</g>
<g id="Search">
</g>
<g id="Script">
</g>
<g id="Staff_Channels">
	<g id="Signature">
	</g>
	<g id="Shortcuts">
	</g>
	<g id="Microphone">
	</g>
	<g id="Dial">
	</g>
</g>
<g id="Social_Icons">
	<g id="Youtube">
	</g>
	<g id="Youtube_Solid">
	</g>
	<g id="Weibo">
	</g>
	<g id="Weibo_Solid">
	</g>
	<g id="Vimeo">
	</g>
	<g id="Vimeo_Solid">
	</g>
	<g id="Twitter">
	</g>
	<g id="Twitter_Solid">
	</g>
	<g id="LinkedIn">
	</g>
	<g id="LinkedIn_Solid">
	</g>
	<g id="GooglePlus">
	</g>
	<g id="GooglePlus_Solid">
	</g>
	<g id="Facebook">
	</g>
	<g id="Facebook_Solid">
	</g>
</g>
<g>
	<path d="M396.1799927,364.1440125L280.6560364,248.6200104c11.3688965-17.796814,17.3160095-38.0180969,17.3160095-60.2240143
		c0-31.8971252-11.0655518-59.2385254-33.8545227-81.3728256c-22.1309052-22.1343002-49.4722595-33.2031708-81.3728485-33.2031708
		c-31.900528,0-58.5905914,11.0688705-80.7249374,33.1997604c-22.130867,22.1377106-33.1997375,49.4756775-33.1997375,81.376236
		c0,31.2492676,11.0688705,58.5939941,33.8510742,80.7249146c21.4830093,22.789032,48.8243637,33.8544617,80.0736008,33.8544617
		c22.8197327,0,42.9625854-5.6980896,60.9264832-17.2613525l115.4728546,115.4659729L396.1799927,364.1440125z
		 M95.0087738,188.3959961c0-48.8141327,39.5696564-88.3837891,88.3838196-88.3837891s88.3871307,39.5696259,88.3871307,88.3837891
		s-39.5695953,88.3871765-88.3871307,88.3871765C134.5818634,276.7831726,95.0087738,237.2101746,95.0087738,188.3959961z"/>
</g>
</svg>
