<?xml version="1.0" encoding="utf-8"?>
<!-- Generator: Adobe Illustrator 19.1.0, SVG Export Plug-In . SVG Version: 6.00 Build 0)  -->
<!DOCTYPE svg PUBLIC "-//W3C//DTD SVG 1.1//EN" "http://www.w3.org/Graphics/SVG/1.1/DTD/svg11.dtd">
<svg version="1.1" id="ic" xmlns="http://www.w3.org/2000/svg" xmlns:xlink="http://www.w3.org/1999/xlink" x="0px" y="0px"
	 width="465px" height="465px" viewBox="0 0 465 465" enable-background="new 0 0 465 465" xml:space="preserve">
<g>
	<path d="M355.2600098,223.9111938v177.2687988H109.7399979V223.8600006h27.2800064c0,0,0-4.3274384,0-57.8030853v-0.5656891
		c0-50.6454926,44.3470612-91.6712265,93.5772247-91.6712265s97.382782,41.0257339,97.382782,91.6712265c0,0,0,0,0,0.5656891
		v57.8030853L355.2600098,223.9111938z M286.6678467,160.1168976v-0.2830658
		c0-26.8774719-29.7556458-48.9471512-56.067215-48.9471512c-26.0285339,0-51.7058411,21.7866287-51.7058411,48.9471512v0.2830658
		v63.743103h107.7730255v-63.743103H286.6678467z M212.046814,360.2600098h41.1314087
		c2.4108734,0,4.0476685-2.441803,3.1303711-4.6650391l-17.315979-42.0143433
		c10.7483215-3.1098633,18.3969727-12.4499207,18.3969727-23.7713318c0-15.6859436-14.4959259-27.7537231-30.352417-24.3095703
		c-9.6707611,2.1004333-17.3330383,10.086792-19.0550842,19.8322754
		c-2.3256073,13.1795959,5.8583679,25.0463562,17.9945526,28.2382202l-17.0636292,42.0318298
		C208.0093842,357.8319702,209.6461945,360.2600098,212.046814,360.2600098z"/>
</g>
</svg>
