<?xml version="1.0" encoding="utf-8"?>
<!-- Generator: Adobe Illustrator 19.1.0, SVG Export Plug-In . SVG Version: 6.00 Build 0)  -->
<!DOCTYPE svg PUBLIC "-//W3C//DTD SVG 1.0//EN" "http://www.w3.org/TR/2001/REC-SVG-20010904/DTD/svg10.dtd">
<svg version="1.0" id="Icons_3_" xmlns="http://www.w3.org/2000/svg" xmlns:xlink="http://www.w3.org/1999/xlink" x="0px" y="0px"
	 width="465px" height="465px" viewBox="0 0 465 465" style="enable-background:new 0 0 465 465;" xml:space="preserve">
<g id="Error">
</g>
<g id="View">
</g>
<g id="Video">
</g>
<g id="User_Personal">
</g>
<g id="Upload">
</g>
<g id="Travel">
</g>
<g id="Transfers">
</g>
<g id="Tools">
</g>
<g id="Clock">
</g>
<g id="Fast_Track">
</g>
<g id="Camera">
</g>
<g id="Tablet">
</g>
<g id="Switch">
</g>
<g id="Survey">
</g>
<g id="Minimize">
</g>
<g id="Stock_Up">
</g>
<g id="Stock_Down">
</g>
<g id="Sound">
</g>
<g id="Shopping_Cart">
</g>
<g id="Share">
</g>
<g id="Settings">
</g>
<g id="Secure_Key_Passcode">
</g>
<g id="Search">
</g>
<g id="Script">
</g>
<g id="Staff_Channels">
	<g id="Signature">
	</g>
	<g id="Shortcuts">
	</g>
	<g id="Microphone">
	</g>
	<g id="Dial">
	</g>
</g>
<g id="Social_Icons">
	<g id="Youtube">
	</g>
	<g id="Youtube_Solid">
	</g>
	<g id="Weibo">
	</g>
	<g id="Weibo_Solid">
	</g>
	<g id="Vimeo">
	</g>
	<g id="Vimeo_Solid">
	</g>
	<g id="Twitter">
	</g>
	<g id="Twitter_Solid">
	</g>
	<g id="LinkedIn">
	</g>
	<g id="LinkedIn_Solid">
	</g>
	<g id="GooglePlus">
	</g>
	<g id="GooglePlus_Solid">
	</g>
	<g id="Facebook">
	</g>
	<g id="Facebook_Solid">
	</g>
</g>
<g>
	<path d="M109.7399979,73.8199997v327.3599854h245.5200195V73.8199997H109.7399979z M191.5800018,373.8999939h-54.5599976
		v-54.5599976h54.5599976V373.8999939z M191.5800018,305.7000122h-54.5599976v-54.5600128h54.5599976V305.7000122z
		 M191.5800018,237.5h-54.5599976v-54.5599976h54.5599976V237.5z M259.7799988,373.8999939h-54.5599976v-54.5599976h54.5599976
		V373.8999939z M259.7799988,305.7000122h-54.5599976v-54.5600128h54.5599976V305.7000122z M259.7799988,237.5h-54.5599976
		v-54.5599976h54.5599976V237.5z M327.980011,373.8999939h-54.5599976v-54.5599976h54.5599976V373.8999939z M327.980011,305.7000122
		h-54.5599976v-54.5600128h54.5599976V305.7000122z M327.980011,237.5h-54.5599976v-54.5599976h54.5599976V237.5z
		 M328.0174561,155.6600037H137.0574646v-54.5600052h190.9599915V155.6600037z"/>
</g>
</svg>
