<?xml version="1.0" encoding="utf-8"?>
<!-- Generator: Adobe Illustrator 19.1.0, SVG Export Plug-In . SVG Version: 6.00 Build 0)  -->
<!DOCTYPE svg PUBLIC "-//W3C//DTD SVG 1.0//EN" "http://www.w3.org/TR/2001/REC-SVG-20010904/DTD/svg10.dtd">
<svg version="1.0" id="Icons_3_" xmlns="http://www.w3.org/2000/svg" xmlns:xlink="http://www.w3.org/1999/xlink" x="0px" y="0px"
	 width="465px" height="465px" viewBox="0 0 465 465" style="enable-background:new 0 0 465 465;" xml:space="preserve">
<g id="Error">
</g>
<g id="View">
</g>
<g id="Video">
</g>
<g id="User_Personal">
</g>
<g id="Upload">
</g>
<g id="Travel">
</g>
<g id="Transfers">
</g>
<g id="Tools">
</g>
<g id="Clock">
</g>
<g id="Fast_Track">
</g>
<g id="Camera">
</g>
<g id="Tablet">
</g>
<g id="Switch">
</g>
<g id="Survey">
</g>
<g id="Minimize">
</g>
<g id="Stock_Up">
</g>
<g id="Stock_Down">
</g>
<g id="Sound">
</g>
<g id="Shopping_Cart">
</g>
<g id="Share">
</g>
<g id="Settings">
</g>
<g id="Secure_Key_Passcode">
</g>
<g id="Search">
</g>
<g id="Script">
</g>
<g id="Staff_Channels">
	<g id="Signature">
	</g>
	<g id="Shortcuts">
	</g>
	<g id="Microphone">
	</g>
	<g id="Dial">
	</g>
</g>
<g id="Social_Icons">
	<g id="Youtube">
	</g>
	<g id="Youtube_Solid">
	</g>
	<g id="Weibo">
	</g>
	<g id="Weibo_Solid">
	</g>
	<g id="Vimeo">
	</g>
	<g id="Vimeo_Solid">
	</g>
	<g id="Twitter">
	</g>
	<g id="Twitter_Solid">
	</g>
	<g id="LinkedIn">
	</g>
	<g id="LinkedIn_Solid">
	</g>
	<g id="GooglePlus">
	</g>
	<g id="GooglePlus_Solid">
	</g>
	<g id="Facebook">
	</g>
	<g id="Facebook_Solid">
	</g>
</g>
<g>
	<path d="M396.1799927,264.4969482v-54.5599976h-30.0660095c-3.5736084-17.4046021-10.4720764-33.5884705-19.9859009-47.8866119
		l21.2032471-21.1999817l-38.5806274-38.580719l-21.2885742,21.28862
		c-14.3322144-9.4490967-30.543457-16.2793503-47.961853-19.7745819V73.8199997h-54.5599976v30.0693817
		c-17.4044495,3.5702896-33.5884247,10.4721069-47.8865204,19.982605l-21.1999054-21.1999588l-38.5841599,38.5807343
		l21.2885666,21.2886047c-9.4490967,14.3322144-16.2792969,30.5433807-19.7746277,47.9616394H68.8199997v54.5600128h30.0693588
		c3.5702591,17.4046326,10.4720535,33.5884399,19.9825516,47.8866272l-21.1999054,21.1999512l38.5808334,38.58078
		l21.288559-21.2886353c14.3322449,9.4490967,30.5432739,16.2759705,47.9616547,19.7745667v29.9636841h54.5599976v-30.065979
		c17.4046631-3.5736389,33.5884094-10.4721069,47.8865356-19.9860229l21.2001038,21.2034302l38.5806274-38.5773315
		l-21.2885742-21.2886047c9.4490967-14.3356934,16.2759705-30.543396,19.7746277-47.9616699h29.963623V264.4969482z
		 M232.5,319.3399963c-45.1995697,0-81.8399963-36.6404419-81.8399963-81.8399963S187.3004303,155.6600037,232.5,155.6600037
		S314.3399963,192.3004303,314.3399963,237.5S277.6995544,319.3399963,232.5,319.3399963z"/>
</g>
</svg>
