<?xml version="1.0" encoding="utf-8"?>
<!-- Generator: Adobe Illustrator 19.1.0, SVG Export Plug-In . SVG Version: 6.00 Build 0)  -->
<!DOCTYPE svg PUBLIC "-//W3C//DTD SVG 1.0//EN" "http://www.w3.org/TR/2001/REC-SVG-20010904/DTD/svg10.dtd">
<svg version="1.0" id="Icons_3_" xmlns="http://www.w3.org/2000/svg" xmlns:xlink="http://www.w3.org/1999/xlink" x="0px" y="0px"
	 width="465px" height="465px" viewBox="0 0 465 465" style="enable-background:new 0 0 465 465;" xml:space="preserve">
<g id="Error">
</g>
<g id="View">
</g>
<g id="Video">
</g>
<g id="User_Personal">
</g>
<g id="Upload">
</g>
<g id="Travel">
</g>
<g id="Transfers">
</g>
<g id="Tools">
</g>
<g id="Clock">
</g>
<g id="Fast_Track">
</g>
<g id="Camera">
</g>
<g id="Tablet">
</g>
<g id="Switch">
</g>
<g id="Survey">
</g>
<g id="Minimize">
</g>
<g id="Stock_Up">
</g>
<g id="Stock_Down">
</g>
<g id="Sound">
</g>
<g id="Shopping_Cart">
</g>
<g id="Share">
</g>
<g id="Settings">
</g>
<g id="Secure_Key_Passcode">
</g>
<g id="Search">
</g>
<g id="Script">
</g>
<g id="Staff_Channels">
	<g id="Signature">
	</g>
	<g id="Shortcuts">
	</g>
	<g id="Microphone">
	</g>
	<g id="Dial">
	</g>
</g>
<g id="Social_Icons">
	<g id="Youtube">
	</g>
	<g id="Youtube_Solid">
	</g>
	<g id="Weibo">
	</g>
	<g id="Weibo_Solid">
	</g>
	<g id="Vimeo">
	</g>
	<g id="Vimeo_Solid">
	</g>
	<g id="Twitter">
	</g>
	<g id="Twitter_Solid">
	</g>
	<g id="LinkedIn">
	</g>
	<g id="LinkedIn_Solid">
	</g>
	<g id="GooglePlus">
	</g>
	<g id="GooglePlus_Solid">
	</g>
	<g id="Facebook">
	</g>
	<g id="Facebook_Solid">
	</g>
</g>
<g>
	<path d="M347.0759277,302.9719849c-15.4813232,0-29.2680664,7.181488-38.2703247,18.3764648L166.30513,245.5816803
		c0.4397736-2.63591,0.7228241-5.3230286,0.7228241-8.0816803c0-3.287262-0.3375854-6.496048-0.951355-9.6025848
		l141.8525696-75.4223785c8.9649963,11.8565979,23.1403198,19.5529785,39.146759,19.5529785
		c27.1197205,0,49.1040649-21.9842987,49.1040649-49.1040115s-21.9843445-49.1040039-49.1040649-49.1040039
		c-27.119751,0-49.1038818,21.9842682-49.1038818,49.1040039c0,1.7050018,0.0851135,3.386116,0.2557983,5.0433807
		l-143.987381,76.5647354c-8.9818573-9.8890076-21.9023438-16.1360931-36.3163834-16.1360931
		C90.8043442,188.3959961,68.8199997,210.3802643,68.8199997,237.5s21.9843445,49.1039734,49.1040802,49.1039734
		c14.9493484,0,28.3164902-6.704071,37.3222733-17.2443237l143.2166595,76.1452942
		c-0.2897034,2.1585083-0.4909668,4.3375244-0.4909668,6.5710754c0,27.119751,21.9841309,49.1039734,49.1005554,49.1039734
		c27.1197205,0,49.1040649-21.9842224,49.1040649-49.1039734
		C396.1799927,324.9562683,374.1956482,302.9719849,347.0759277,302.9719849z"/>
</g>
</svg>
