<?xml version="1.0" encoding="utf-8"?>
<!-- Generator: Adobe Illustrator 19.1.0, SVG Export Plug-In . SVG Version: 6.00 Build 0)  -->
<!DOCTYPE svg PUBLIC "-//W3C//DTD SVG 1.0//EN" "http://www.w3.org/TR/2001/REC-SVG-20010904/DTD/svg10.dtd">
<svg version="1.0" id="Icons_3_" xmlns="http://www.w3.org/2000/svg" xmlns:xlink="http://www.w3.org/1999/xlink" x="0px" y="0px"
	 width="465px" height="465px" viewBox="0 0 465 465" style="enable-background:new 0 0 465 465;" xml:space="preserve">
<g id="Error">
</g>
<g id="View">
</g>
<g id="Video">
</g>
<g id="User_Personal">
</g>
<g id="Upload">
</g>
<g id="Travel">
</g>
<g id="Transfers">
</g>
<g id="Tools">
</g>
<g id="Clock">
</g>
<g id="Fast_Track">
</g>
<g id="Camera">
</g>
<g id="Tablet">
</g>
<g id="Switch">
</g>
<g id="Survey">
</g>
<g id="Minimize">
</g>
<g id="Stock_Up">
</g>
<g id="Stock_Down">
</g>
<g id="Sound">
</g>
<g id="Shopping_Cart">
</g>
<g id="Share">
</g>
<g id="Settings">
</g>
<g id="Secure_Key_Passcode">
</g>
<g id="Search">
</g>
<g id="Script">
</g>
<g id="Staff_Channels">
	<g id="Signature">
	</g>
	<g id="Shortcuts">
	</g>
	<g id="Microphone">
	</g>
	<g id="Dial">
	</g>
</g>
<g id="Social_Icons">
	<g id="Youtube">
	</g>
	<g id="Youtube_Solid">
	</g>
	<g id="Weibo">
	</g>
	<g id="Weibo_Solid">
	</g>
	<g id="Vimeo">
	</g>
	<g id="Vimeo_Solid">
	</g>
	<g id="Twitter">
	</g>
	<g id="Twitter_Solid">
	</g>
	<g id="LinkedIn">
	</g>
	<g id="LinkedIn_Solid">
	</g>
	<g id="GooglePlus">
	</g>
	<g id="GooglePlus_Solid">
	</g>
	<g id="Facebook">
	</g>
	<g id="Facebook_Solid">
	</g>
</g>
<g>
	<path d="M341.6359863,142.0200043v259.1599731H123.3959885V142.0200043h40.9200058v40.9199982h136.4000092l0.2659912-40.7597351
		L341.6359863,142.0200043z M177.9559937,169.3000031V150.258606c0-4.7092438,0.2728577-21.8786011,18.5470734-21.8786011
		c17.9911652,0,11.45755-17.1727982,11.45755-30.1921616c0-13.2922134,10.519928-24.3678436,24.9169006-24.3678436
		c14.1174469,0,24.3609772,11.0756302,24.3609772,24.3678436c0,13.0193634-6.9802704,30.1921616,11.0142212,30.1921616
		c18.2675781,0,18.8232727,17.1693573,18.8232727,21.8786011v19.0413971H177.9559937z M243.8303528,98.8152542
		c0-6.3732529-4.9820099-11.3552551-11.3449554-11.3552551c-6.3700256,0-11.9044037,4.9820023-11.9044037,11.3552551
		c0,6.3733521,5.5343781,11.631546,11.9044037,11.631546C238.8483429,110.4468002,243.8303528,105.185173,243.8303528,98.8152542z"
		/>
</g>
</svg>
