<?xml version="1.0" encoding="utf-8"?>
<!-- Generator: Adobe Illustrator 19.1.0, SVG Export Plug-In . SVG Version: 6.00 Build 0)  -->
<!DOCTYPE svg PUBLIC "-//W3C//DTD SVG 1.0//EN" "http://www.w3.org/TR/2001/REC-SVG-20010904/DTD/svg10.dtd">
<svg version="1.0" id="Icons_3_" xmlns="http://www.w3.org/2000/svg" xmlns:xlink="http://www.w3.org/1999/xlink" x="0px" y="0px"
	 width="465px" height="465px" viewBox="0 0 465 465" style="enable-background:new 0 0 465 465;" xml:space="preserve">
<g id="Error">
</g>
<g id="View">
</g>
<g id="Video">
</g>
<g id="User_Personal">
</g>
<g id="Upload">
</g>
<g id="Travel">
</g>
<g id="Transfers">
</g>
<g id="Tools">
</g>
<g id="Clock">
</g>
<g id="Fast_Track">
</g>
<g id="Camera">
</g>
<g id="Tablet">
</g>
<g id="Switch">
</g>
<g id="Survey">
</g>
<g id="Minimize">
</g>
<g id="Stock_Up">
</g>
<g id="Stock_Down">
</g>
<g id="Sound">
</g>
<g id="Shopping_Cart">
</g>
<g id="Share">
</g>
<g id="Settings">
</g>
<g id="Secure_Key_Passcode">
</g>
<g id="Search">
</g>
<g id="Script">
</g>
<g id="Staff_Channels">
	<g id="Signature">
	</g>
	<g id="Shortcuts">
	</g>
	<g id="Microphone">
	</g>
	<g id="Dial">
	</g>
</g>
<g id="Social_Icons">
	<g id="Youtube">
	</g>
	<g id="Youtube_Solid">
	</g>
	<g id="Weibo">
	</g>
	<g id="Weibo_Solid">
	</g>
	<g id="Vimeo">
	</g>
	<g id="Vimeo_Solid">
	</g>
	<g id="Twitter">
	</g>
	<g id="Twitter_Solid">
	</g>
	<g id="LinkedIn">
	</g>
	<g id="LinkedIn_Solid">
	</g>
	<g id="GooglePlus">
	</g>
	<g id="GooglePlus_Solid">
	</g>
	<g id="Facebook">
	</g>
	<g id="Facebook_Solid">
	</g>
</g>
<g>
	<path d="M391.7345276,360.6443481c5.9266968,5.8652954,5.9266968,15.2461243,0,21.1079102l-15.3995361,15.2392578
		c-5.6263733,5.5753784-15.409729,5.5753784-21.0327759,0L246.0116577,287.9431152
		c-5.0433044-4.9853516-5.326355-12.0132446-1.4866791-17.881897l-7.406601-7.0314636L129.3010559,390.5501099
		c-20.7328568,18.175354-38.2091064,5.5718384-38.2091064,5.5718384c-4.1465759-2.9256897-6.8131332-4.1022339-8.8864212-6.4549255
		c-3.2566071-2.3462524-5.3297882-5.8617859-7.9964523-9.0877991c0,0-13.9230537-15.5358582,2.9632492-37.8203125
		L198.6092377,224.909317l-70.7915192-70.0652618l-20.4361725-11.4336243l-22.8060379-33.7147446l17.1795578-17.0056686
		l34.0590973,22.5741806l11.5496521,19.348381l71.98172,70.948349l2.0731812-2.3460388l35.2457428-35.4674072
		c-2.0698395-1.4662781-6.5130005-22.5741882-6.5130005-22.5741882
		c-6.2198486-21.1079025,10.9562683-47.7843246,33.4657288-61.5606537
		c22.5127869-13.4866104,56.5718994-9.6742935,59.2384644-7.9145508c0,0,3.2497253,1.7595291,0.8900452,5.568512
		l-43.245636,42.2089462l-0.8866272,9.6740799l12.4295044,10.2608032l12.1463623,10.5538635l8.8796387-0.879776
		l39.0990906-45.1483612c3.8499756-2.3460388,5.9198303,0,5.9198303,0
		c2.0731812,2.6392975,8.2964783,36.6473083-3.8499756,59.8079987
		c-12.4362793,23.1606903-37.3190613,41.629303-58.9417725,37.2302704c0,0-21.9161682-2.9325562-23.3926392-4.9853363
		l-35.2253723,40.1630249l-1.7765961,1.7595367l9.1832123,7.9145508c5.3298035-2.9292145,18.069519,1.7595367,18.069519,1.7595367
		L391.7345276,360.6443481z"/>
</g>
</svg>
