<?xml version="1.0" encoding="utf-8"?>
<!-- Generator: Adobe Illustrator 19.1.0, SVG Export Plug-In . SVG Version: 6.00 Build 0)  -->
<!DOCTYPE svg PUBLIC "-//W3C//DTD SVG 1.0//EN" "http://www.w3.org/TR/2001/REC-SVG-20010904/DTD/svg10.dtd">
<svg version="1.0" id="Icons_3_" xmlns="http://www.w3.org/2000/svg" xmlns:xlink="http://www.w3.org/1999/xlink" x="0px" y="0px"
	 width="465px" height="465px" viewBox="0 0 465 465" style="enable-background:new 0 0 465 465;" xml:space="preserve">
<g id="Error">
</g>
<g id="View">
</g>
<g id="Video">
</g>
<g id="User_Personal">
</g>
<g id="Upload">
</g>
<g id="Travel">
</g>
<g id="Transfers">
</g>
<g id="Tools">
</g>
<g id="Clock">
</g>
<g id="Fast_Track">
</g>
<g id="Camera">
</g>
<g id="Tablet">
</g>
<g id="Switch">
</g>
<g id="Survey">
</g>
<g id="Minimize">
</g>
<g id="Stock_Up">
</g>
<g id="Stock_Down">
</g>
<g id="Sound">
</g>
<g id="Shopping_Cart">
</g>
<g id="Share">
</g>
<g id="Settings">
</g>
<g id="Secure_Key_Passcode">
</g>
<g id="Search">
</g>
<g id="Script">
</g>
<g id="Staff_Channels">
	<g id="Signature">
	</g>
	<g id="Shortcuts">
	</g>
	<g id="Microphone">
	</g>
	<g id="Dial">
	</g>
</g>
<g id="Social_Icons">
	<g id="Youtube">
	</g>
	<g id="Youtube_Solid">
	</g>
	<g id="Weibo">
	</g>
	<g id="Weibo_Solid">
	</g>
	<g id="Vimeo">
	</g>
	<g id="Vimeo_Solid">
	</g>
	<g id="Twitter">
	</g>
	<g id="Twitter_Solid">
	</g>
	<g id="LinkedIn">
	</g>
	<g id="LinkedIn_Solid">
	</g>
	<g id="GooglePlus">
	</g>
	<g id="GooglePlus_Solid">
	</g>
	<g id="Facebook">
	</g>
	<g id="Facebook_Solid">
	</g>
</g>
<g>
	<path d="M264.4356995,249.2475739c-38.983139,36.8926849-57.3936768,53.2369232-84.4861603,78.7948456
		c-1.752655,1.6504822-2.6461639,4.0545959-2.3834991,6.4515991l5.899231,53.0700073
		c0.2659912,2.4005737-0.6137695,4.7843018-2.3733063,6.4447327l-5.4321899,5.0946045
		c-3.7442627,3.5124207-9.817276,2.4313965-12.1156616-2.1653748l-28.9441986-57.8675842
		c-0.7398987-1.4833679-1.9401855-2.6802979-3.4166565-3.4237366l-58.1302643-29.1964722
		c-4.6138229-2.322113-5.6709137-8.4396667-2.0973282-12.1668701l4.9820099-5.1899109
		c1.6402664-1.7118835,3.9863129-2.571228,6.3460846-2.3223267l53.1790543,5.6265869
		c2.3801727,0.2489319,4.7670135-0.6445618,6.410614-2.3903503c25.5749969-27.0891724,41.9294281-45.49617,79.1053772-84.472641
		c2.1175232-2.2163849,0.9103699-5.9127655-2.1143951-6.4345551L91.8146515,177.1975861
		c-6.1856155-1.0637512-8.5420685-8.7023315-4.0339737-13.070343l17.885437-17.3228607
		c1.3538818-1.3095551,3.1406784-2.0767212,5.0230026-2.1551819l172.5767212-7.1371918
		c1.9743347-0.0818024,3.8703918-0.9478302,5.2411194-2.3801727c21.5479126-22.4786606,30.4512939-32.2790756,35.7333984-37.564537
		c1.6130066-1.6061401,3.2156067-2.8915482,5.145813-4.1738358c15.7335815-12.8453598,38.2191162-18.3048172,52.0297546-19.2663727
		c6.7481995-0.6412506,11.5666199-0.3207321,13.1694336,1.285408c1.6026001,1.6061401,1.9231262,6.4210129,1.2854004,13.1660843
		c-0.9648743,14.127655-6.427887,36.2824554-18.9560547,52.0162354c-1.6061401,1.9264526-2.8917542,3.5325928-4.4910278,5.1387329
		c-5.2854614,5.2821198-15.0892029,14.1821747-37.574707,35.7232056c-1.432373,1.3742828-2.3019409,3.2770081-2.3768616,5.258194
		l-6.8268738,172.4880524c-0.0715942,1.90625-0.852478,3.7101135-2.1857605,5.0638123L305.829834,382.268158
		c-4.3751221,4.4739685-11.9793396,2.1006775-13.0397644-4.0578918L270.86026,251.3686218
		C270.3453369,248.357605,266.6624756,247.1435852,264.4356995,249.2475739z"/>
</g>
</svg>
