<?xml version="1.0" encoding="utf-8"?>
<!-- Generator: Adobe Illustrator 19.1.0, SVG Export Plug-In . SVG Version: 6.00 Build 0)  -->
<!DOCTYPE svg PUBLIC "-//W3C//DTD SVG 1.0//EN" "http://www.w3.org/TR/2001/REC-SVG-20010904/DTD/svg10.dtd">
<svg version="1.0" id="Icons_3_" xmlns="http://www.w3.org/2000/svg" xmlns:xlink="http://www.w3.org/1999/xlink" x="0px" y="0px"
	 width="465px" height="465px" viewBox="0 0 465 465" style="enable-background:new 0 0 465 465;" xml:space="preserve">
<g id="Error">
</g>
<g id="View">
</g>
<g id="Video">
</g>
<g id="User_Personal">
</g>
<g id="Upload">
</g>
<g id="Travel">
</g>
<g id="Transfers">
</g>
<g id="Tools">
</g>
<g id="Clock">
</g>
<g id="Fast_Track">
</g>
<g id="Camera">
</g>
<g id="Tablet">
</g>
<g id="Switch">
</g>
<g id="Survey">
</g>
<g id="Minimize">
</g>
<g id="Stock_Up">
</g>
<g id="Stock_Down">
</g>
<g id="Sound">
</g>
<g id="Shopping_Cart">
</g>
<g id="Share">
</g>
<g id="Settings">
</g>
<g id="Secure_Key_Passcode">
</g>
<g id="Search">
</g>
<g id="Script">
</g>
<g id="Staff_Channels">
	<g id="Signature">
	</g>
	<g id="Shortcuts">
	</g>
	<g id="Microphone">
	</g>
	<g id="Dial">
	</g>
</g>
<g id="Social_Icons">
	<g id="Youtube">
	</g>
	<g id="Youtube_Solid">
	</g>
	<g id="Weibo">
	</g>
	<g id="Weibo_Solid">
	</g>
	<g id="Vimeo">
	</g>
	<g id="Vimeo_Solid">
	</g>
	<g id="Twitter">
	</g>
	<g id="Twitter_Solid">
	</g>
	<g id="LinkedIn">
	</g>
	<g id="LinkedIn_Solid">
	</g>
	<g id="GooglePlus">
	</g>
	<g id="GooglePlus_Solid">
	</g>
	<g id="Facebook">
	</g>
	<g id="Facebook_Solid">
	</g>
</g>
<g>
	<path d="M68.820488,73.8199997v327.3599854H396.180481V73.8199997H68.820488z M331.6632385,187.2432861
		c0.3273926,2.2369843,0.3273926,4.480835,0.3273926,6.4006195c0,66.9314423-50.9181519,144.4307098-144.4305878,144.4307098
		c-28.497345,0-55.402298-8.327301-77.8162231-23.0587158c3.8431168,0.641449,8.006752,0.9582214,12.1669617,0.9582214
		c24.0166321,0,45.7962646-8.0063477,63.0917664-21.779541c-22.4173584-0.6410522-40.9950409-15.0515442-47.3989868-35.2251587
		c2.8848877,0.958252,6.4039459,0.958252,9.6059265,0.958252c4.4841614,0,8.9649811-0.6414795,13.1285248-1.9164734
		c-23.0549622-4.4843597-40.6710815-25.2954865-40.6710815-49.639389c0-0.3205261,0-0.6412506,0-0.9582367
		c6.7245712,3.8429108,14.7312317,6.4039459,23.0583954,6.4039459c-13.4489288-8.9683075-22.7377701-24.6577606-22.7377701-42.27388
		c0-9.2852936,2.5608292-17.9297638,7.0449905-25.615799c24.9782867,31.0650482,62.4472809,51.5625153,104.7211761,53.4825134
		c-0.9651031-3.8466492-1.2787476-7.6862335-1.2787476-11.5293579c0-28.187027,22.7310028-50.6009521,50.5940857-50.6009521
		c14.7312317,0,27.8597412,6.4039612,37.1520081,16.0099792c11.5291443-2.5610352,22.4172668-6.4039459,32.3403625-12.487381
		c-3.8430176,11.8496704-11.849762,22.0934143-22.4173584,28.1835022
		c10.2505188-1.2820892,20.1736145-3.8429108,29.1384888-8.006546
		C350.2443542,170.9094696,341.5931091,179.5503998,331.6632385,187.2432861z"/>
</g>
</svg>
