<?xml version="1.0" encoding="utf-8"?>
<!-- Generator: Adobe Illustrator 19.1.0, SVG Export Plug-In . SVG Version: 6.00 Build 0)  -->
<!DOCTYPE svg PUBLIC "-//W3C//DTD SVG 1.0//EN" "http://www.w3.org/TR/2001/REC-SVG-20010904/DTD/svg10.dtd">
<svg version="1.0" id="Icons_3_" xmlns="http://www.w3.org/2000/svg" xmlns:xlink="http://www.w3.org/1999/xlink" x="0px" y="0px"
	 width="465px" height="465px" viewBox="0 0 465 465" style="enable-background:new 0 0 465 465;" xml:space="preserve">
<g id="Error">
</g>
<g id="View">
</g>
<g id="Video">
</g>
<g id="User_Personal">
</g>
<g id="Upload">
</g>
<g id="Travel">
</g>
<g id="Transfers">
</g>
<g id="Tools">
</g>
<g id="Clock">
</g>
<g id="Fast_Track">
</g>
<g id="Camera">
</g>
<g id="Tablet">
</g>
<g id="Switch">
</g>
<g id="Survey">
</g>
<g id="Minimize">
</g>
<g id="Stock_Up">
</g>
<g id="Stock_Down">
</g>
<g id="Sound">
</g>
<g id="Shopping_Cart">
</g>
<g id="Share">
</g>
<g id="Settings">
</g>
<g id="Secure_Key_Passcode">
</g>
<g id="Search">
</g>
<g id="Script">
</g>
<g id="Staff_Channels">
	<g id="Signature">
	</g>
	<g id="Shortcuts">
	</g>
	<g id="Microphone">
	</g>
	<g id="Dial">
	</g>
</g>
<g id="Social_Icons">
	<g id="Youtube">
	</g>
	<g id="Youtube_Solid">
	</g>
	<g id="Weibo">
	</g>
	<g id="Weibo_Solid">
	</g>
	<g id="Vimeo">
	</g>
	<g id="Vimeo_Solid">
	</g>
	<g id="Twitter">
	</g>
	<g id="Twitter_Solid">
	</g>
	<g id="LinkedIn">
	</g>
	<g id="LinkedIn_Solid">
	</g>
	<g id="GooglePlus">
	</g>
	<g id="GooglePlus_Solid">
	</g>
	<g id="Facebook">
	</g>
	<g id="Facebook_Solid">
	</g>
</g>
<g>
	<path d="M352.7123108,175.8600311c0.3989868,2.7381592,0.3989868,5.4729767,0.3989868,7.8190155
		c0,81.7411499-62.1813049,176.3890381-176.3959045,176.3890381c-34.7991028,0-67.6544952-10.168396-95.0333557-28.1595459
		c4.6956177,0.7808838,9.7800217,1.1730042,14.8608932,1.1730042c29.336113,0,55.930748-9.7767029,77.0557175-26.6015015
		c-27.3788605-0.774231-50.0689774-18.3766174-57.8882065-43.010437c3.5190582,1.1663513,7.8192291,1.1663513,11.7304077,1.1663513
		c5.4729843,0,10.949501-0.7809143,16.0339127-2.339386c-28.1564331-5.4796448-49.6666565-30.8979187-49.6666565-60.626358
		c0-0.3921204,0-0.780899,0-1.1730194c8.2146759,4.6956177,17.9876251,7.8258972,28.1630936,7.8258972
		c-16.4293594-10.9561768-27.7709808-30.1170197-27.7709808-51.6307831c0-11.3382874,3.1302719-21.8954773,8.6034698-31.2833786
		c30.505806,37.9362564,76.2679367,62.9726028,127.892067,65.3084488
		c-1.1798859-4.6956177-1.5653534-9.3843689-1.5653534-14.0799866c0.00354-34.4171906,27.7643127-61.792511,61.7995911-61.792511
		c17.9911804,0,34.0248718,7.8225632,45.3664856,19.5529633c14.086853-3.1269379,27.3790894-7.8192291,39.5015869-15.2496719
		c-4.6956177,14.4720993-14.4720764,26.9867477-27.3788452,34.4205246
		c12.5213013-1.5684662,24.6405029-4.6954193,35.5866699-9.7798157
		C375.4093018,155.9114075,364.8417053,166.4687958,352.7123108,175.8600311z"/>
</g>
</svg>
