<?xml version="1.0" encoding="utf-8"?>
<!-- Generator: Adobe Illustrator 19.1.0, SVG Export Plug-In . SVG Version: 6.00 Build 0)  -->
<!DOCTYPE svg PUBLIC "-//W3C//DTD SVG 1.0//EN" "http://www.w3.org/TR/2001/REC-SVG-20010904/DTD/svg10.dtd">
<svg version="1.0" id="Icons_3_" xmlns="http://www.w3.org/2000/svg" xmlns:xlink="http://www.w3.org/1999/xlink" x="0px" y="0px"
	 width="465px" height="465px" viewBox="0 0 465 465" style="enable-background:new 0 0 465 465;" xml:space="preserve">
<g id="Error">
</g>
<g id="View">
</g>
<g id="Video">
</g>
<g id="User_Personal">
</g>
<g id="Upload">
</g>
<g id="Travel">
</g>
<g id="Transfers">
</g>
<g id="Tools">
</g>
<g id="Clock">
</g>
<g id="Fast_Track">
</g>
<g id="Camera">
</g>
<g id="Tablet">
</g>
<g id="Switch">
</g>
<g id="Survey">
</g>
<g id="Minimize">
</g>
<g id="Stock_Up">
</g>
<g id="Stock_Down">
</g>
<g id="Sound">
</g>
<g id="Shopping_Cart">
</g>
<g id="Share">
</g>
<g id="Settings">
</g>
<g id="Secure_Key_Passcode">
</g>
<g id="Search">
</g>
<g id="Script">
</g>
<g id="Staff_Channels">
	<g id="Signature">
	</g>
	<g id="Shortcuts">
	</g>
	<g id="Microphone">
	</g>
	<g id="Dial">
	</g>
</g>
<g id="Social_Icons">
	<g id="Youtube">
	</g>
	<g id="Youtube_Solid">
	</g>
	<g id="Weibo">
	</g>
	<g id="Weibo_Solid">
	</g>
	<g id="Vimeo">
	</g>
	<g id="Vimeo_Solid">
	</g>
	<g id="Twitter">
	</g>
	<g id="Twitter_Solid">
	</g>
	<g id="LinkedIn">
	</g>
	<g id="LinkedIn_Solid">
	</g>
	<g id="GooglePlus">
	</g>
	<g id="GooglePlus_Solid">
	</g>
	<g id="Facebook">
	</g>
	<g id="Facebook_Solid">
	</g>
</g>
<g>
	<path d="M195.1216125,244.8382416h74.754425c13.309082,0,26.62854,3.7579956,39.2591248,11.6042938
		c12.6305542,7.8464966,23.2118835,17.7490845,32.4291382,29.6976318
		c8.5354004,11.9487305,16.0438843,25.9433899,21.5102234,40.6234131
		c5.4629822,14.6766968,8.1874084,29.3498535,8.1874084,43.0035706v31.4128418H93.7390442v-31.4094849
		c0-18.4276123,4.4365005-37.8850708,13.3128204-57.0049133c9.2172394-19.4541016,21.5031433-35.49823,37.206543-48.8108215
		C160.3056488,251.3275299,177.0251312,244.8382416,195.1216125,244.8382416z"/>
	<path d="M229.2557373,225.7252655c21.1659851,0,38.9153137-7.1713257,53.9293823-22.5298615
		c14.6835632-14.6766968,22.5296326-32.77005,22.5296326-53.591568c0-21.1657715-7.1708984-39.2593307-22.5296326-53.9324875
		c-14.6769104-14.6800232-32.7633972-21.8513489-53.9293823-21.8513489c-21.1655579,0-38.9148712,7.1713257-53.5913544,21.8478088
		c-14.6764832,14.6766968-21.8478088,32.7700577-21.8478088,53.9327011c0,20.8179779,7.1713257,38.9148712,22.5296326,53.591568
		C190.3441925,218.2163544,208.4311066,225.7252655,229.2557373,225.7252655z"/>
</g>
</svg>
