<?xml version="1.0" encoding="utf-8"?>
<!-- Generator: Adobe Illustrator 19.1.0, SVG Export Plug-In . SVG Version: 6.00 Build 0)  -->
<!DOCTYPE svg PUBLIC "-//W3C//DTD SVG 1.0//EN" "http://www.w3.org/TR/2001/REC-SVG-20010904/DTD/svg10.dtd">
<svg version="1.0" id="Icons_3_" xmlns="http://www.w3.org/2000/svg" xmlns:xlink="http://www.w3.org/1999/xlink" x="0px" y="0px"
	 width="465px" height="465px" viewBox="0 0 465 465" style="enable-background:new 0 0 465 465;" xml:space="preserve">
<g id="Error">
</g>
<g id="View">
</g>
<g id="Video">
</g>
<g id="User_Personal">
</g>
<g id="Upload">
</g>
<g id="Travel">
</g>
<g id="Transfers">
</g>
<g id="Tools">
</g>
<g id="Clock">
</g>
<g id="Fast_Track">
</g>
<g id="Camera">
</g>
<g id="Tablet">
</g>
<g id="Switch">
</g>
<g id="Survey">
</g>
<g id="Minimize">
</g>
<g id="Stock_Up">
</g>
<g id="Stock_Down">
</g>
<g id="Sound">
</g>
<g id="Shopping_Cart">
</g>
<g id="Share">
</g>
<g id="Settings">
</g>
<g id="Secure_Key_Passcode">
</g>
<g id="Search">
</g>
<g id="Script">
</g>
<g id="Staff_Channels">
	<g id="Signature">
	</g>
	<g id="Shortcuts">
	</g>
	<g id="Microphone">
	</g>
	<g id="Dial">
	</g>
</g>
<g id="Social_Icons">
	<g id="Youtube">
	</g>
	<g id="Youtube_Solid">
	</g>
	<g id="Weibo">
	</g>
	<g id="Weibo_Solid">
	</g>
	<g id="Vimeo">
	</g>
	<g id="Vimeo_Solid">
	</g>
	<g id="Twitter">
	</g>
	<g id="Twitter_Solid">
	</g>
	<g id="LinkedIn">
	</g>
	<g id="LinkedIn_Solid">
	</g>
	<g id="GooglePlus">
	</g>
	<g id="GooglePlus_Solid">
	</g>
	<g id="Facebook">
	</g>
	<g id="Facebook_Solid">
	</g>
</g>
<g>
	<path d="M393.2861633,232.3050842c-2.0829773-4.3058014-52.2422791-105.516861-160.7745056-105.6300812h-0.181488
		c-108.6504593,0-158.5583496,101.3442688-160.6296539,105.6600494l-2.4875641,5.1815948l2.500885,5.1782684
		c2.082962,4.3058014,52.2422638,105.5168762,160.7745056,105.6300964h0.181488
		c108.6504517,0,158.5583496-101.3442841,160.6296387-105.6600647l2.4875793-5.1815948L393.2861633,232.3050842z
		 M186.1240845,214.3878021c0.3409119,4.4329529-3.4100037,8.5249939-7.8431702,9.2070465
		c-4.4329529,0.3409119-8.5249939-2.7281799-8.865921-7.5020447c-0.3409119-5.1150055-0.6820374-17.3911285,7.5020447-30.3490906
		c8.1838837-12.9579468,19.0959167-18.4138641,23.8700104-20.118866c4.092041-1.7050018,9.2070312,0.3409119,10.5709076,4.4329529
		c1.7050018,4.4329529-0.3409119,9.2070465-4.77388,10.9120483c-1.7049866,0.6818237-10.2299957,4.0918274-15.6861115,13.2988739
		C185.1009216,204.1578064,185.782959,212.6828003,186.1240845,214.3878021z M232.6615143,324.4549866h-0.1498566
		c-80.2998352-0.083252-125.1909561-67.5139771-136.4699402-86.9716339
		c8.0423431-13.9524078,33.2614365-52.507431,76.4490128-73.270874
		c-14.3549194,14.9512177-23.1948242,35.2378387-23.1948242,57.6013947c0,45.9523621,37.251709,83.204071,83.2040863,83.204071
		s83.204071-37.251709,83.204071-83.204071c0-22.2336884-8.737915-42.4141693-22.9456787-57.3401947
		c42.9667358,20.8373413,68.1589966,59.16716,76.1998901,73.0429688
		C357.729248,256.9942627,313.0296021,324.4549866,232.6615143,324.4549866z"/>
</g>
</svg>
