<?xml version="1.0" encoding="utf-8"?>
<!-- Generator: Adobe Illustrator 19.1.0, SVG Export Plug-In . SVG Version: 6.00 Build 0)  -->
<!DOCTYPE svg PUBLIC "-//W3C//DTD SVG 1.0//EN" "http://www.w3.org/TR/2001/REC-SVG-20010904/DTD/svg10.dtd">
<svg version="1.0" id="Icons_3_" xmlns="http://www.w3.org/2000/svg" xmlns:xlink="http://www.w3.org/1999/xlink" x="0px" y="0px"
	 width="465px" height="465px" viewBox="0 0 465 465" style="enable-background:new 0 0 465 465;" xml:space="preserve">
<g id="Error">
</g>
<g id="View">
</g>
<g id="Video">
</g>
<g id="User_Personal">
</g>
<g id="Upload">
</g>
<g id="Travel">
</g>
<g id="Transfers">
</g>
<g id="Tools">
</g>
<g id="Clock">
</g>
<g id="Fast_Track">
</g>
<g id="Camera">
</g>
<g id="Tablet">
</g>
<g id="Switch">
</g>
<g id="Survey">
</g>
<g id="Minimize">
</g>
<g id="Stock_Up">
</g>
<g id="Stock_Down">
</g>
<g id="Sound">
</g>
<g id="Shopping_Cart">
</g>
<g id="Share">
</g>
<g id="Settings">
</g>
<g id="Secure_Key_Passcode">
</g>
<g id="Search">
</g>
<g id="Script">
</g>
<g id="Staff_Channels">
	<g id="Signature">
	</g>
	<g id="Shortcuts">
	</g>
	<g id="Microphone">
	</g>
	<g id="Dial">
	</g>
</g>
<g id="Social_Icons">
	<g id="Youtube">
	</g>
	<g id="Youtube_Solid">
	</g>
	<g id="Weibo">
	</g>
	<g id="Weibo_Solid">
	</g>
	<g id="Vimeo">
	</g>
	<g id="Vimeo_Solid">
	</g>
	<g id="Twitter">
	</g>
	<g id="Twitter_Solid">
	</g>
	<g id="LinkedIn">
	</g>
	<g id="LinkedIn_Solid">
	</g>
	<g id="GooglePlus">
	</g>
	<g id="GooglePlus_Solid">
	</g>
	<g id="Facebook">
	</g>
	<g id="Facebook_Solid">
	</g>
</g>
<g>
	<path d="M372.0357361,171.9990692c-1.2550354,27.508316-20.4325256,65.1683807-57.5162659,112.9662323
		c-38.3491821,49.9428406-70.7849884,74.9042969-97.3248749,74.9042969c-16.4260254,0-30.352417-15.2018127-41.7113037-45.6158447
		c-7.5871735-27.8798218-15.1710052-55.753418-22.7652435-83.630127
		c-8.4396667-30.3932037-17.4829102-45.6087494-27.1638718-45.6087494c-2.1075211,0-9.4898911,4.446701-22.130867,13.3092804
		l-13.264946-17.1249237c13.9163971-12.2590485,27.6450577-24.5110321,41.1518478-36.7700958
		c18.5639496-16.0782471,32.497406-24.5247726,41.7895813-25.3772736
		c21.9468689-2.1175156,35.4536743,12.91716,40.5245514,45.0938416c5.4729767,34.7206421,9.2751007,56.3161926,11.3996887,64.756073
		c6.3254852,28.8043365,13.2853394,43.1873627,20.8962402,43.1873627c5.899231,0,14.7655487-9.3363037,26.5877533-28.0232391
		c11.8192749-18.6833954,18.1376953-32.899704,18.993927-42.6660004
		c1.6808777-16.1256866-4.6512756-24.2075806-18.993927-24.2075806c-6.7484131,0-13.7116089,1.5551453-20.8691864,4.6308899
		c13.858139-45.4894867,40.3438873-67.579361,79.425705-66.3176727
		C360.0428772,116.3580399,373.6999512,135.1846313,372.0357361,171.9990692z"/>
</g>
</svg>
