<?xml version="1.0" encoding="utf-8"?>
<!-- Generator: Adobe Illustrator 19.1.0, SVG Export Plug-In . SVG Version: 6.00 Build 0)  -->
<!DOCTYPE svg PUBLIC "-//W3C//DTD SVG 1.0//EN" "http://www.w3.org/TR/2001/REC-SVG-20010904/DTD/svg10.dtd">
<svg version="1.0" id="Icons_3_" xmlns="http://www.w3.org/2000/svg" xmlns:xlink="http://www.w3.org/1999/xlink" x="0px" y="0px"
	 width="465px" height="465px" viewBox="0 0 465 465" style="enable-background:new 0 0 465 465;" xml:space="preserve">
<g id="Error">
</g>
<g id="View">
</g>
<g id="Video">
</g>
<g id="User_Personal">
</g>
<g id="Upload">
</g>
<g id="Travel">
</g>
<g id="Transfers">
</g>
<g id="Tools">
</g>
<g id="Clock">
</g>
<g id="Fast_Track">
</g>
<g id="Camera">
</g>
<g id="Tablet">
</g>
<g id="Switch">
</g>
<g id="Survey">
</g>
<g id="Minimize">
</g>
<g id="Stock_Up">
</g>
<g id="Stock_Down">
</g>
<g id="Sound">
</g>
<g id="Shopping_Cart">
</g>
<g id="Share">
</g>
<g id="Settings">
</g>
<g id="Secure_Key_Passcode">
</g>
<g id="Search">
</g>
<g id="Script">
</g>
<g id="Staff_Channels">
	<g id="Signature">
	</g>
	<g id="Shortcuts">
	</g>
	<g id="Microphone">
	</g>
	<g id="Dial">
	</g>
</g>
<g id="Social_Icons">
	<g id="Youtube">
	</g>
	<g id="Youtube_Solid">
	</g>
	<g id="Weibo">
	</g>
	<g id="Weibo_Solid">
	</g>
	<g id="Vimeo">
	</g>
	<g id="Vimeo_Solid">
	</g>
	<g id="Twitter">
	</g>
	<g id="Twitter_Solid">
	</g>
	<g id="LinkedIn">
	</g>
	<g id="LinkedIn_Solid">
	</g>
	<g id="GooglePlus">
	</g>
	<g id="GooglePlus_Solid">
	</g>
	<g id="Facebook">
	</g>
	<g id="Facebook_Solid">
	</g>
</g>
<g>
	<path d="M68.8209763,73.8199997v327.3599854h327.3599854V73.8199997H68.8209763z M341.5152588,196.4946594
		c-1.0025635,21.9808197-16.3269653,52.0740967-45.9634094,90.2730103
		c-30.6387939,39.9039001-56.5651245,59.8523254-77.7650299,59.8523254c-13.131958,0-24.255249-12.1464539-33.3326263-36.4493713
		c-6.0597076-22.2778015-12.1260681-44.5485229-18.1891022-66.8294525
		c-6.7448578-24.2893829-13.9740448-36.4460449-21.7079468-36.4460449c-1.6846008,0-7.5838318,3.5531921-17.6843719,10.635849
		l-10.6017227-13.6876526c11.1201706-9.7935638,22.0934067-19.583786,32.8861923-29.380661
		c14.8334198-12.8488922,25.9671173-19.6006317,33.3940125-20.2793427
		c17.5376587-1.6912689,28.3337708,10.3222046,32.381485,36.0301971
		c4.3748779,27.7470398,7.4131622,45.0016327,9.1115112,51.7500305c5.0535889,23.0175018,10.6152344,34.509201,16.695343,34.509201
		c4.7160187,0,11.7984619-7.4610596,21.2442322-22.3897858c9.4457703-14.9291687,14.4924927-26.2913818,15.1778564-34.093338
		c1.3470154-12.8830414-3.7167664-19.3450623-15.1778564-19.3450623c-5.3945312,0-10.9563751,1.2412872-16.6782837,3.7032623
		c11.0756226-36.3505096,32.2380676-54.0040894,63.4669189-52.9946594
		C331.9298096,152.0352173,342.8416443,167.0765533,341.5152588,196.4946594z"/>
</g>
</svg>
