<?xml version="1.0" encoding="utf-8"?>
<!-- Generator: Adobe Illustrator 19.1.0, SVG Export Plug-In . SVG Version: 6.00 Build 0)  -->
<!DOCTYPE svg PUBLIC "-//W3C//DTD SVG 1.0//EN" "http://www.w3.org/TR/2001/REC-SVG-20010904/DTD/svg10.dtd">
<svg version="1.0" id="Icons_3_" xmlns="http://www.w3.org/2000/svg" xmlns:xlink="http://www.w3.org/1999/xlink" x="0px" y="0px"
	 width="465px" height="465px" viewBox="0 0 465 465" style="enable-background:new 0 0 465 465;" xml:space="preserve">
<g id="Error">
</g>
<g id="View">
</g>
<g id="Video">
</g>
<g id="User_Personal">
</g>
<g id="Upload">
</g>
<g id="Travel">
</g>
<g id="Transfers">
</g>
<g id="Tools">
</g>
<g id="Clock">
</g>
<g id="Fast_Track">
</g>
<g id="Camera">
</g>
<g id="Tablet">
</g>
<g id="Switch">
</g>
<g id="Survey">
</g>
<g id="Minimize">
</g>
<g id="Stock_Up">
</g>
<g id="Stock_Down">
</g>
<g id="Sound">
</g>
<g id="Shopping_Cart">
</g>
<g id="Share">
</g>
<g id="Settings">
</g>
<g id="Secure_Key_Passcode">
</g>
<g id="Search">
</g>
<g id="Script">
</g>
<g id="Staff_Channels">
	<g id="Signature">
	</g>
	<g id="Shortcuts">
	</g>
	<g id="Microphone">
	</g>
	<g id="Dial">
	</g>
</g>
<g id="Social_Icons">
	<g id="Youtube">
	</g>
	<g id="Youtube_Solid">
	</g>
	<g id="Weibo">
	</g>
	<g id="Weibo_Solid">
	</g>
	<g id="Vimeo">
	</g>
	<g id="Vimeo_Solid">
	</g>
	<g id="Twitter">
	</g>
	<g id="Twitter_Solid">
	</g>
	<g id="LinkedIn">
	</g>
	<g id="LinkedIn_Solid">
	</g>
	<g id="GooglePlus">
	</g>
	<g id="GooglePlus_Solid">
	</g>
	<g id="Facebook">
	</g>
	<g id="Facebook_Solid">
	</g>
</g>
<g>
	<path d="M190.577652,274.3040161c-8.4534149,0-15.5564728,6.4245605-15.5564728,13.858551
		c0,7.0959778,5.0737915,11.8292542,12.8486938,11.8292542c6.7588196,0,15.2122192-6.4212036,15.2122192-14.1994324
		C202.7407532,279.7124939,199.027298,274.3040161,190.577652,274.3040161z"/>
	<path d="M210.5227356,267.8798828c-4.3990326,0-6.0869751,3.3792114-6.0869751,5.411377
		c0,2.0255127,1.6879425,4.72995,4.7328796,4.72995c4.0581207,0,6.0836334-3.7171936,6.0836334-5.7493591
		C215.2489471,270.2496643,214.5771027,267.8798828,210.5227356,267.8798828z"/>
	<path d="M213.5572662,223.5940094c-51.0371857,0-83.4938049,30.4240112-83.4938049,55.1024017
		c0,24.6746216,29.0736694,46.986145,70.6517792,46.986145c41.5714417,0,83.4938049-24.6779785,83.4938049-55.0986328
		C284.2127686,240.4974823,248.3769836,223.5940094,213.5572662,223.5940094z M198.3488007,315.2036133
		c-27.3824005,0-37.1861572-20.6202393-37.1861572-32.7904358c0-19.6041565,20.2826843-37.8613281,43.9483032-37.8613281
		c23.6585388,0,37.1790619,15.5498047,37.1790619,32.4495239
		C242.2900085,293.9048767,225.7312012,315.2036133,198.3488007,315.2036133z"/>
	<path d="M68.8199997,73.8199997v327.3599854h327.3599854V73.8199997H68.8199997z M210.5227356,340.2196045
		c-48.6778412,0-106.1433258-23.9998779-106.1433258-68.6229248c0-41.9157104,64.9061279-109.5225372,106.8184967-109.5225372
		c11.8325958,0,20.6202545,6.0834351,20.6202545,18.9323273c0,12.1635284-2.7044373,16.228302-2.7044373,17.9127045
		c0,2.0323792,1.6916809,2.0323792,2.7044373,2.0323792c3.3825378,0,20.9578552-9.8037415,39.552597-9.8037415
		c18.932312,0,24.6746216,10.4755859,24.6746216,19.6074982c0,9.1252441-4.0543518,13.5207367-4.0543518,17.9162292
		c0,4.0543823,35.8287048,7.7713623,35.8287048,37.8613281
		C327.8164062,303.3710327,275.7593689,340.2196045,210.5227356,340.2196045z M292.3215332,184.044754
		c-1.6912842,0-4.0510559,0.6753845-5.7489624,0.6753845c-4.0548096,0-7.4339905-3.3794098-7.4339905-8.4533997
		c0-5.0640106,4.0543518-9.1219177,13.1796265-9.1219177c12.5077515,0,33.4656067,8.7876587,33.4656067,33.4624939
		c0,14.5332947-6.079895,15.5529175-9.4624023,15.5529175c-3.375885,0-8.1124878-2.7075653-8.1124878-8.1122742
		c0-2.0323944,1.0127563-4.0545807,1.0127563-8.1193542C308.8874207,193.8485107,303.8165283,184.044754,292.3215332,184.044754z
		 M347.7615051,228.3304291c-6.4245605,0-9.803772-5.749176-9.803772-9.4626312
		c0-4.0545807,3.0449524-6.0869751,3.0449524-18.5947418c0-29.0667877-24.3403625-47.999115-48.3402405-47.999115
		c-7.7711487,0-8.4496765,1.6912537-12.1668701,1.6912537c-6.7583923,0-9.8037415-5.4082489-9.8037415-9.8037415
		c0-6.4210205,4.7332764-11.1540985,21.9706116-11.1540985c28.0609131,0,67.6068115,21.9741364,67.6068115,67.6066132
		C360.606842,221.9094086,355.1950684,228.3304291,347.7615051,228.3304291z"/>
</g>
</svg>
