<?xml version="1.0" encoding="utf-8"?>
<!-- Generator: Adobe Illustrator 19.1.0, SVG Export Plug-In . SVG Version: 6.00 Build 0)  -->
<!DOCTYPE svg PUBLIC "-//W3C//DTD SVG 1.0//EN" "http://www.w3.org/TR/2001/REC-SVG-20010904/DTD/svg10.dtd">
<svg version="1.0" id="Icons_3_" xmlns="http://www.w3.org/2000/svg" xmlns:xlink="http://www.w3.org/1999/xlink" x="0px" y="0px"
	 width="465px" height="465px" viewBox="0 0 465 465" style="enable-background:new 0 0 465 465;" xml:space="preserve">
<g id="Error">
</g>
<g id="View">
</g>
<g id="Video">
</g>
<g id="User_Personal">
</g>
<g id="Upload">
</g>
<g id="Travel">
</g>
<g id="Transfers">
</g>
<g id="Tools">
</g>
<g id="Clock">
</g>
<g id="Fast_Track">
</g>
<g id="Camera">
</g>
<g id="Tablet">
</g>
<g id="Switch">
</g>
<g id="Survey">
</g>
<g id="Minimize">
</g>
<g id="Stock_Up">
</g>
<g id="Stock_Down">
</g>
<g id="Sound">
</g>
<g id="Shopping_Cart">
</g>
<g id="Share">
</g>
<g id="Settings">
</g>
<g id="Secure_Key_Passcode">
</g>
<g id="Search">
</g>
<g id="Script">
</g>
<g id="Staff_Channels">
	<g id="Signature">
	</g>
	<g id="Shortcuts">
	</g>
	<g id="Microphone">
	</g>
	<g id="Dial">
	</g>
</g>
<g id="Social_Icons">
	<g id="Youtube">
	</g>
	<g id="Youtube_Solid">
	</g>
	<g id="Weibo">
	</g>
	<g id="Weibo_Solid">
	</g>
	<g id="Vimeo">
	</g>
	<g id="Vimeo_Solid">
	</g>
	<g id="Twitter">
	</g>
	<g id="Twitter_Solid">
	</g>
	<g id="LinkedIn">
	</g>
	<g id="LinkedIn_Solid">
	</g>
	<g id="GooglePlus">
	</g>
	<g id="GooglePlus_Solid">
	</g>
	<g id="Facebook">
	</g>
	<g id="Facebook_Solid">
	</g>
</g>
<g>
	<path d="M307.8297424,227.2067413c0-5.5549927,5.1218262-11.1095581,5.1218262-22.6320496
		c0-11.5362244-7.2564697-24.7703705-31.1708069-24.7703705c-23.4880981,0-45.6905975,12.3816528-49.9667358,12.3816528
		c-1.2787476,0-3.4168091,0-3.4168091-2.5641632c0-2.1312561,3.4168091-7.2599945,3.4168091-22.6287079
		c0-16.2316437-11.0995483-23.9212036-26.0489807-23.9212036c-52.9470825,0-134.9439392,85.4102631-134.9439392,138.3605957
		c0,56.3707275,72.5988998,86.692749,134.0914307,86.692749c82.4128723,0,148.1781616-46.5499268,148.1747131-93.0931702
		C353.0906677,237.024231,307.8297424,232.3283997,307.8297424,227.2067413z M192.5342407,349.7623596
		c-52.5276489,0-89.256752-28.187439-89.256752-59.3544922c0-31.1811829,41.0052567-69.6152802,105.4747086-69.6152802
		c43.9889984,0,89.2635803,21.3603668,89.2635803,59.3644867
		C298.0157776,318.591156,245.048233,349.7623596,192.5342407,349.7623596z"/>
	<path d="M338.5776978,211.408432c4.2761536,0,11.9554749-1.2924957,11.9554749-19.6487122
		c0-31.1774445-26.4752502-42.2770081-42.2771912-42.2770081c-11.5292053,0-16.651062,5.1249847-16.651062,11.5258179
		c0,6.4108124,4.2693176,10.6833038,9.3911438,10.6833038c2.1414795,0,5.1218262-0.8558197,7.2598877-0.8558197
		c14.5266113,0,20.9305725,12.3816376,21.3534241,20.0678711c0,5.1287384-1.2787476,7.6862488-1.2787476,10.2574768
		C328.3272705,207.981369,334.3152161,211.408432,338.5776978,211.408432z"/>
	<path d="M308.6856689,106.3527908c-21.7830811,0-27.7608337,5.9779053-27.7608337,14.0903931
		c0,5.5479126,3.8430786,12.3849716,12.3885498,12.3849716c4.6989746,0,5.5480652-2.1345825,15.3722839-2.1345825
		c30.3149109,0,61.0662842,23.9141235,61.0662842,60.6365662c0,15.8053894-3.849884,18.3695374-3.849884,23.4916229
		c0,4.6954041,4.2727356,11.9620514,12.3885498,11.9620514c9.3945312,0,16.2315979-8.1124878,15.7985229-35.0207672
		C394.0891113,134.1102448,344.1325989,106.3527908,308.6856689,106.3527908z"/>
	<path d="M198.0788879,247.2746277c-29.8920593,0-55.514801,23.0653687-55.514801,47.8286438
		c0,15.375824,12.3885193,41.4212036,46.9761658,41.4212036c34.5944519,0,55.5079803-26.9082947,55.5079803-48.2582703
		C245.048233,266.9162598,227.9709473,247.2746277,198.0788879,247.2746277z M176.3026276,317.3124084
		c-9.8173981,0-16.2315979-5.977478-16.2315979-14.9458008c0-9.3945618,8.9717102-17.510376,19.6518402-17.510376
		c10.6732941,0,15.368866,6.8337097,15.7951202,14.5128784
		C195.5179901,309.2003479,184.8412781,317.3124084,176.3026276,317.3124084z M203.2075195,289.5516357
		c-3.849884,0-5.9777222-3.4166565-5.9777222-5.9741821c0-2.5641479,2.1278381-6.8370667,7.686142-6.8370667
		c5.1286469,0,5.9743195,2.9941711,5.9743195,5.5516663C210.8902588,284.8562317,208.3327637,289.5516357,203.2075195,289.5516357z"
		/>
</g>
</svg>
