<?xml version="1.0" encoding="utf-8"?>
<!-- Generator: Adobe Illustrator 19.1.0, SVG Export Plug-In . SVG Version: 6.00 Build 0)  -->
<!DOCTYPE svg PUBLIC "-//W3C//DTD SVG 1.0//EN" "http://www.w3.org/TR/2001/REC-SVG-20010904/DTD/svg10.dtd">
<svg version="1.0" id="Icons_3_" xmlns="http://www.w3.org/2000/svg" xmlns:xlink="http://www.w3.org/1999/xlink" x="0px" y="0px"
	 width="465px" height="465px" viewBox="0 0 465 465" style="enable-background:new 0 0 465 465;" xml:space="preserve">
<g id="Error">
</g>
<g id="View">
</g>
<g id="Video">
</g>
<g id="User_Personal">
</g>
<g id="Upload">
</g>
<g id="Travel">
</g>
<g id="Transfers">
</g>
<g id="Tools">
</g>
<g id="Clock">
</g>
<g id="Fast_Track">
</g>
<g id="Camera">
</g>
<g id="Tablet">
</g>
<g id="Switch">
</g>
<g id="Survey">
</g>
<g id="Minimize">
</g>
<g id="Stock_Up">
</g>
<g id="Stock_Down">
</g>
<g id="Sound">
</g>
<g id="Shopping_Cart">
</g>
<g id="Share">
</g>
<g id="Settings">
</g>
<g id="Secure_Key_Passcode">
</g>
<g id="Search">
</g>
<g id="Script">
</g>
<g id="Staff_Channels">
	<g id="Signature">
	</g>
	<g id="Shortcuts">
	</g>
	<g id="Microphone">
	</g>
	<g id="Dial">
	</g>
</g>
<g id="Social_Icons">
	<g id="Youtube">
	</g>
	<g id="Youtube_Solid">
	</g>
	<g id="Weibo">
	</g>
	<g id="Weibo_Solid">
	</g>
	<g id="Vimeo">
	</g>
	<g id="Vimeo_Solid">
	</g>
	<g id="Twitter">
	</g>
	<g id="Twitter_Solid">
	</g>
	<g id="LinkedIn">
	</g>
	<g id="LinkedIn_Solid">
	</g>
	<g id="GooglePlus">
	</g>
	<g id="GooglePlus_Solid">
	</g>
	<g id="Facebook">
	</g>
	<g id="Facebook_Solid">
	</g>
</g>
<g>
	<path d="M68.8199997,73.8199997v327.3599854h327.3599854V73.8199997H68.8199997z M353.7902832,250.1135101
		c0,11.4167633-1.0570984,26.9494781-2.2540283,35.6788788c-1.2070618,8.7943115-4.7262268,20.7055664-12.4668884,27.2358704
		c-5.5139771,4.6512756-11.2939453,6.7071838-20.8589783,7.6724854
		c-10.9324341,1.1014404-55.4330139,2.7789612-86.0275269,2.7789612c-20.3338165,0-81.8092957-1.2000732-93.028183-3.9282532
		c-10.1038666-2.4654846-16.7840576-6.3800049-21.1965637-14.5332947
		c-4.7842331-8.8388367-5.6571808-15.4881897-6.4244537-23.160675c-0.7672653-7.6725159-1.8243637-18.5572815-1.8243637-30.7412109
		c0-7.5259705-0.0477066-16.9238739-0.0477066-26.1344452c0-9.2035065,1.2002792-30.4956207,2.7313919-38.0723724
		c1.5344849-7.577179,2.9428482-14.6769104,8.4397659-21.4831696c5.2274933-6.4720001,13.1114044-9.7833557,20.9578552-10.9838409
		c9.3979492-1.4390106,63.8727112-2.8780212,90.5355072-2.8780212c27.1402283,0,76.4794922,1.10849,89.147644,2.9737549
		c12.37146,1.8207245,17.1556396,6.4753418,19.4676514,8.9683228c4.4603271,4.7944794,8.5352783,12.5144348,10.3562317,24.5484924
		c2.1312256,14.0695801,2.4926453,27.8119812,2.4926453,36.6371155
		C353.7902832,233.5172272,353.7902832,238.7038269,353.7902832,250.1135101z"/>
	<polygon points="207.8695984,271.7669067 273.887146,237.5715942 207.8695984,203.1306763 	"/>
</g>
</svg>
