<?xml version="1.0" encoding="utf-8"?>
<!-- Generator: Adobe Illustrator 19.1.0, SVG Export Plug-In . SVG Version: 6.00 Build 0)  -->
<!DOCTYPE svg PUBLIC "-//W3C//DTD SVG 1.0//EN" "http://www.w3.org/TR/2001/REC-SVG-20010904/DTD/svg10.dtd">
<svg version="1.0" id="Icons_3_" xmlns="http://www.w3.org/2000/svg" xmlns:xlink="http://www.w3.org/1999/xlink" x="0px" y="0px"
	 width="465px" height="465px" viewBox="0 0 465 465" style="enable-background:new 0 0 465 465;" xml:space="preserve">
<g id="Error">
</g>
<g id="View">
</g>
<g id="Video">
</g>
<g id="User_Personal">
</g>
<g id="Upload">
</g>
<g id="Travel">
</g>
<g id="Transfers">
</g>
<g id="Tools">
</g>
<g id="Clock">
</g>
<g id="Fast_Track">
</g>
<g id="Camera">
</g>
<g id="Tablet">
</g>
<g id="Switch">
</g>
<g id="Survey">
</g>
<g id="Minimize">
</g>
<g id="Stock_Up">
</g>
<g id="Stock_Down">
</g>
<g id="Sound">
</g>
<g id="Shopping_Cart">
</g>
<g id="Share">
</g>
<g id="Settings">
</g>
<g id="Secure_Key_Passcode">
</g>
<g id="Search">
</g>
<g id="Script">
</g>
<g id="Staff_Channels">
	<g id="Signature">
	</g>
	<g id="Shortcuts">
	</g>
	<g id="Microphone">
	</g>
	<g id="Dial">
	</g>
</g>
<g id="Social_Icons">
	<g id="Youtube">
	</g>
	<g id="Youtube_Solid">
	</g>
	<g id="Weibo">
	</g>
	<g id="Weibo_Solid">
	</g>
	<g id="Vimeo">
	</g>
	<g id="Vimeo_Solid">
	</g>
	<g id="Twitter">
	</g>
	<g id="Twitter_Solid">
	</g>
	<g id="LinkedIn">
	</g>
	<g id="LinkedIn_Solid">
	</g>
	<g id="GooglePlus">
	</g>
	<g id="GooglePlus_Solid">
	</g>
	<g id="Facebook">
	</g>
	<g id="Facebook_Solid">
	</g>
</g>
<g>
	<path d="M380.0392151,177.2342682c0,0-2.942749-20.7701111-11.9862061-29.9190826
		c-11.460968-12.0099335-24.3097839-12.0682068-30.1989136-12.7671051
		c-42.1885376-3.0553589-105.4678345-3.0553589-105.4678345-3.0553589h-0.126236c0,0-63.2759552,0-105.4645081,3.0553589
		c-5.8924713,0.6988983-18.7379303,0.7571716-30.1989136,12.7671051
		c-9.0433502,9.152298-11.9895325,29.9190826-11.9895325,29.9190826s-3.0144501,24.3953094-3.0144501,48.7868958v22.8676453
		c0,24.4019623,3.0144501,48.7935638,3.0144501,48.7935638s2.9428558,20.7805176,11.9895325,29.9194946
		c11.4609833,12.0065918,26.5297928,11.6244507,33.2407379,12.8898926
		c24.1120453,2.3085632,102.4908447,3.0245361,102.4908447,3.0245361s63.3373718-0.0953064,105.5259094-3.1510925
		c5.8924866-0.6955566,18.7379456-0.7600708,30.1989136-12.7633362c9.039917-9.142334,11.9862061-29.9194946,11.9862061-29.9194946
		s3.0041504-24.3882446,3.0041504-48.7935638v-22.8676453C383.0433655,201.6295776,380.0392151,177.2342682,380.0392151,177.2342682
		z M201.2017365,276.6017151l-0.0136261-84.6976166l81.4546509,42.4955292L201.2017365,276.6017151z"/>
</g>
</svg>
